<?xml version="1.0" encoding="utf-8"?>
<!-- Generator: Adobe Illustrator 23.0.2, SVG Export Plug-In . SVG Version: 6.00 Build 0)  -->
<svg version="1.1" id="Layer_1" xmlns="http://www.w3.org/2000/svg" xmlns:xlink="http://www.w3.org/1999/xlink" x="0px" y="0px"
	 viewBox="0 0 3871 2367" style="enable-background:new 0 0 3871 2367;" xml:space="preserve">
<style type="text/css">
	.st0{display:none;fill-rule:evenodd;clip-rule:evenodd;fill:#232931;}
	.st1{fill-rule:evenodd;clip-rule:evenodd;fill:#FFDCFD;}
	.st2{fill-rule:evenodd;clip-rule:evenodd;fill:#F8004F;}
	.st3{fill-rule:evenodd;clip-rule:evenodd;}
</style>
<title>composition-24</title>
<desc>Created with Sketch.</desc>
<g id="composition-24">
	<rect x="150.1" y="-481.8" class="st0" width="3871" height="2367"/>
	<ellipse id="Oval" class="st1" cx="3654.7" cy="1619.9" rx="1769.8" ry="1610"/>
	<g transform="translate(1353.000000, 296.000000)">
		<path id="Accent" class="st2" d="M1677.9,496c-18.8,36.7-38.6,72.4-58.6,108.5c-10.6,19.1-44.8,98-53.6,101
			c-9.5,3.2-67.8-31-84.5-37.7c-29.7-11.9-57.9-23.2-89-30.6c-34.8-8.2-69.8-14.3-105.8-11.2c-15.8,1.3-41.9,5.2-26.2-17
			c11.4-16.2,22.5-31.1,38.1-42.7c11.3-8.5,27.9-24.1,41.1-29.8c13.9-6,34.4-4.6,49.3-4.3c16.1,0.4,93.1,24.4,97.3-0.6
			c7.8,7.1,12.4,4.4,21.4,7.9c10.1,3.9,16.5,11.6,26.5,16.2c6.5,3,18.6,14.8,25.8,14.9c9.6,0.1,12.2-7.9,19.2-13.8
			c15.5-13.2,36.2-21.9,53-33.4C1646.7,513.1,1660.8,502.6,1677.9,496z M1509,206c-1.3,16.8,3.2,32.3,3.1,49.6
			c0,7.5-0.4,15,1.9,22.3c2.1,6.5,0.6,18.2,1.7,25c-19.2-5.8-54.9-14.5-74.5-6.6c-18.7,7.5-21.1,42.4-21.8,59.3
			c-0.5,11.5,4.7,29.3,0.8,40.4c-1.8,5.2-1.8,6.9-1.7,7.3l0,0c-0.3-0.2-1.8-0.2-7.2,3.6c-5.3,3.8-11.5,5.9-16.7,10.1
			c-9.5,7.6-11.1,16.3-15.7,27.3c-4.5,10.7-16.6,20.3-30.1,19.9c10.8-19.6,25.9-38,17.2-61c-6.5-17.4,4.9-37.8,13.9-54.3
			c3-5.5,35.9-47.4,21.3-50.4c-9.5-1.9-31.2,42.6-35.4,50.4c-11.6-7.8-16.8-17.5-7.9-29.3c6.9-9.1,15.3-16.8,22-26.2
			c10.8-15.3,21.4-33.5,34.3-47C1436.9,222.3,1476.4,206.1,1509,206z M1418.5,403.2L1418.5,403.2
			C1418.7,403.2,1418.6,403.3,1418.5,403.2L1418.5,403.2z M1813.1,179.9c14.5,13.9,32.8,25.3,46.7,39.9
			c12.2,12.7,28.7,34.1,34.5,51.1c-29.8,5.7-79.4,23.3-91.2,54.6c-46.4-42.6-64.3,35.2-73.5,67.8c-27.1-11.7-21.7-50.8-21.4-73.7
			c0.3-18.1,11.3-39.5-15-41c-19.6-1.1-38.7,6.9-56.5,14.4c-22.1,9.3-45.3,23.3-63.2,39.4l-18.6-14.5c30.5-17.1,46.4-49.9,64.3-79.9
			c5.7-9.6,13.3-20.2,17.5-30.5c2.9-7.1,4.9-21.6,8.1-27.9c5-10,53.4-12.7,66.2-15.3C1744.9,157.5,1785.4,153.4,1813.1,179.9z"/>
		<g id="Ink" transform="translate(167.199168, 81.229936)">
			<path id="ink-layer" class="st3" d="M1638.2,320.8c12.5-0.6,25,2.2,37.5,0.9c-10.9-9.5-21.7-18.9-32.6-28.4
				C1638.3,301.8,1637.9,311.4,1638.2,320.8L1638.2,320.8z M1341.3,126.3c-32.4,0.1-71.9,16.4-94.4,40.2
				c-11.9,12.6-21.8,29.5-31.8,43.6c-6.8,9.5-13.4,18.6-21.6,27c-12,12.2-8.5,14.9,4.9,24.1c4.3-8,26.9-50.7,36.4-48.8
				c14.4,2.9-13.4,48.1-16.5,53.7c-9,16.6-23.5,39.9-17,57.4c8.6,23.2-3.9,36.4-14.7,56.1c11.4,0.3,12.5-4.1,16.4-13.8
				c5-12.5,10.5-22.9,21.2-31.6c8.3-6.7,21.8-9.5,25.7-17.6c4.8-10,1.8-29.7,2.2-40.8c0.6-16.9,0.6-56.7,19.2-64.2
				c19.5-7.9,54.5-0.5,73.5,5.4c-2.4-14.9-9.9-24.6-9.8-41.1C1335.3,158.6,1340,143.2,1341.3,126.3L1341.3,126.3z M1092.5,402.2
				c16.9-5.4,33-11,50.4-14.7c18.2-3.8,19.5-8.2,29.7-23.8c7.8-11.9,17.2-21.1,15-35.6c-1.4-9.3-6.5-13.8-5-24.3
				c0.9-6.5,4-13.6,6.2-19.7c2.7-7.6,8.2-16.2-4.7-16.5c-7.1-0.2-7.5,3.6-12.3,9.9c-8.9,11.7-19.2,22.3-28.7,33.5
				c-16.5,19.5-34,40.2-52.4,58.2c-20.3,19.8-37.8,43.7-50.8,69.1c-2.4,4.7-17.1,32.3-10.9,37.7c5.8,5,37.8-6.6,43.7-8
				c25.2-5.9,53.9-7.9,77.7-18.6c12.1-5.4,38.9-11.9,48.5-20.3c8.9-7.8,8.5-26.7,3.3-37.6C1187.9,400.4,1083.2,434.3,1092.5,402.2
				L1092.5,402.2z M1407.7,247.3c16.9-15.3,36.9-27.5,57.8-36.6c18.7-8.1,41.9-17.2,62.6-15.8c25.9,1.8,15.1,22.6,15,40.3
				c-0.1,23.5-10.4,57.5,17.7,69.7c9.2-32.6,28.5-109.7,74.9-67c11.8-31.3,54.1-42,83.9-47.7c-5.4-15.8-21.8-30.2-33.1-42.1
				c-14.2-14.9-25.4-32.3-39.6-46.9c-28.1-28.8-79-19.6-114.6-12.4c-11.9,2.4-46.3,5.4-52.1,14.1c-3.6,5.5-1.6,18.8-4.3,25.5
				c-3.7,9.2-10,17.8-15,26.3c-18.4,31.1-37.2,62.3-68.7,80.1L1407.7,247.3z M1510.8,414.6c-16.7,6.4-29,17.1-43.8,26.1
				c-17.9,10.9-39,21.2-55.1,34.7c-5.9,4.9-9.2,13.5-17.3,14c-7.1,0.5-17.9-7.7-24.1-10.6c-10.5-4.8-20.6-12.1-31.2-16.5
				c-8.7-3.5-12.5-2.8-20.1-9.7c-4.2,25.1-81,1.6-97.1,1.3c-14.9-0.4-35.3,1.4-49.2,7.4c-13.2,5.7-23.5,18.3-34.8,26.8
				c-15.5,11.7-30.3,23.6-41.7,39.8c-15.7,22.3,8,16,23.7,14.6c36-3.1,70.9,5.5,105.6,13.7c31,7.4,61.6,16.2,91.2,28.2
				c16.7,6.7,34.2,12.9,49.9,21.7c8.3,4.6,21.7,15.9,31.2,12.7c8.7-3,17.4-27.9,22.6-37.9c10.2-19.3,21-38.3,31.6-57.5
				C1472.3,487.3,1492.1,451.5,1510.8,414.6L1510.8,414.6z M1305.5,893.3c10.3-5.9,27.1-4.3,38.4-6.8c12.9-2.8,25.8-7.4,38-12.1
				c12.4-4.8,24.1-9.7,35.5-15.7c5.2-2.8,12.1-5.5,16.9-9.3c3.9-3.1,5.3-8.8,8.8-11.6c9.3-7.3,12-2.7,13.3-16.8
				c1.4-15.3-7.2-23.9-17.9-35.3c-9.5-10.2-21.9-19.1-33.9-26.3c-5.3-3.2-11-6.8-16.4-9.8c-8.2-4.6-19.2-12.2-23.5-2.4
				c9,2.3,10.9,13.7,2.8,17.8c-4.4,2.3-11.2-1.1-16.2,1.3c-7.7,3.7-15.2,14-21.8,19.6c-21.7,18.3-42.5,25.1-70.9,26.6
				c-59.4,3.1-121.5-3.7-179.7-12.5c-15-2.3-29.9,0.2-45.1-0.4c-14.7-0.5-30.1-3.7-44.5-6.2c-27.9-4.8-57.2-8.7-84.7-15.8
				c-33.2-8.5-66.5-19.5-97.6-33.8c-29.9-13.7-63.6-36.3-97.2-38c14.3,14,35.8,19.4,53,28.6c14.1,7.5,36.1,12.4,45,24.8
				c5.8,8.1,8.7,22.9,13.1,32.4c4.8,10.5,9.3,21.2,13.8,31.8c4.5,10.7,9.2,21.4,12.8,32.5c2.3,6.8,3.2,21,8.6,25.7
				c8.5,7.5,37,10.8,48.5,13.3c21.4,4.6,45.9,4,67.8,4.3c9,0.1,18.1,1.4,26.8,1.5c12.1,0.2,11-1.9,10.8-12.4
				c-0.1-6.3,0-17.8,8.5-12.6c5.8,3.5,1.8,19.3,0.7,24.8c48.3,4.8,98.6,7.2,146.7,5.6C1213.2,904.9,1258.8,898.8,1305.5,893.3
				L1305.5,893.3z M1523.4,782.5c8.5-61.1,18.9-123.3,30.5-183.6c11.7-61,25.9-121.4,41.7-182.2c-10.5-2.5-21-5-31.5-7.5
				c-0.4,12.8-4.7,23.9-6.6,36.7c-2.5,17.6-7.4,34.7-10.3,52.2c-5.5,33.3-15.8,65.9-24.8,98.4c-9.2,33.1-12.3,67.3-20.8,100.5
				c-7,27.4-10.5,57.6-14.4,85.8c-9.5,68.4-22.9,136.9-33.2,205.4c-9.6,64.2-10.6,129.6-10,194.4c0.3,39.5,6.4,79,6.1,118.6
				c-0.1,9.8,0.7,19.5,1.3,29.3c0.4,6.9-3.3,26-0.2,31.8c2,3.7,10.5,7,13.6,12.1c4.8,8,5.8,17.6,13.5,23.7
				c6.2-25.1,3.3-58.3,1.9-83.9c-1.3-24.7,1.2-50.2,1.7-75.3c1-49.2,3.6-97.7,6.1-146.9c2.8-54,10.6-109.3,18.3-162.8
				C1513.3,880.5,1517.9,831,1523.4,782.5L1523.4,782.5z M1295.5,15.8c-3.4-0.3-6.8-0.6-10.1-0.9c0.5,7.1-1,18.6,4,22.3
				c3.8,2.8,11.5,1.9,16.1,2.8c15.1,3,32.6,5.4,47.6,0c5.8-2.1,2.1-5.4,10.1-4c9.7,1.6,6.1,3.2,8.9,9.2c2.1,4.7,3.3,12.6,5.7,18.2
				c3.3,7.5,9.9,20.8,7.1,29.5c-2.7,8.4-13,10.9-17.4,20.4c-3.2,7.1-2.5,17.3-4.2,25.1c-2.2,10.4-5.1,20.7-6.3,31.3
				c-1.6,13.3-1,28.9,15.5,31c15.3,1.9,26.3-3,36.5-14.1c19.6-21.3,42-51.3,53.5-78.1c1.3-3.1,4.7-8.3,4.2-11.7
				c-0.9-6.6-1.3,0.1-3.4-4.5c-2-4.4-5.1-8.4-7-13.3c-6.7-17.5-11.4-35.9-14-54.5c-1.2-8.4-1.6-16.7-1.4-25.2
				c0.1-2.9,1.8-11.6,0.8-13.6c-1.1-2-6.6-2.9-8.3-4.9c-3.2-3.7-8.7-14.1-12.2-16.9c-4.3-3.4-14.1-0.7-15.8-7.5
				c-2.8-10.8,64-28.5,32.8-42.9c-23.3-10.8-59.1,43.8-67.2,0.8c-1.4-7.4,1.3-17.5-2-24.3c-3.6-7.5-13.4-10.3-20.3-14
				c-8.7-4.7-17.6-9.5-26.1-14.6c-5.8-3.5-14.2-12.8-20.4-13.7c2.4,12.6-2.2,25.2-2.3,37.8c13.4-3.6,22.7-3.7,36,2.8
				c6.3,3.1,30.1,20.5,18.1,29c-9.8-5.8-20.2-10.8-31.1-14.2c-4.3-1.3-9.7-3.2-14.2-3.3c-10.6-0.2-9.1,0.9-13.1,8.9
				c-3.8,7.7-3,27.8-11.4,32.7c-8.7,5.1-2-2-9.4-0.4c-4.2,0.9-8.9,4.1-12.8,5.9c5.3,5.8,16.1,11.1,19.6,17.5
				c5.2,9.4,3.4,28.7,4.2,39c6.7-2.4,13.8-2.5,20.7-4.3c6.4-1.7,15.3-9,16,1.7C1322.9,12.6,1304,15.8,1295.5,15.8L1295.5,15.8z
				 M1383.3,330.8c0.5-10.3,1.1-20.7,2.3-31c0.8-6.9,7.3-27,3.6-33c-4-6.6-17.6-7-24.1-8.6c-12.5-3-24.4-5.5-37.1-7.5
				c-11.7-1.8-22.7-2.2-34.4-2.8c-12.8-0.6-16-4-18.8,10.1c-2.2,11.1-5.2,22.6-5.6,34c-0.4,10.7,2.8,19.9-7.7,27.1
				c23.2,0,53.4-20.6,74.6-2.2c30.3,26.4-22.4,34-36.3,39.8c11.6,5.6,28.7,10,34.1,22.8c6.1,14.4-2.8,20.5-16.3,21.6
				c1.3,5.5,6.2,9.1,7.6,15.8c2.1,9.8-4.8,6.5,4,14.1c11.6,9.9,35.5,16.6,49.7,22.9c3.3,1.5,6.7,2.9,10.1,4.2
				c5.3,4.7,9.3,3.8,11.8-2.7c7.3-4.6,13.8-14.9,20.3-20.9c14.4-13.3,30.3-25,47.4-34.7c-7.1-2.9-15.6,3.7-22.4,0.5
				c-5.5-2.6-3.4-7.4-6.7-10.9c1.3-4.6-0.1-6.3-4.2-5.1c-2.1,0.2-4-0.1-5.7-1c-3.4-4.3-5-5.7-5.2-12.2c-0.2-7,3.8-9.5,5.4-15
				c5-3.4,4.9-6.8-0.3-10.1c-2.2-3.5-3.4-7.4-3.6-11.5c-1-15.4,13.1-21.6,23.8-29.8c-19.2-2.1-18.5-24.6-5.2-34.5
				c13.8-10.2,43-6,59.6-3.7c3.5,0.5,12.8,4.9,16.3,2.1c2.1-1.7,0.6-16.5,0.7-19.1c0.2-5.9,1.7-13,0.7-18.9c-2-12.3,2.2-6.1-6.7-6.5
				c-21.1-0.8-48,17.6-66.6,26.3c-20.8,9.7-34.2,11.2-34.4,35.3c-0.2,22.8-6.6,45.6-9.4,68c-1.2,9.8-2.1,60.8-20.1,42
				c-7-7.3-2.5-18.5-2-27.5C1383.3,355.8,1382.9,343.2,1383.3,330.8L1383.3,330.8z M221.7,1095c10.3,1.8,27-4.1,38.2-4.7
				c19.6-1.1,39.8-2.9,59-7c15-3.2,32.2-6,40.3-20.5c7.2-13,9.8-29.3,13.7-43.5c2.1-7.5,7.4-18.5,7.4-26.2c0-10.1-1.4-8.1-11.9-13.7
				c-13.4-7-26.4-16.8-40.8-20.8c-4.4-0.9-8.7-1.7-13.1-2.5c-5.7-3.3-8.8-1.7-9.6,4.8c-5.5,5.8-8.8,16.5-13.4,23.3
				c-10.6,15.5-23.1,26.1-39.5,35c-29.5,16.1-56.9,28.5-88.5,39c-17.4,5.8-33.4,13.9-50.4,20.3c-13.6,5.1-32.4,6.7-42.9,18.1
				c-11.8,12.9,6.3,17.5,16.4,26.2c8.3,7.1,8.4,8.8,19.7,5.3c8.4-2.6,15.9-7.5,24-10.8C158.1,1106,191.6,1098.4,221.7,1095
				L221.7,1095z M854.7,1299c-10.3-2.2-20.6-4.5-31-6.7c10.2,18.9,31.5,46.7,16.2,68.6c-5.7,8.2-15.3,10.5-23.8,14.7
				c-10.3,5-19.8,11.5-29.5,17.5c-40.2,24.7-81,49.8-123.3,71c13.2,4.3,33.6,7.2,47.3,3.5c15.9-4.3,30.6-14.3,46.9-18.7
				c29.3-7.8,60.1-14.5,89.8-18.5c24.3-3.3,85.1,4.1,82.2-32.4c-2.8-34.7-23.5-67.8-29.7-102.1
				C884.6,1299.4,870.2,1298.8,854.7,1299L854.7,1299z M1470,743.9c11.8-57.7,18.8-116.5,32.7-173.8c6.9-28.6,11.8-57.6,18.6-86.2
				c3.1-13.3,5.5-26.7,8.6-40c3.1-13.4,9.8-25.9,11.3-39.8c-11.2,2.8-13.8,28.5-17.3,38.2c-6.3,17.8-13.1,34.8-21.1,51.9
				c-12.8,27-26.3,53.1-40.7,79.3c-15.2,27.7-31.2,54.2-50.2,79.5c-6.2,8.3-14.7,14.8-18.7,23.9c-6.3,14.3-9,31.4-15,46.3
				c4.3,2.2,15.2,2.7,20.4,3.7c9.7,1.9,16.5,3.6,25.8,8.2c16.4,8.1,30.2,17.7,41.2,32.4C1468.3,760,1469,751.8,1470,743.9
				L1470,743.9z M1012.7,1184.4c-0.2-55.6-1-111.7-0.1-166.9c0.3-15.3,1.5-31.9,3.7-47.1c1.4-9.6,9.6-29.9,4.2-34.5
				c-4.6-3.9-29-1.3-34.9-1.5c-11.6-0.3-23.2-0.8-34.8-1.7c0,20.6,8.1,44,11.8,64.4c3.5,19,6.4,38.1,9.2,57.2
				c6.2,41.4,8,83.3,14.8,124.8c6.1,37.6,14.2,75.1,18.7,112.7c2.4,20.6,7.4,40.1,11.2,60.7c2,10.8,9.3,55.1,18.6,59.4
				c2-15.9-6-35.1-7.4-51.2c-1.5-16.6-2.6-33.3-5.3-50c-3.2-19.6-4.8-39.6-6-59.5c-0.7-12.1-1-24.2-2-36.3
				C1013.6,1206.3,1010.3,1193,1012.7,1184.4L1012.7,1184.4z M1302.5,440.8c0.4-6.1-15.3-5.8-18.2-12.8
				c-5.9-14.1,7.6-11.6,15.9-13.1c-3-7.9-58.4-5-45.5-26.2c9-14.7,42.9,7.8,52-6.2c6-9.2-10.3-10.5-16.7-11.4
				c-9.7-1.4-32.5,3.1-31.8-9.5c0.9-15.8,45.3-26.7,57.8-31.3c-1.4-10.8-54.8,4.6-62.5,8.9c-17.5,9.9-30.9,27.7-33.5,47.5
				c-3,23,8.7,41.1,31.7,46.8c9.6,2.4,16.7,2.6,25.6,6.2c5.8,2.3,24.7,8.1,28.7,2.3C1304.9,441.7,1303.7,441.3,1302.5,440.8
				L1302.5,440.8z M1616.1,297.7c0.9-9.8,9.2-28.3-0.4-34.8c-13.3-9-18.9,5.9-21.9,14.8c-3.7,10.9-19.2,37.7-5.7,44.5
				c3.2,1.6,18.1-0.3,20.8-1.3c7.4,1.9,9.7-0.8,7.1-8.3L1616.1,297.7L1616.1,297.7z M1290.3,1091.5c-0.8-26.9,11.2-59.2,18-85.5
				c7.7-29.8,11.8-60.2,20-89.7c-9.1,1.1-18.3,2-27.3,3.8c-12.3,2.5-12.5,2.1-11.6,14.1c1.3,18.1-0.4,35.8-1.3,53.9
				c-1.9,36.2,2.7,73-0.3,109C1290.4,1097.9,1291.3,1096,1290.3,1091.5L1290.3,1091.5z M1630.4,387.4c29.5,4.5,57.8,13.9,84.6,26.4
				c14.8,6.9,31.1,14.4,47.6,17.1c18.4,3.1,37.9,1.6,56.6,2.8c6.6,0.4,24,3.6,30.5-0.3c6.4-3.9,5.9-10.4,6.2-18.2
				c0.8-20-8.3-39.6-16.4-57.6c-7-15.4-12.3-27.2-23.1-40.4c-13.9-17-26.1-35.4-39.1-53.2c-9.8-13.4-19.8-26.6-29.8-40
				c-7.2-9.6-6.8-12.9-17.6-11.8c-10.6,1.1-21.4,7.3-31.4,10.7c-14.9,5-32.9,7.7-46.5,15.6c-8.8,5.1-9.2,6.1-9.1,15
				c0.1,8.3,2.8,18.5,7.8,25c10.3,13.5,27.5,20.7,42.2,27.4c8.5,3.9,15.9,9.4,23.4,14.8c8.2,5.8,24.6,9.2,30.9,15.8
				c18.2,19.2-14.9,15.4-24.2,14.9c-20-1.3-39.8-1.1-59.9-1.1c-21.9,0-43.7-1-65.4-0.3c-12.7,0.4-27.2-6-35.4-16.7
				c-4-5.2-5.5-10.1-10.7-15.5c-6.8-7-12.7-14.5-21-19.9c-13.6-8.9-38.2-14-54.3-10.6c5.8,0.8,33,10.1,21,21.7
				c-1.5,1.4-18.9,2.3-22.7,4.1c-6.9,3.1-15.5,7.7-19.5,14.4c11.7-2,55.2-4.2,33,18.2c-5.4,5.5-21.1,11-7.8,16.9
				c3.1,1.3,9.2-0.6,13.1,0.7c5.8,1.8,10.6,6.6,16.1,9.2c15.5,7.3,36.9,11.8,53.1,10.2C1584.8,380.4,1608.1,384.4,1630.4,387.4
				L1630.4,387.4z M1036.3,1064.5c0.8,32.3-0.4,64.8,0.3,97.2c0.7,34.6,5.2,68.6,7.3,102.9c1.9,30.7,6.1,60.9,9.4,91.4
				c1.9,17.6,4.2,34.5,7.2,51.9c2.8,16.4,3.3,30.8-16.3,35.2c-37.4,8.4-43.2-45.4-50.4-68c-10.8-33.8-17.7-69.3-23.1-104.4
				c-10-65.3-23.2-129.7-28.3-195.5c-3.2-40.6-7.8-80.7-10.4-121.2c-0.5-7.9,1.5-20.2-5.5-23.7c-4.2-2.1-15.7-2.1-21-3.7
				c-14.8-4.3-28.4-10.6-42.8-17.2c10.2,53.4,13.6,106.5,21.3,160.4c4.1,28.6,11.8,58.2,18.6,86.3c7,29.1,8.5,60.5,16.6,89.1
				c3.6,12.6,6.6,17.7,1.4,30.6c-6.3,15.8-2.1,19.6,5.8,35.2c14.6,28.6,25.7,62.4,23.2,94.6c-2,26.3-21.9,40.1-46.6,47.2
				c-30.9,8.9-63.2,7.8-94.2,17.9c-27,8.8-54.5,15.3-80.8,26.9c-10.6,4.7-20.6,10.2-32.4,11.1c-16.1,1.2-27-8.2-42.2-10.1
				c-9.5-1.2-23.5,3.3-28.9-6.7c-4.3-7.9,0.6-25.2,6-31.5c15.3-17.9,46-33.5,66.7-44c23.8-12.2,46.9-27.4,69-43.1
				c13.4-9.5,27-18.7,40.4-28.2c8.8-6.3,12.2-6.4,11.3-16.4c-0.7-8-4.3-15.8-5-23.9c-0.5-6.3,1.7-14.8-1.2-18.9
				c-2.2-3-10.4-5.1-13.6-7.4c-11.8-8.3-14.4-18.7-19.8-31.4c-12.1-28.8-26.1-56.8-37.8-85.9c-25.2-62.4-40.5-128-61.4-191.7
				c-21.3-65-40.4-133.3-52.1-200.8c-15.7,4.8-30.5,25.9-43.1,36.4c-16.9,14.1-34.2,27.8-50.8,42.4c-27.2,23.8-54.7,47-77.2,75.5
				c-10.8,13.7-19.7,28.5-29.5,43c-5.7,8.3-10.9,17.8-17.1,25.7c-1,1.3-1,3.9-2.1,5c-2.3,2.4-6.8-0.8-8.3,0.8
				c-9.2,9.7-9.1,37.1-12,49.8c-4,17.6-8.4,37.7-22.1,49.8c-21.2,18.7-60.2,21.6-87,22.6c-34.4,1.2-67.8,10.8-100.4,21.1
				c-15.2,4.8-30,10.4-45.3,15.1c-8.8,2.7-18.8,8-28.2,7c-11.3-1.2-20.3-10.8-28.5-17.8c-13.3-11.3-25.5-22.5-25.1-41.1
				c0.5-19.7,11.1-34.5,27.9-44.3c32.4-18.9,68.7-31,103.7-44c13.4-5,24.9-10.5,37.7-17.3c18.1-9.5,38.9-17.3,55-29.9
				c4.7-3.7,22.1-15.1,23.6-20.9c0.2-0.8-4.2-9.7-4.2-11.1c0-3.6,2.1-7.6,3.4-10.7c8.4-19.7,22.4-38.6,33.1-57.2
				c19.7-34,39.4-68.1,62.2-100.1c45.4-63.7,96.5-126.1,151.6-181.7c26.9-27.1,50.1-57.9,77.3-84.6c10.8-10.6,22.2-19.2,35.5-26.1
				c14.8-7.7,31.5-9.2,48.4-11.5c41.2-5.7,75.5,6.5,114.2,17.1c36.5,10,73.1,18.5,109.8,28.9c40.3,11.5,80.3,22.4,120.5,34.9
				c21.5,6.7,43.6,10.8,65.2,17.2c10.4,3.1,49.7,22.4,58.4,16c-27.3-12.8-55.3-24.5-84.5-32.2c-8.6-2.3-14.1,0.2-13.8-9.6
				c0.2-5.4,6.2-12.7,8.4-17.1c5.2-10.6,11.1-21,16.2-31.6c-18.5,5.3-68.3,23.5-82.3,4.6c-14.6-19.7-2.4-58.3,6.7-77.6
				c23.9-50.3,64.5-92.3,104.1-130.3c8.6-8.2,27-18.9,31.6-29.4c1.4-3.2-1.6-7.8,1.5-12c1.9-2.5,9.3-4.1,12.3-6.8
				c10.9-9.6,19.6-29.9,27.1-42.5c7.9-13.2,15-27.6,24.9-39.4c16.2-19.4,32.9-40,59.1-44.5c12.9-2.2,26.5-1,38.9-5.5
				c14.9-5.4,29.1-13.8,44.1-19.4c-3.7-7.7-6.8-19.9-14-20.7c-7-0.8-17.2,5.2-25.2,5.1c-11.7-0.1-21.6-1.9-32.9-4.2
				c-12.5-2.5-16.6-2-21.1-15.5c-4.8-14.2-3.6-30.6-3.5-45.3c0-7.2,1.4-16.1,0.8-23.1c-0.9-10.6-3-11-11.3-17.8
				c-10.4-8.4-23.2-19.6-10.5-34.3c6.9-7.9,21-1.8,27.1-10.3c6.2-8.7,5.9-30.5,7.8-40.6c-19.2,9.4-12.1-25.8-12.1-34.2
				c0-12.3-8.3-34.5,3.6-44.7c5.5-4.8,9.6-0.8,15.9-3.6c7.2-3.1,11.7-11.3,19.4-14.5c15.2-6.3,30.8,1.3,46.5,0
				c18-1.4,35.6-4.2,53.6-1.3c8.6,1.4,12.2,4.6,19.4,8.2c7,3.5,14,4.5,21.6,6.7c6.7,2,12.6,3,17.2,8.9c3.6,4.6,2.1,12.4,5.8,16.4
				c3.6,3.9,10.7,3.4,14.9,8c4.1,4.5,6.5,11.9,8.7,17.5c2.9,7.5,3.2,10.3,8.3,16.4c4.4,5.3,10.8,9.5,14.5,15.5
				c8.7,14.1,8.9,34.6,6.1,50.4c-0.9,5.4-8.8,19.4-7.6,24c1.2,4.4,8.5,3.2,11.9,6c2.9,2.4,5.4,13.1,7.7,13.7
				c4.9,1.4,11-8.3,14.7-9.7c6.5-2.5,9.2-5.1,12.7,4.4c2.7,7.1-1,16.6-3,23.4c-2.5,8.6-5.2,18.9-11.8,25.4
				c-7.7,7.6-13.9,3.5-22.4,7.6c-12.7,6.2-9,25.4-24.7,30.9c-14.9,5.2-31.4-11.2-42.7-18.8c2.3,18.4,11.2,36.1,6.9,55
				c34.4-13.5,68.4-32.6,105.8-36.8c19.1-2.1,38.4-4.7,56.4,3.2c21.1,9.3,34,29.7,48.3,46.7c26.8,32,54.4,63,80.2,96
				c23.6,30.3,43.6,65.3,69.6,93.7c26.4,28.7,46.3,75.3,43.4,115.1c-0.3,3.6-3,11.8-2.6,15.6c0.3,3,3,6.7,3,9.1
				c-0.1,8.1-2.8,12.7-10.5,17.2c-13.3,7.7-33.1,11.7-48.2,13.6c-20,2.6-44.5,2.8-64.4,0.1c-20.6-2.8-38.7-14.4-57.7-21.3
				c-16.6-6.1-33.3-9.9-50.8-13.8c-9.6-2.2-20.3-8.1-26.3-2.3c-5.5,5.3-6.6,32.5-7.9,39.7c-13.8,78.4-30.3,154.2-44.8,232.2
				c-16.5,88.4-27.8,176.8-39.2,266c-10.4,81.1-13.8,163.1-16.2,244c-1.1,38.6-1.3,76.9-1,115.5c0.1,21.7,11,93.9-21.1,96.7
				c-18.9,1.6-34-25.4-39-40.2c-7.6-22.2-11.6-46-12.8-69.3c-2.4-47.1-5.7-94.3-7.6-141.4c-2.1-51.1,0.6-103.1,4.8-154
				c4.2-51.2,14.9-101.7,18.1-153.1c-9.8,14-12.9,16.6-29.3,22.7c-17.1,6.4-33.5,13.9-50.7,19.9c-5.9,2-15,3.3-19.8,6.6
				c-8.9,6.1-3-0.8-5.9,11.1c-3,12.7-3.6,27.9-4.4,41c-3.8,61.2-20.7,122-28.6,183c-1.9,14.7,0.8,77.1-24.5,57.5
				c-19.5-15.2-19.1-62.7-21.9-85c-3.7-29.7-1.6-60.3-1.1-90.2c0.7-34.1,1.2-69.8,9.4-103c-14.5-2.5-34.8,4.3-49.4,5.4
				c-12.7,1-25.3,1.6-37.9,2.3c-30.1,1.7-61,3-91.6,2.4c-5.6-0.1-41.9-5.2-46.6-1.1c-1.5,1.3-2,19.7-2.3,21.9
				c-1.1,8.4-2.5,16.8-3.6,25.2C1038.4,1009,1035.3,1037.7,1036.3,1064.5L1036.3,1064.5z"/>
			<path class="st3" d="M1576,1318.8c22.9,9,47.3,12.2,70.4,20.4c20.7,7.3,39.9,17.1,60.2,24.5c1.2-9.4,1.8-25.4-1.7-34.3
				c-4.9-12.6-17.9-12.9-30.7-17.4c-31.1-10.9-63.9-13.2-94.8-26C1584.8,1296.1,1582.4,1309.6,1576,1318.8 M1971.9,1285.8
				c-49.5,1.5-96.9,13-145.7,20.1c-23.8,3.5-47.5,6.6-71.3,9.8c-9.2,1.2-25.8-0.2-32.5,7.7c-5.5,6.6,0.5,29-1.9,38.6
				c10,0.7,27.8-8.6,38.7-10.2c16.9-2.4,33.6-5.8,50.7-6.8c27.1-1.7,53.7-3.2,80.7-6.2c27.5-3.1,54.1-8.8,81.8-10.8
				c13.5-1,18.9,1.5,19.7-12.7c0.3-5.6,1.1-14.9-0.5-20.3c2.5-6.7,0.3-10-6.6-9.8C1980.6,1284.6,1976.3,1284.9,1971.9,1285.8
				 M1876.1,1240.5c13.4-1.3,26.8-3.1,40.3-3.8c2.7-0.2,16.5,0.7,18.8-1.9c3.2-3.6-0.4-16.7-1-20.7c-2-13.8-4.2-21.8-19.2-21.8
				c-12.7,0-25.8,2.7-38.5,3.9c-57.4,5.6-114.5,8-171.2,18.7c3.5,14.7,7.4,29.9,3.2,44.9c27.2,1.4,57.1-3.8,83.7-9.2
				C1819.5,1245,1848.4,1242.3,1876.1,1240.5 M1785.3,1102c-20.5,0.1-42.2,9.1-62.4,7.1c-0.3,3.8,6.2,0.6,8,4.2c3.8,0,5.1,1.3,4,3.7
				c0.1,1.7-0.8,2.7-2.6,3c-0.9,0.1-1.8,0.2-2.7,0.2c-3.9,0.1-4.6,2.8-1.9,7.9c-1.1,6.4,0.6,14.5,0.8,20.9
				c36.4-4.9,71.7-10.1,108.3-12.3c17.3-1,34.6-1,51.8-2.5c19-1.6,39.7,1.8,58.3-1.8c9.9-1.9,8.9-1.8,8.2-14.7
				c-0.4-7.8-0.3-17.1-6.7-22.9c-10.7-9.6-34.9-4-47.7-3.7C1862.3,1092.3,1823.2,1095.9,1785.3,1102 M1806.3,1286.3
				c54.9-5,109.4-15.9,164.6-15.9c-3.9-3.9-12.4-4.9-17.3-7c-5.5-2.4-10.8-7.6-16.2-9.7c-10.9-4.3-21.9,1.7-33.1,4.2
				c-26.9,6.2-54.5,6.4-81.5,12.4c-27.9,6.2-56.1,12-84.5,15.2c-13.5,1.5-28,4.6-41.4,1c-1.1-0.8-2.2-1.6-3.3-2.3
				c-1.2-5-4.4-6.3-9.7-4c-6.8-1.3-15.3,0.4-22.1,0.5c-0.3,2.7,24.8,11.2,29.6,13.3c11.5,5.1,19.4,8.8,31.7,6.6
				C1750.9,1295.8,1778.2,1289.9,1806.3,1286.3 M1613.1,1125.8c2.1,8.4,11.2,4.6,18.9,5.5c10.4,1.2,20.8,4.8,30.9,7.5
				c18.3,4.9,36.6,9.8,54.9,15c-0.7-7.4,0.9-24.1-3-30.7c-4.1-6.8-23.5-9.9-32.5-11.9c-22.7-5.3-47-2.3-70.1-1.2
				C1612.6,1115.3,1612.9,1120.5,1613.1,1125.8 M1831.5,1178.1c21.6-1.8,43.2-3.2,64.8-4c24.7-0.9,6.8-4.8,6.2-19.9
				c-32.5,5.2-65.3,6.2-97.7,10.6c-26.8,3.7-58.8,13.3-86.2,8.1c-12.9-2.4-26.1-3.4-39.8-4.7c-13-1.3-25.2-7.3-38-8.8
				c-14.4-1.7-29.1,6.4-43.4,8.5c-6.1,0.9-7.5,5-10.3-2.3c-3-7.6,5.5-13.7,8.9-18.3c3.9-5.3,2.3,3.3,4.5-5c0.6-2.3-1-8.1-1.3-10.6
				c-0.8-6.3-2.7-13.1-3.1-19.4c-0.3-5.8-0.3-14.6,5.9-17.9c3.8-2.1,6.5,0.9,9.9,0.4c26-4.5,56.6-4.9,83-0.5
				c28.6,4.7,53.2-7.8,81.5-12.9c33.1-6,66.5-6.9,99.9-9.4c28.5-2.2,80.7-13.3,91.5,23.1c3.1,10.3,7.6,38.7-0.7,47.5
				c-10.9,11.5-36,7.9-50.1,10.9c2.1,6,8.4,10,6.2,17.2c19.7,0.9,23.2,19.5,26.3,36.9c3.2,18-3,25.1,14.1,34.5
				c23.9,13,49.3,26.2,48.8,57.2c-0.2,15.6-2,39.2-18,47.2c-15.7,7.9-41.2,6.6-58.5,9.5c-33.5,5.6-67.1,12.1-100.7,15.5
				c-35.9,3.6-72.3,6.5-108.2,8.1c-19.6,0.9-36.5,3.8-55.4-2.8c-18.6-6.5-36.8-11.2-55.9-16c-18.9-4.7-76.9-11.1-60-43.5
				c2.7-5.2,11.9-9.3,13.4-14.2c2.4-7.9-5.7-14.1-5.4-21.2c0.6-13.1,15.4-14.7,25.5-14.7c-17.4-10.9,5.9-23.8,5.8-33.1
				c-0.2-16.3-20.5-26.9-21.7-40.6c-2.8-33.3,102.8,1.4,119,8.6c-12.5,18.5-70.5,2.5-87.8-0.3c2.4,6.2,4.6,11.8,5.3,18.1
				c0.6,5.2-1.4,11.1,0.4,16.3c2.9,8.2,2.8,6.6,12.9,8.9c7.5,1.7,14.9,3.6,22.3,5.3c11.4,2.7,29.4,9.9,40.8,9.5
				c9.9-0.3,8,2.7,9.8-8.3c1-5.9-0.7-12.2-1.7-18c-2.1-12.2-5.1-23.7,5.5-32.4c10.1-8.3,31.5-12.3,44-15.2
				C1771.3,1179.4,1803.2,1177.8,1831.5,1178.1"/>
			<path class="st3" d="M1962.9,970.2c-30-5-60.5-6.3-90.8-4.7c1.6,7.5,3.3,15,4.9,22.5C1905.4,980.7,1934.3,976.4,1962.9,970.2
				L1962.9,970.2z M1719,1028.5c-12-0.9-3.7,4.5-0.7,12.4c3.7,9.7,2.9,21.9,3.7,32.1c35.2-13.4,76.1-21.3,113.6-25.8
				c17.7-2.1,35.7-2.8,53.6-3.7c5.3-0.3,24.3,1.9,28.2-1.6c2.9-2.6,0.9-17.2-1.9-20.4c-15-17.5-72.9-2.4-93.8-0.8
				C1787.3,1023.2,1753.6,1029.3,1719,1028.5L1719,1028.5z M1769,981.7c31.2,3,61.2,2.7,92.4,7.4c-2.4-19.8,0.5-24.9-22-25.9
				c-20-0.9-40-1.7-59.9-1.7c-44.8,0-89.5-0.8-134.4-0.8v20.1C1686.6,976.5,1727.4,984.2,1769,981.7L1769,981.7z M1619.2,1055.7
				c19.7-0.1,38.3,7.3,57.9,9.3c11.8,1.2,8.1,2.6,16.2,8.5c12.7,9.2,16.4,4.3,14.8-8.2c-5.4-42.3-59-32.8-89.9-35.2
				c2,10.1-2.6,18.6-9.5,25.6L1619.2,1055.7L1619.2,1055.7z M1831.7,1001.4c-28.3,0.5-56.6,2.1-84.7,1.5
				c-12.6-0.3-28.9-2.8-41.2-0.6c-9,1.6-16.6,6.2-26.5,7.9c14.5,7.8,21.9,2.5,37.2,0.8c15.3-1.8,30.8-1.7,46.1-2.7
				c25.2-1.5,52-7.6,76.9-5.9C1840,998.8,1837.4,998.5,1831.7,1001.4L1831.7,1001.4z M1607.4,1093c-13,0,4.9-14.8,7.2-16.2
				c-14.4,0-17.8-8.6-13.7-22.5c3.9-13,6.8-9-3-19.9c-7.4-8.2-8.6-14.2,0.2-23.3c8.9-9.3,27-6.7,34.9-14.3
				c13.4-13.1-3.9-39.1,14.7-49.1c12.6-6.8,32.9-5.9,46.8-7.4c13.4-1.4,27.3-1.6,40.9-1.8c29.5-0.4,60.1,4.5,89.5,7.3
				c10.7,1,22.7,5.3,33.3,5.3c10.8,0,22-2.4,33.1-2.1c12.9,0.3,25.3-0.6,38.7,1.5c10.2,1.6,34,2.5,41.8,10.1
				c26,25.3-35.6,36.9-46.2,39.7c10.8,11.8,10.3,27.4,8.7,42.3c5.1,0,14-2.2,16.6,3.5c3.3,7.1-8.9,9-11.8,9.8
				c-16.6,4.8-36.1,3.5-53.2,5.2c-34.2,3.5-68.1,5.5-101.9,12c-16.5,3.2-32.9,7.1-49.4,10.1c-2.8,0.5-5.7,1-8.6,1.3
				c-4.4-0.4-5.8,2.4-4.3,8.3c-4.6,2.2-21.7-3.3-26.9-4.2C1664.4,1083.7,1637.3,1085.7,1607.4,1093L1607.4,1093z"/>
			<path class="st3" d="M2217.7,1386.4c-19.5,15.3-37.6,29.8-58.7,43.1C2173.9,1429.1,2223.6,1405.3,2217.7,1386.4 M2210.1,1361.4
				c-10.6-9.1-21.2-8.2-34.4-11c-12.1-2.6-23.9-6.9-36-9.9c-9.5-2.3-18.9-5.4-28.4-7.6c-13.4-3.1-14.7,0.3-27,7.3
				c-43.6,24.8-92.4,41.9-138.3,62.1c13.5,11.9,43.8,12.4,60.7,16.2c12.3,2.8,24,6.5,35.8,10.9c11,4.1,28.6,13.4,40.2,13.7
				c9.8,0.3,17.7-9.3,26.1-14.5c11.1-6.8,22.1-13.5,33.2-20.1C2165.7,1394.5,2187.7,1377.3,2210.1,1361.4 M2013.1,1462
				c-5-4.8-20.2-4.6-26.5-6.1c-12.4-2.9-24.7-5.9-37.3-8.1c-20.4-3.5-52.7-5.1-54.9-31.6c-1.8-22,24.8-27.3,40.3-34.7
				c23.4-11.2,47.3-21.6,71.3-31.5c22.5-9.3,45.4-17.1,68.3-25.1c4.5-1.6,8.1-1.3,11.7-4.9c2.9-2.8,2-8.3,5.1-11.3
				c7.2-6.8,16.6-3.2,25.3-1.5c19.7,3.9,40.2,9.1,59,16.4c19.5,7.6,37,9.2,41.7,31.3c10-4.7,17.5-5.4,16.3,8.4
				c-0.3,4-3.3,8.4-4,12.6c-1,6.2,0.8,12.6-0.2,18.8c-3.7,22.4-34,39-52.7,47.8c-23.1,10.9-52.9,26.9-78.7,29
				C2070.4,1473.8,2040.4,1463,2013.1,1462"/>
			<path class="st3" d="M1663.2,1090.1c-8.2,0.1-16.4,0.1-24.6,0.2C1646.8,1088.7,1655,1088.7,1663.2,1090.1"/>
			<path class="st3" d="M1183.7,223.1c-2.5,4.1-4.9,8.2-7.4,12.3C1177.2,230.1,1179,225.5,1183.7,223.1"/>
			<path class="st3" d="M1663.2,1207.6c4.9,0,9.9,0.1,14.8,0.1C1673,1207.6,1668.1,1207.6,1663.2,1207.6"/>
			<path class="st3" d="M1776.3,940.1c-5.7-0.3-11.5-0.6-17.2-0.9C1764.8,939.5,1770.6,939.8,1776.3,940.1"/>
			<path class="st3" d="M1678,1090.2c-4.9,0-9.8-0.1-14.8-0.1C1668.1,1088.7,1673.1,1088.7,1678,1090.2"/>
			<path class="st3" d="M1873.7,392.7c-0.1-4.9-0.3-9.8-0.4-14.8C1873.4,382.9,1873.5,387.8,1873.7,392.7"/>
			<path class="st3" d="M1037.5,1135.1c-0.1-4.1-0.2-8.2-0.3-12.3C1037.3,1126.9,1037.4,1131,1037.5,1135.1"/>
			<path class="st3" d="M1171.4,934.7c3.3,0,6.6,0,9.8,0C1178,934.7,1174.7,934.7,1171.4,934.7"/>
			<path class="st3" d="M1611.6,51.8c-4.1,0.3-8.2,0.6-12.3,0.9C1603.4,52.3,1607.5,52.1,1611.6,51.8"/>
			<path class="st3" d="M1921.4,949.5c-4.9,0-9.8-0.1-14.8-0.1C1911.6,949.5,1916.5,949.5,1921.4,949.5"/>
			<path class="st3" d="M1507.2,1253.1c-0.1-3.3-0.2-6.6-0.4-9.8C1507,1246.5,1507.1,1249.8,1507.2,1253.1"/>
			<path class="st3" d="M1512.1,1127.7c-0.1-3.3-0.2-6.6-0.3-9.8C1511.9,1121.2,1512,1124.4,1512.1,1127.7"/>
			<path class="st3" d="M1428.2,1184.3c0.1,3.3,0.2,6.6,0.4,9.8C1428.4,1190.8,1428.3,1187.5,1428.2,1184.3"/>
			<path class="st3" d="M1191.1,932.3c2.5,0,4.9-0.1,7.4-0.1C1196,932.3,1193.5,932.3,1191.1,932.3"/>
			<path class="st3" d="M1904.2,1060.3c2.5-0.1,4.9-0.2,7.4-0.3C1909.1,1060.1,1906.6,1060.2,1904.2,1060.3"/>
			<path class="st3" d="M1433.1,1262.9c0.1,3.3,0.3,6.6,0.4,9.8C1433.4,1269.5,1433.2,1266.2,1433.1,1262.9"/>
			<path class="st3" d="M1696.7,1245.7c-0.2,3.3-0.3,6.6-0.5,9.8C1696.3,1252.3,1696.5,1249,1696.7,1245.7"/>
			<path class="st3" d="M1413.2-219.1c-3.5-0.4-6.9-0.9-10.4-1.3C1406.3-219.6,1410-222.6,1413.2-219.1"/>
			<path class="st3" d="M1263.8,1041.7c-0.1,3.3-0.2,6.6-0.3,9.8C1263.6,1048.2,1263.7,1045,1263.8,1041.7"/>
			<path class="st3" d="M1052.4,1341.6c-0.2-3.3-0.3-6.6-0.5-9.8C1052.1,1335,1052.2,1338.3,1052.4,1341.6"/>
			<path class="st3" d="M1847.6,1065.1c2.5-0.1,4.9-0.1,7.4-0.2C1852.5,1065,1850.1,1065.1,1847.6,1065.1"/>
			<path class="st3" d="M1012.8,468.9c0,3.3,0,6.6,0.1,9.8C1012.8,475.4,1012.8,472.2,1012.8,468.9"/>
			<path class="st3" d="M961.2,1206.4c0,3.3,0,6.6,0,9.8C961.2,1212.9,961.2,1209.7,961.2,1206.4"/>
			<path class="st3" d="M1574,1186.7c-0.1,3.3-0.2,6.6-0.3,9.8C1572.4,1193.2,1572.6,1189.9,1574,1186.7"/>
			<path class="st3" d="M1114.9,937.2c2.5,0,4.9,0,7.4,0C1119.8,937.2,1117.3,937.2,1114.9,937.2"/>
			<path class="st3" d="M1509.6,1172c0-3.3-0.1-6.6-0.1-9.8C1509.5,1165.4,1509.5,1168.7,1509.6,1172"/>
			<path class="st3" d="M2012.4,1463.2c2.5,0.1,4.9,0.1,7.4,0.2C2017.3,1463.3,2014.8,1463.2,2012.4,1463.2"/>
			<path class="st3" d="M1923.9,1151.1c1.6,0,3.3-0.1,4.9-0.1C1927.1,1151.1,1925.5,1151.1,1923.9,1151.1"/>
			<path class="st3" d="M1862.4,1158.5c1.6,0,3.3,0,4.9,0C1865.7,1158.4,1864,1158.5,1862.4,1158.5"/>
			<path class="st3" d="M904.8,1174.4c-0.1-2.5-0.2-4.9-0.3-7.4C904.6,1169.5,904.7,1172,904.8,1174.4"/>
			<path class="st3" d="M1911.6,1172.6c-2.1,2.2-4.9,0.9-7.4,1C1906.6,1173.2,1909.1,1172.9,1911.6,1172.6"/>
			<path class="st3" d="M1618.9,1093.9c-3.2,1.5-6.5,1.7-9.8,0.1C1612.4,1094,1615.7,1093.9,1618.9,1093.9"/>
			<path class="st3" d="M1832.9,1178.2c-3.3,0-6.6-0.1-9.8-0.1C1826.3,1178.1,1829.6,1178.1,1832.9,1178.2"/>
			<path class="st3" d="M1695.2,1092.5c-3.3-0.3-6.6-0.6-9.8-0.9C1688.6,1091.9,1691.9,1092.2,1695.2,1092.5"/>
			<path class="st3" d="M944,1081c-0.1,2.5-0.1,4.9-0.2,7.4C943.9,1085.9,944,1083.5,944,1081"/>
			<path class="st3" d="M1509.3,1213.8c0.1-2.5,0.3-4.9,0.4-7.4C1509.6,1208.9,1509.5,1211.3,1509.3,1213.8"/>
			<path class="st3" d="M1847.6,1072c-3.3,0.3-6.6,0.6-9.8,0.8C1841.1,1072.5,1844.4,1072.3,1847.6,1072"/>
			<path class="st3" d="M1037.5,1063.8c-0.1-2.5-0.1-4.9-0.2-7.4C1037.4,1058.9,1037.4,1061.4,1037.5,1063.8"/>
			<path class="st3" d="M1448.3,874.5c-0.2,2.5-0.4,4.9-0.6,7.4C1447.9,879.4,1448.1,877,1448.3,874.5"/>
			<path class="st3" d="M1896.8,948.9c-3.3,1.7-6.6,1.5-9.8,0C1890.3,948.9,1893.5,948.9,1896.8,948.9"/>
			<path class="st3" d="M1507.3,1290c-0.1-2.5-0.3-4.9-0.4-7.4C1507,1285.1,1507.1,1287.5,1507.3,1290"/>
			<path class="st3" d="M1507.2,1309.6c-0.1-2.5-0.2-4.9-0.3-7.4C1507,1304.7,1507.1,1307.2,1507.2,1309.6"/>
			<path class="st3" d="M1042.3,985.1c0-2.5,0.1-4.9,0.1-7.4C1042.3,980.2,1042.3,982.7,1042.3,985.1"/>
			<path class="st3" d="M1741.9,1377.3c1.6,0,3.3-0.1,4.9-0.1C1745.2,1377.2,1743.5,1377.3,1741.9,1377.3"/>
			<path class="st3" d="M949.1,1398.1c-0.1-2.5-0.3-4.9-0.4-7.4C948.8,1393.2,948.9,1395.7,949.1,1398.1"/>
			<path class="st3" d="M1481.2,1419c1.6,0,3.3,0.1,4.9,0.1C1484.5,1419.1,1482.9,1419,1481.2,1419"/>
			<path class="st3" d="M1837.8,947.4c-3.3-0.2-6.6-0.5-9.8-0.7C1831.2,946.9,1834.5,947.2,1837.8,947.4"/>
			<path class="st3" d="M1855,950l-7.4-1L1855,950z"/>
			<path class="st3" d="M1482.3,1208.8c0.1-7.4,0.3-14.8,0.4-22.1C1482.5,1194.1,1482.4,1201.5,1482.3,1208.8"/>
			<path class="st3" d="M1290.5,938.4c0.1,5.7,0.2,11.5,0.3,17.2C1290.7,949.9,1290.6,944.2,1290.5,938.4"/>
			<path class="st3" d="M866.5,1298.5c-4.1,0-8.2,0.1-12.3,0.2C858.3,1298.6,862.4,1298.5,866.5,1298.5"/>
			<path class="st3" d="M1203.4,809.5c-4.1-0.1-8.2-0.1-12.3-0.2C1195.2,809.3,1199.3,809.4,1203.4,809.5"/>
			<path class="st3" d="M1097.6,905.2c4.1,0,8.2,0,12.3,0C1105.8,905.2,1101.7,905.2,1097.6,905.2"/>
			<path class="st3" d="M1151.7,806.8c-3.3,0.1-6.6,0.1-9.8,0.2C1145.2,806.9,1148.5,806.9,1151.7,806.8"/>
			<path class="st3" d="M886.2,1298.6c-3.3,0-6.6,0-9.8-0.1C879.6,1298.6,882.9,1298.6,886.2,1298.6"/>
			<path class="st3" d="M1328.8,42.8c4.1-0.3,8.2-0.6,12.3-0.9C1337,42.2,1332.9,42.5,1328.8,42.8"/>
			<path class="st3" d="M1383.9,331.2c0.2-4.1,0.3-8.2,0.5-12.3C1384.2,323,1384,327.1,1383.9,331.2"/>
			<path class="st3" d="M1284.5,369.3c-2.5,0-4.9,0-7.4,0C1279.6,369.3,1282.1,369.3,1284.5,369.3"/>
			<path class="st3" d="M1075.5,799.5c-2.5,0-4.9,0.1-7.4,0.1C1070.6,799.5,1073.1,799.5,1075.5,799.5"/>
			<path class="st3" d="M1019,899.9c3.3,0.3,6.6,0.5,9.8,0.8C1025.5,900.5,1022.2,900.2,1019,899.9"/>
			<path class="st3" d="M1012.7,1024.5c0.1-3.3,0.1-6.6,0.2-9.8C1012.8,1017.9,1012.8,1021.2,1012.7,1024.5"/>
			<path class="st3" d="M1294.4,893.4c3.3-0.3,6.6-0.6,9.8-1C1300.9,892.8,1297.6,893.1,1294.4,893.4"/>
			<path class="st3" d="M1519.1,835.2c0.2-3.3,0.4-6.6,0.6-9.8C1519.5,828.6,1519.3,831.9,1519.1,835.2"/>
			<path class="st3" d="M1562.4,382c3.3-0.3,6.6-0.5,9.8-0.8C1568.9,381.5,1565.7,381.7,1562.4,382"/>
			<path class="st3" d="M1228,811.9c-2.5,0-4.9,0-7.4-0.1C1223.1,811.8,1225.5,811.8,1228,811.9"/>
			<path class="st3" d="M1013,1208.8c-0.1-2.5-0.2-4.9-0.4-7.4C1012.7,1203.9,1012.9,1206.4,1013,1208.8"/>
			<path class="st3" d="M1288.7,1083.5c5.4,13.3,2.4,3.9,2.5,7C1286.6,1091,1285.8,1088.7,1288.7,1083.5"/>
			<path class="st3" d="M1063.2,799.7c-2.5-0.1-4.9-0.2-7.4-0.3C1058.3,799.5,1060.8,799.6,1063.2,799.7"/>
			<path class="st3" d="M1565.8,550c0.2-3.3,0.3-6.6,0.5-9.8C1566.2,543.5,1566,546.7,1565.8,550"/>
			<path class="st3" d="M1012.8,1184.3c0-3.3,0-6.6,0-9.8C1012.8,1177.7,1012.8,1181,1012.8,1184.3"/>
			<path class="st3" d="M1012.5,1110.5c0.2-2.5,0.3-4.9,0.5-7.4C1012.9,1105.6,1012.7,1108.1,1012.5,1110.5"/>
			<path class="st3" d="M1523.9,788.5c0.2-2.5,0.5-4.9,0.7-7.4C1524.4,783.6,1524.2,786,1523.9,788.5"/>
			<path class="st3" d="M980.5,1117.9c0.2,2.5,0.4,4.9,0.7,7.4C980.9,1122.8,980.7,1120.3,980.5,1117.9"/>
			<path class="st3" d="M975.6,1098.2c0.2,2.5,0.5,4.9,0.7,7.4C976,1103.1,975.8,1100.7,975.6,1098.2"/>
			<path class="st3" d="M1467.4,761.4c0.2-2.5,0.4-4.9,0.6-7.4C1467.8,756.5,1467.6,759,1467.4,761.4"/>
			<path class="st3" d="M212.4,1094.9c3.3-0.3,6.6-0.5,9.8-0.8C219,1094.4,215.7,1094.7,212.4,1094.9"/>
			<path class="st3" d="M1445.7,1154.8c-0.1,2.5-0.2,4.9-0.3,7.4C1445.5,1159.7,1445.6,1157.2,1445.7,1154.8"/>
			<path class="st3" d="M1484.7,1162.1c0.2-2.5,0.4-4.9,0.5-7.4C1485,1157.2,1484.8,1159.7,1484.7,1162.1"/>
			<path class="st3" d="M1469.8,751.6c0.3-2.5,0.5-4.9,0.8-7.4C1470.3,746.7,1470,749.1,1469.8,751.6"/>
			<path class="st3" d="M232.1,1092.6c3.3-0.3,6.6-0.6,9.8-1C238.6,1091.9,235.4,1092.2,232.1,1092.6"/>
			<path class="st3" d="M1274.7,809.3c-1.6,0-3.3,0-4.9,0.1C1271.4,809.4,1273.1,809.4,1274.7,809.3"/>
			<path class="st3" d="M1012.8,1088.4c0-2.5,0-4.9,0-7.4C1012.8,1083.5,1012.8,1085.9,1012.8,1088.4"/>
			<path class="st3" d="M1490,1083.5c-0.9-2.5-1.3-5,0.4-7.4C1490.3,1078.6,1490.2,1081,1490,1083.5"/>
			<path class="st3" d="M1448.1,1036.8c-0.1,2.5-0.1,4.9-0.2,7.4C1448,1041.7,1448.1,1039.2,1448.1,1036.8"/>
			<path class="st3" d="M1450.3,1280.1c0.2,2.5,0.3,4.9,0.5,7.4C1450.6,1285,1450.4,1282.6,1450.3,1280.1"/>
			<path class="st3" d="M1631.2,386c2.5,0.4,4.9,0.7,7.4,1C1636.2,386.7,1633.7,386.4,1631.2,386"/>
			<path class="st3" d="M1621.4,386.2c3.3,0.2,6.9-1.4,9.8,0.9L1621.4,386.2z"/>
			<path class="st3" d="M1200.9,905.3c3.3,0,6.6,0,9.8,0C1207.5,905.2,1204.2,905.3,1200.9,905.3"/>
			<path class="st3" d="M1274.7,383.6l9.8,0.9C1281.2,384.2,1278,383.9,1274.7,383.6"/>
			<path class="st3" d="M1112.4,904.6c3.3,0,6.6,0,9.8,0C1118.9,906.2,1115.7,906.4,1112.4,904.6"/>
			<path class="st3" d="M1022.9,1317c-0.2-2.5-0.4-4.9-0.6-7.4C1022.5,1312.1,1022.7,1314.6,1022.9,1317"/>
			<path class="st3" d="M1381.6,387.8c0-2.5,0.1-4.9,0.1-7.4C1381.7,382.9,1381.6,385.3,1381.6,387.8"/>
			<path class="st3" d="M1173.9,905.6c3.3-0.3,6.6-0.5,9.8-0.8C1180.4,905.1,1177.1,905.4,1173.9,905.6"/>
			<path class="st3" d="M1452.9,1339.1c0.1,2.5,0.1,4.9,0.2,7.4C1453,1344,1452.9,1341.6,1452.9,1339.1"/>
			<path class="st3" d="M1461.6,325.5c3.3-0.3,6.6-0.6,9.8-0.9C1468.1,324.9,1464.8,325.2,1461.6,325.5"/>
			<path class="st3" d="M1504.3,953.2c0.2-2.5,0.5-4.9,0.7-7.4C1504.7,948.3,1504.5,950.7,1504.3,953.2"/>
			<path class="st3" d="M1617.4,296.8c0.2-2.5,0.4-4.9,0.6-7.4C1617.8,291.9,1617.6,294.3,1617.4,296.8"/>
			<path class="st3" d="M1384,85.4c0,2.5,0.1,4.9,0.1,7.4C1384.1,90.3,1384.1,87.8,1384,85.4"/>
			<path class="st3" d="M1296.8,39.5c3.3,0.3,6.6,0.5,9.8,0.8C1303.4,40,1300.1,39.8,1296.8,39.5"/>
			<path class="st3" d="M805,1436.7c3.3-0.3,6.6-0.6,9.8-1C811.6,1436.1,808.3,1436.4,805,1436.7"/>
			<path class="st3" d="M1301.7,15.3c-1.6,0-3.3,0-4.9,0C1298.5,15.3,1300.1,15.3,1301.7,15.3"/>
			<path class="st3" d="M696.8,1468.7c3.3-1.7,6.6-1.2,9.8,0C703.4,1468.7,700.1,1468.7,696.8,1468.7"/>
			<path class="st3" d="M1973,1326.1c5.7-0.3,11.5-0.6,17.2-0.9C1984.5,1325.5,1978.8,1325.8,1973,1326.1"/>
			<path class="st3" d="M1973,1283.7c-3.3,0.1-6.6,0.2-9.8,0.2C1966.5,1283.9,1969.8,1283.8,1973,1283.7"/>
			<path class="st3" d="M1923.9,1235c4.1-0.3,8.2-0.6,12.3-0.9C1932.3,1236.4,1928,1234.6,1923.9,1235"/>
			<path class="st3" d="M1877.1,1240c4.1-0.3,8.2-0.6,12.3-0.9C1885.3,1239.4,1881.2,1239.7,1877.1,1240"/>
			<path class="st3" d="M1808.3,1284.2c3.3-0.3,6.6-0.5,9.8-0.8C1814.8,1283.7,1811.6,1284,1808.3,1284.2"/>
			<path class="st3" d="M1825.5,1284.2c3.3-0.3,6.6-0.5,9.8-0.8C1832.1,1283.7,1828.8,1284,1825.5,1284.2"/>
			<path class="st3" d="M1837.8,1281.8c3.3-0.3,6.6-0.6,9.8-0.9C1844.4,1281.2,1841.1,1281.5,1837.8,1281.8"/>
			<path class="st3" d="M1855,1197.8c-2.5,0-4.9,0-7.4,0C1850.1,1197.8,1852.6,1197.8,1855,1197.8"/>
			<path class="st3" d="M1916.5,1333.2c3.3-0.3,6.6-0.6,9.8-0.8C1923.3,1334.5,1919.8,1333.3,1916.5,1333.2"/>
			<path class="st3" d="M1823,1136.8c3.3-0.3,6.6-0.6,9.8-0.9C1829.6,1136.2,1826.3,1136.5,1823,1136.8"/>
			<path class="st3" d="M1810.7,1097c-2.5,0-4.9,0-7.4,0C1805.8,1097,1808.3,1097,1810.7,1097"/>
			<path class="st3" d="M1786.2,1101.9c-1.6,0-3.3,0-4.9,0C1782.9,1101.9,1784.5,1101.9,1786.2,1101.9"/>
			<path class="st3" d="M1727.1,1108.7c-0.8,2-5.2,1.8-4.9-0.3C1723.9,1108.5,1725.5,1108.6,1727.1,1108.7"/>
			<path class="st3" d="M1612.6,1117.9c0.1,2.5,0.2,4.9,0.3,7.4C1612.8,1122.8,1612.7,1120.3,1612.6,1117.9"/>
			<path class="st3" d="M1948.4,1130.9c2.5,0,4.9-0.1,7.4-0.1C1953.4,1132.5,1950.9,1132.3,1948.4,1130.9"/>
			<path class="st3" d="M1855,1094.5c-1.6,0-3.3,0-4.9,0.1C1851.7,1094.5,1853.4,1094.5,1855,1094.5"/>
			<path class="st3" d="M1791.1,1249.9c3.3-0.3,6.6-0.6,9.8-0.9C1797.6,1249.3,1794.4,1249.6,1791.1,1249.9"/>
			<path class="st3" d="M1751.7,1254.8l9.8-0.9L1751.7,1254.8z"/>
			<path class="st3" d="M1943.5,1328.5c3.3-0.3,6.6-0.6,9.8-0.9C1950.1,1327.9,1946.8,1328.2,1943.5,1328.5"/>
			<path class="st3" d="M1825.5,1343.3c3.3-1.2,6.6-1.6,9.8,0C1832.1,1343.4,1828.8,1343.3,1825.5,1343.3"/>
			<path class="st3" d="M1820.3,1004.5l-4.6-1.6c5.7-0.1,11.5-0.1,17.2-0.2C1832.9,1002.7,1820.9,1004.5,1820.3,1004.5"/>
			<path class="st3" d="M1776.3,961.8c-4.1,0-8.2,0-12.3,0C1768.1,961.8,1772.2,961.8,1776.3,961.8"/>
			<path class="st3" d="M1621.4,1055.8c4.1-1.6,8.2-1.3,12.3,0C1629.6,1055.7,1625.5,1055.7,1621.4,1055.8"/>
			<path class="st3" d="M1869.8,1015.8c-2.5,0-4.9,0.1-7.4,0.1C1864.9,1015.9,1867.3,1015.9,1869.8,1015.8"/>
			<path class="st3" d="M1818.1,983.5c4.1,0.3,8.2,0.5,12.3,0.8C1826.3,984,1822.2,983.8,1818.1,983.5"/>
			<path class="st3" d="M1766.5,1008.9c4.1-0.3,8.2-0.6,12.3-0.9C1774.7,1008.3,1770.6,1008.6,1766.5,1008.9"/>
			<path class="st3" d="M1798.4,1004c3.3-0.3,6.6-0.6,9.8-0.8C1805,1003.4,1801.7,1003.7,1798.4,1004"/>
			<path class="st3" d="M1771.4,981c3.3,0.3,6.6,0.5,9.8,0.8C1778,981.6,1774.7,981.3,1771.4,981"/>
			<path class="st3" d="M1724.7,1028.2c-1.6,0-3.3-0.1-4.9-0.1C1721.4,1028.1,1723,1028.2,1724.7,1028.2"/>
			<path class="st3" d="M1776.3,1003.7c-1.6-0.1-3.3-0.2-4.9-0.3C1773.1,1003.5,1774.7,1003.6,1776.3,1003.7"/>
			<path class="st3" d="M1744.4,1003.6c-1.6,0-3.3-0.1-4.9-0.1C1741.1,1003.6,1742.7,1003.6,1744.4,1003.6"/>
			<path class="st3" d="M1832.9,1001.4c0,0.6,7.4-2.6,7.4,0.4L1832.9,1001.4z"/>
			<path class="st3" d="M1805.8,961.8c-1.6,0-3.3,0-4.9,0C1802.6,961.8,1804.2,961.8,1805.8,961.8"/>
			<path class="st3" d="M932.9,845.2c2.7-10.9,1.9-19.4,11.4-12.4c5.2,3.8,13.8,23.1,13.1,29.7c-0.8,8.1-4.5,11.3-12.1,8.7
				C936.6,868.2,933.1,853.3,932.9,845.2"/>
			<path class="st3" d="M1412,779.2c22,0,12.4,23.4-5.9,24c-8.4,0.2-20.6-1.4-17.8-12.7C1389.7,784.5,1411.1,776.3,1412,779.2"/>
			<path class="st3" d="M1175.8,825.3c15.9,7.7-6.5,41.5-20.9,33.1C1136.4,847.7,1169.2,830.2,1175.8,825.3"/>
			<path class="st3" d="M1137.1,857.3c5.2,5.7,28.7,24.9,15.7,32.6C1136.9,899.5,1124.8,868.1,1137.1,857.3"/>
			<path class="st3" d="M870.6,842.6c-5.2-10,1.9-36.2,17.7-31.4C904.2,816,879.4,839.9,870.6,842.6"/>
			<path class="st3" d="M1221.4,848.3c10.3-4.1,8.3,8.1,9.9,12.1c1.8,4.5,10.8,15.5,8.6,20.2c-3.4,7.1-11.5,2.6-15.8-2
				C1216.4,870.5,1216.9,857.5,1221.4,848.3"/>
			<path class="st3" d="M1064.3,859.7c-8.6,0-29.1-24.8-17.1-28.9C1062.2,825.6,1074.7,861.5,1064.3,859.7"/>
			<path class="st3" d="M1361.3,820.4c7.9,1.9,18.3,24.2,6.4,26.8C1354.6,850.1,1352.2,826.6,1361.3,820.4"/>
			<path class="st3" d="M1313.5,862.2c-6.2-11.9-7.7-37.3,7.4-16.9c3.3,4.4,6.6,2.6,5,9.9C1324.4,861.6,1318.6,862.2,1313.5,862.2"
				/>
			<path class="st3" d="M988.4,800.8c6.3,9.5,4.4,39.2-8.7,21.6C974.1,814.9,978,801.1,988.4,800.8"/>
			<path class="st3" d="M1304.7-91.4c12.2-3.2,15.1,25.6,8,28.8C1302.7-58.1,1304-86.6,1304.7-91.4"/>
			<path class="st3" d="M2076.7,1370.2c-11.3-0.7-27.2-3.8-10-11.8c10.9-5.1,27.1-5.4,38.6-3.4c7.9,1.4,19.8,8,7.7,16.5
				C2105.9,1376.6,2085.3,1370.5,2076.7,1370.2"/>
			<path class="st3" d="M2064,1390.8c-3.3-0.4-6.5-0.7-9.8-1.1C2056.8,1384.9,2064.4,1383.9,2064,1390.8"/>
			<path class="st3" d="M2078.8,1369.8c3.3,0.1,6.6,0.1,9.8,0.2C2085.3,1369.9,2082,1369.8,2078.8,1369.8"/>
		</g>
	</g>
</g>
</svg>
