<?xml version="1.0" encoding="utf-8"?>
<!-- Generator: Adobe Illustrator 23.0.2, SVG Export Plug-In . SVG Version: 6.00 Build 0)  -->
<svg version="1.1" id="Layer_1" xmlns="http://www.w3.org/2000/svg" xmlns:xlink="http://www.w3.org/1999/xlink" x="0px" y="0px"
	 viewBox="0 0 959.7 665" style="enable-background:new 0 0 959.7 665;" xml:space="preserve">
<style type="text/css">
	.st0{fill-rule:evenodd;clip-rule:evenodd;fill:#FFFDFD;}
	.st1{fill-rule:evenodd;clip-rule:evenodd;fill:#FF5678;}
	.st2{fill-rule:evenodd;clip-rule:evenodd;}
</style>
<g id="Group_10" transform="translate(74.241 56.328)">
	<path id="Path" class="st0" d="M80.4,76.9c-96.8,72.6-171.8,175.9-151.3,271c20.5,95.3,136.5,182.4,272.8,226.8
		c136.3,44.4,292.7,46.3,410.2-0.2c117.5-46.6,196.3-141.6,240.1-252.1C896.2,212,905,86.4,826.2,17S580.9-65.4,438.4-51.2
		C296-36.9,177.4,4.5,80.4,76.9z"/>
	<path id="Accent" class="st1" d="M208.6,397c3.8,4.4,9.3,7.6,13.6,11.6c4.5,4.2,9.3,7.8,13.8,12c19.7-24.1,46.7-38.8,70-58.8
		c11.1-9.5,19.2-22.3,25.2-35.5c3-6.7,5.4-13.7,7.1-20.9c0.8-3.2,1.6-6.5,2.1-9.8c0.6-4,0.8-4.3,3.5-7.4c1.2-1.3,3.4-5.2,5.7-4.8
		c1.9,0.4,5.4,6.2,6.6,7.6c5.8,6.9,11.4,14,17.5,20.6c9.3,10.1,17.8,20.1,26.5,30.8c17.7,22,36.8,42.7,56.1,63.3
		c1.4,1.5,4.8,6,6.8,6.6c2.5,0.7,6.6-2.3,9.1-4c6.1-4.1,10.9-9.3,16.1-14.4c10.1-10,17-24,21.6-37.4c2.8-8,4.6-16.3,7.4-24.2
		c1.2-3.3,3.9-7.4,2.5-10.3c-0.4-0.9-3-3.2-3.9-3.3c-1.1-0.2-2.9,1.3-3.3,1.2c-3.6-1-1.6-4.7-3.7-6.8c-1.2-1.1-7.4-1-9.2-1.6
		c-6.7-2.3-12.7-6.7-19.1-9.3c-26.6-11-53.5-21.7-76.4-39.6c-5.9-4.6-9.9-8.1-17-11.1c-7.2-3-14.4-5.7-21.7-8.4
		c-6.4-2.4-13-4.5-19.6-6.2c-7.2-1.8-17.4-4.1-24.7-1.8c-14.2,4.6-18.7,16.2-24.4,28.5c-7.8,16.5-16.7,32.5-26.8,47.7
		C250.7,340.8,227.3,367.3,208.6,397"/>
	<g id="ink">
		<path id="ink-layer" class="st2" d="M634.8,136.4c0.8-0.4,6.9,2.1,7.9,2.5c4.1,1.5,7.9,4,11.8,6.1c-2.9,3.6-5.9,7.2-8.8,10.7
			C642.7,148.6,639,142.8,634.8,136.4z M632.8,180.5c1,0.1-7.5,20.4-8.4,22.7c-3.6,8.3-7.4,16.5-11,24.8c-3.5,8-8,15.4-12.5,22.9
			c-3.9,6.4-7.8,16.3-13.6,21.1c3.7-16.3,3.2-35,13.7-48.7C611.8,209.1,622.6,195.2,632.8,180.5L632.8,180.5z M208.6,397.7
			c16.3-25.8,36.7-48.7,53.8-74.1c9.5-14.2,18.8-28.6,26.8-43.7c5.8-11,9.5-26.7,18.5-35.1c4-3.7,8.2-7.3,13.5-9
			c7.3-2.3,17.3,0,24.7,1.8c13.6,3.3,27,8.5,39.9,14c13.1,5.5,24.3,15.5,36.1,23.5c12.7,8.6,26.5,14.8,40.7,20.3
			c12.4,4.8,23.4,11.6,35.8,16.4c2.5,1,7.5,0.8,9.5,2.1c2.2,1.3,1.3,5.3,4,6.8c1.2,0.7,1.6-1.7,2.6-1.7c1.1,0,2.2,1.4,3.3,2.2
			c4.5,3.5,1.7,5.8,0,10.5c-5.8,15.5-8.9,31.3-17,45.9c-6.8,12.2-16.2,22.7-27.5,30.8c-1.7,1.2-7.3,5.9-9.3,5.6
			c-1.8-0.3-5.5-5.1-6.7-6.4c-5.7-5.9-10.8-12.3-16.5-18.2c-8.8-9.2-17.2-18.6-25.7-27.9c-9.9-10.8-18.6-23-27.5-34.5
			c-4.1-5.3-9.3-9.6-13.9-14.5c-6.1-6.6-11.7-13.7-17.5-20.6c-1.8-2.1-4.7-7.4-7.4-7.4c-1.9,0-5.3,4.5-6.3,5.9
			c-3.7,5.2-3.7,14.7-5.5,21.2c-4.5,15.9-12.6,31.5-23.7,43.8c-11.1,12.2-25.2,20.9-38.3,30.7c-14.2,10.6-27.6,21.5-38.9,35.3
			c-4.5-4.1-9.3-7.8-13.8-12C217.9,405.3,212.3,402.1,208.6,397.7L208.6,397.7z M418.6,470.8c-3.2,0-8.5,2-11.4,0.8
			c8.4-9.3,16.1-17.3,26.8-24.1c11.1-7.1,22.1-14.1,32.8-21.7c21.6-15.2,37.5-33.3,46.6-58.6c2.3-6.5,3.9-13.4,5.6-20.1
			c0.9-3.6,2.7-20.5,5.8-22c1.8-0.9,15.7,8.8,17.9,10.1c5,2.7,10.2,5.1,15.6,7.2c11.4,4.7,23.2,8.5,35.2,11.4
			c14.5,3.6,24.3-2.4,33.3-13.8c10.2-12.9,18.6-27.5,27.9-41c4.2-6,7.8-12.4,10.9-19.1c2-4.4,10.2-16.4,7.3-21.2
			c-8,6.1-10.9,18.2-16.3,26.3c-6.8,10.2-14.4,19.7-21.2,29.9c-5.7,8.5-11.6,18.9-20.1,25c-7.5,5.4-14.5,3.7-22.6,1.3
			c-9.7-2.9-19.8-4.4-29.3-8c-10.3-3.9-20.1-9.5-30.1-14.1c-4.7-2.1-10.3-3.3-14.7-6c-3.8-2.3-3.2-3.5-3.5-8.3
			c-0.3-5.7-0.7-11.3-1-17c-0.2-3.8,1.9-9,0.5-11.8c11.4,2,22.6,4.6,33.9,7c6.2,1.3,12.2,2.9,18.5,3.9c2.4,0.4,5.7,0.4,7.8,1.4
			c1.7-0.5,2.6-0.2,2.6,0.9c0.1,0.6,0.2,1.2,0.4,1.8c3.5,1.6,5.5-1.8,8.6-5.1c3.6-4.1,6.7-8.6,9.3-13.3
			c6.1-10.6,13.2-20.6,18.9-31.5c5.8-11.1,10.5-23.1,15.4-34.6c4.5-10.6,7.4-22.1,12.4-32.4c2.2-4.5,5-8.6,8.3-12.3
			c2.7-3.2,6.9-10.2,11-11.6c1.1-0.4,3.9,0.3,5.1,0.2c2.4-0.2,4.6-1.1,7.1-0.9c5.4,0.4,11.2,3.8,15.5,6.8c-2.8,2.5-9.7,5.5-4.7,9.9
			c4.8,4.3,7.5-3.4,9.4-6.8c8.7,7.1,7.4,17,8.5,27.1c0.5,5.3,1.9,10.5,2.8,15.7c0.6,3.7,0.2,7.6,0.4,11.4c0.5,9.7,1.4,19,1.4,28.5
			c-0.1,10.2-0.7,20.1-1.6,30.2c-1.4,17.1-4.5,34.2-7.2,51.1c-1.5,9.5-3.6,18.8-5.6,28.2c-2.3,10.6-6.5,20.7-8.9,31.3
			c-2.4-3.1-4.3-3.1-8.2-2.7c-3,0.3-5-0.4-4.9,3.8c0.1,2.7,2.5,4.8,5.2,5.3c3.5,0.6,4.6-1.1,6.4-3.7c0.4,5-2.9,10.1-4.2,15
			c-1.2,4.6-2.1,9.1-4.2,13.5c-2,4.3-3.8,8.5-5.9,12.8c-1,2-1.8,3.9-2.8,5.9c-0.5,1.1-1.1,2.2-1.8,3.2c-1.7,1.9-1.4,1-3.4,2.1
			c-4.4,2.4-2.7,1.8-2.8,6.8c-0.1,4.9-2.6,8.5-6.7,11.3c-8.6,5.9-17.1,7.5-26.8,10.5c-9.1,2.8-18.7,5.1-28.3,5.1
			c-11.8-0.1-23.5-1.6-35.3-1.8c-13-0.2-26.2-0.1-39.2,0.3c-5.4,0.2-10.3,0.4-15.5,1.8c-6,1.6-11.8,1-18,0.7
			c-13.2-0.5-26.9-1.5-39.9-1.6C437.9,470.9,428,470.2,418.6,470.8L418.6,470.8z M76.2,475.9c-2.3,1.2-7.6,0.7-10,0.4
			c-4.2-0.6-4.6-2.3-7.2-6c-4.5-6.1-8.2-12.8-10.9-19.9c-5.1-14.1-7.2-28.6-9.4-43.4c-2.5-16.4,2.1-33.5,3.7-49.8
			c0.4-3.7,0.9-7.5,1.5-11.2c0.4-2.2,0.4-9.8,1.9-11.7c2.8-3.7,15.9-0.7,21-0.4c14.3,0.9,28.8,1.2,43.1,1.3
			c7.6,0.1,15.3,0.4,22.9,0.5c3.5,0,6.9-0.1,10.4-0.5c1.2-0.1,2.3-0.4,3.5-0.4c4-0.2,3.7-0.8,4.8,2.8c1.8,6.2,0.4,14.2,0.9,20.7
			c0.6,8.7,1,17.4,0.8,26.1c-0.1,8,0.1,16-0.2,24.1c-0.1,3.1-0.5,6.2-1.4,9.2c-1,3.6-2.1,12-4.6,14.5c-0.3,0.3-2.4-0.4-2.9,0.3
			c-0.9,1.1-0.7,3.4-1.3,4.1c-1.9,2.3-5.9,2.5-8.7,3.5c-7.7,2.7-15.2,5.9-22.5,9.6c-6.6,3.4-17.3,6.2-21.3,12.9
			c-1.8,3.1-2.1,7.1-3.7,10.2c-1.9,3.6,1.9,1.7-2.8,3.2C81.7,476.5,78.4,475.9,76.2,475.9L76.2,475.9z M773.9,435.3
			c0.6,8.3,5.3,16.2,6.9,24.3c0.8,3.8,2,7.6,2.9,11.4c0.9,3.6,4,7.9,3.6,11.5c-11.4-4.1-23-5.1-35-6.2c-11.3-1-23.3-1.5-34.5-1.5
			c-11.4,0-23.7-1.1-35.5-1.3c-12.3-0.2-24.8-0.5-37-1.8c6.3-4.7,14.3-9.1,19-15.7c5.1-7.1,7.7-16,12.2-23.5
			c9-15.1,14.7-33.7,19.4-50.7c9.5-34.2,20.2-67.7,22.7-103.1c4.9,2.5,8.8,12.2,11.2,17c3.1,6.2,4.8,12.8,6.8,19.4
			c4.2,13.5,7.1,27.5,12.2,40.9C758.8,381.7,765.1,409.3,773.9,435.3L773.9,435.3z M153.5,236.3c-2.1,15.3-6.5,30.7-6.7,46.2
			c0,3.4,0.5,7.2-0.2,10.5c-0.8,3.6-3.2,6.7-4.6,10.1c-2.3,5.4-8,16.5-2.5,21c0.1-4.3,4.1-9.9,6.1-13.7c3-5.7,7-11,10.3-16.5
			c6.8-11.8,14.6-23,23.3-33.4c8.6-10,18.5-18.9,27.6-28.5c2.7-2.9,24.7-30.5,25.6-30.1c-6.8,26.3-18.4,49.1-34.3,71.1
			c-7.8,10.8-17.1,17.9-26.6,27c-7.9,7.6-22.7,15.7-20,28.2c-12.3-1.2-24.6-3.1-37-3.1c2-15.7,3.6-31.2,7.3-46.7
			c4.1-17.6,6.9-35.7,10.5-53.4c3.6-18.1,9.6-35.6,13.4-53.7c3.6-17.3,6.7-34.6,9.4-52c2.2,9.7,1.4,20.3,2.2,30.2
			c0.7,10,0.8,20.1,0.5,30.2C157.2,198.8,155.2,217.5,153.5,236.3L153.5,236.3z M100.1,146.3c-0.1-8.1-1.6-16-2.1-24.1
			c-0.1-2.5-2.6-19.3-0.3-20.2c1.9,4.1,2.3,9.4,4,13.7s4,8.4,5.6,12.8c3.6,9.4,4.8,20.1,5.2,30.1c0.9,22.6,1.3,45.2-0.2,67.9
			c-0.7,9.7-1.2,19.4-1,29.1c0.2,10.7,1.8,20-0.2,30.6c-1.9,10.5-3.2,21-3.9,31.6c-0.5,7.5-0.6,7-7.8,6.4c-5.2-0.4-10.4,0-15.5-0.2
			c2.4-29.2,2.8-58.4,6.7-87.4c2-14.8,2-29.9,4.5-44.6c1.2-7.3,3.3-14.5,4.4-21.9C100.8,162.2,100.2,154.3,100.1,146.3L100.1,146.3z
			 M622.2,128c-13.7,1.2-28.4,5.3-42.5,2.6c2.3-0.9,8.4-2.2,5.7-5.9c-2.8-3.8-7.5,1-10.2,0.5c-1.7-0.3-5.5-7.5-6.5-8.9
			c-2.4-3.4-2.7-3.9-7-4.8c-4.2-0.8-5.1,0.1-5.6-4.1c-0.6-4.8,1-10.1,0.9-15c-0.4-10.5-3.7-19.7-6.9-29.6
			c13.4,2.9,26.5,6.4,40.1,8.2c5.8,0.8,14.9,2.7,20.3-1.3c1.4-1,1.2-2.4,2.3-3.6c2.2-2.2,5-3.8,8.1-4.7c16.5-3.5,18.2,20.1,9.9,28.9
			c-2.1,2.2-5,3.3-7.1,5.3c-2.8,2.7-3.1,5.6-3.5,9.7c-0.9,7.7,0.4,15.5,3.6,22.6L622.2,128z M421.3,239.3c-4.9,0.9-10,0.7-14.9,1.5
			c-1.7,0.3-7,1.3-8.5,0.2c-2.3-1.6-3.2-7.3-4.3-9.9c-1.9-4.7-4.7-8.7-6.5-13.5c-7.6-19.4-14.6-38.9-23.8-57.6
			c3.5-0.9,6.2-0.9,9.7-1.4c3.7-0.5,7-2.7,10.5-3.6c3.3-0.9,6.8-0.7,10.2-1.7c1.8-0.6,3.4-1.8,5.2-2.3c2.9-0.7,6.2-1.1,7.9,0.8
			c1.7,1.9,2.4,7.2,3.3,9.7c2.5,6.6,5.5,13,7.6,19.8c1.9,6.1,3.7,12.2,5.4,18.4c1.8,6.5,5.3,11.9,7.4,18.1c1.6,4.7,3.2,9.6,3.4,14.7
			c0.2,4.9,1,5.3-4,6C427.6,239,423.7,240.4,421.3,239.3L421.3,239.3z M99.9,470.4c-1.1,0.6-2.5,0.5-3.6-0.2
			c11-4.7,21.8-11.1,33.3-14.3c10.8-3,21.3-6.6,31.7-10.3c8.5-3,16-5.3,23.7-10.6c4.7-3.1,8.7-6.9,11.9-11.5
			c3.5-5.2,4.3-12.6,8.2-17.3c5.2,5.7,11.3,10,17.4,14.5c2.1,1.6,7.2,5,7.9,7.4c0.9,3.1-1.5,6-2.8,9.1c-3.1,7.9-4.6,15.8-6.3,24.1
			c-0.7,3.3-2.1,8.3-4.8,9.6c-2.5,1.3-9.6,0.3-12.7,0.1c-16-1.2-31.8-2.5-47.9-1.4C137.6,470.8,118.1,471.7,99.9,470.4L99.9,470.4z
			 M67.9,323.5c-2.9,0-5.8-0.4-8.7-0.4c1.7-7.8-2.2-17.9-3.6-25.8c-1.6-8.7-2.7-17.8-3.8-26.6c-2.1-18.4-3.2-37-3.2-55.6
			c0-18.1-3.3-34.6-7.9-52c-5-18.7-13.1-35.5-19.8-53.5c7.4,3.9,11.4,13,15.3,19.9c4.8,8.9,8.2,18.5,10.1,28.4
			c3.8,19,8.1,38.1,12.5,57.1c4.6,19.8,7.3,39.8,12.6,59.4c2.6,9.6,6.1,21.3,6.3,31.2c0.1,4.1,1.3,12.6-0.5,16.2
			C75.5,325.4,71.7,323.9,67.9,323.5L67.9,323.5z M507.8,299c0.1,2,0.3,4,0.7,6c-4,0-9.1-4.2-12.6-6.1c-4.2-2.3-8.4-4.8-12.6-7.1
			c-8-4.4-17-7.4-25.5-11c-9.8-4.2-18.7-9.3-28.1-14.3c-3.3-1.8-26.7-11.9-26.3-14.7l15.4-0.5c4.4-0.1,11.2,0.8,15.5-0.5
			c2.6-1.1,4.6-3.1,5.8-5.7c0.9-2.1-1.1-11.9,0.1-12.6c5.8,5.9,9.4,13.7,14.5,20c5.7,7,13,11.1,21.2,14.8c9,4.1,18.2,7.3,27.4,10.8
			c3.9,1.5,3.8,2.3,4.1,6.6C507.7,289.4,507.6,294.2,507.8,299L507.8,299z M42.5,476.9c-9.7,1-19.7,0.4-29.4,1.3
			c-3.6,0.3-8.5,0.7-4.9,5.5c2.3,3,9.5,2,12.8,2.3c8.8,0.6,18.1,0.3,26.9,0.1c1.9,0,3.9-0.6,5.8-0.5c2.2,0.1,4.8,1.7,6.7,1.7
			c1.2,0,1.7-1.3,2.7-1.4c2.3-0.3,4.6-0.4,6.9-0.4c34.8,0,69.2-0.7,104-0.7c16.6,0,33.5-0.3,50.1-1.1c3.5-0.2,23.4,0.5,22.8-5.7
			c-0.3-3.2-6.8-3.7-9.1-4c-1.8-0.3-3.6-0.2-5.3-0.3c-4.7-0.3-6.7,0.9-5.7-4.2c3.7-19.4,10.4-35.4,24.7-49.3
			c11.7-11.4,25.8-21.7,39-31.2c16.1-11.5,29.1-23.7,38.7-41.4c5.6-10.3,10.2-20.9,13.1-32.3c1-4.1,1.1-8.8,2.3-12.7
			c1-3,3.2-5.2,4.5-8.3c16,26.7,37.2,49.1,56.6,73.2c9.5,11.6,19.8,22.5,31,32.5c3.3,3,6.4,6.1,9.4,9.3c2.6,2.7,6.7,5.1,8.8,8
			c2.1,2.8,1.6,2.7-1.6,5c-4.2,3-8.8,5.5-13.1,8.4c-6.8,4.7-14.2,8.6-20.3,14.2c-6.6,6.1-12.3,13.1-18.1,19.9
			c-3.8,4.6-8.9,10.4-9.8,16.2c-0.3,1.9-1.5,6.6,0.1,8c1.4,1.2,1.2,0.7,2.9,0c2.2-1,2.9-3.1,5.6-4.2c7-2.7,15.4-1.8,22.6-1.8
			s14.5,0.8,21.8,0.8c16.5-0.1,32.7,1.3,49.2,2c17.5,0.8,35.3-1.1,52.8-0.8c13,0.2,26.3-0.8,39.6-0.1c6.8,0.4,13.6-0.5,20.2-0.6
			c8.7-0.1,17.7,1.1,26.5,1.2c14.5,0.3,28.8,0.3,43.3,0.6c31.3,0.8,62.5,1.5,93.8,2c4.2,0.1,8.8-0.1,12.9,0.4c4.4,0.5,2.1,1.4,5.1,3
			c8.4,4.4,6.5-12,6.3-15.2c-1.1-17.3-5.5-34.2-10.7-50.6c-5-15.5-9-31.8-13.3-47.7c-4.6-17.4-10.7-34-16.1-51.2
			c-5.6-17.6-10.2-35.9-20.4-51.6c-2.3-3.6-4.7-7.4-8.5-9.6c-4.2-2.5-4.4-1-4.4-5.6c0-4.3-0.3-10.1,0.8-14.3
			c0.9-3.7,0.8-1.5,2.9-4.2c1.7-2.2,3.5-3.7,4.7-6.3c7.5,7.6,24.6,3.6,31.8-1.9c8.8-6.7,15.6-17.9,18-28.7c2-8.6-0.4-25-10-29.2
			c-4.6-2-21.7-3.5-22.4-10.1c-0.4-3.4,5.7-8.2,7-11.1c2.8-5.9,4.8-12.1,5.7-18.5c1.4-11.6-3.9-24.5-12.2-32.3
			c-15.4-14.3-42.4-21.7-62.1-12.6c4.2-15.9,6.7-29.7,4.6-46.3C688.3,30,679.8,22,668.2,14.9C648.4,2.8,621.5-2,598.9,1.5
			C593.7,2.3,588.8,4,584,5.4c-6.9,2-15.2,1.3-21.7,4.6c-4.7,2.3-8.3,7-12.5,10.1c-4.9,3.6-8.9,9.1-12.3,14.1
			c-7.2,10.7-4.4,30.7,1.6,41.5c1.2,2.3,3,4.3,5,5.8c2.2,1.6,5.6,2.2,6.8,4.3c2.9,5.5,0.1,17.3-0.3,23.2c-0.5,6.8,3,12,10.8,12.5
			c4.5,0.3,4.6-2.3,6.8,3.1c1.4,3.5,2.7,7.3,4.7,10.4c4.1,6.6,11.7,5.9,18.7,5.7c8-0.2,15.9-1.5,23.9-2.3c-2.1,6.8-7.9,12-11.5,18.1
			c-4.9,8.2-7.8,14.9-8.6,24.5c-0.6,7.3,0.7,13.1,5.7,18.5c2.1,2.3,3.9,2.4,3.4,5c-0.3,1.6-3.1,4.2-4,5.5c-2.6,3.3-5.5,6.4-7.8,10
			c-8.7,13.8-11.3,34.7-11.3,50.7c0,0.7-0.4,2.3-0.1,3.1c0.2,0.6,2.1,2.3,2.1,2.5c0.1,2.9-1.9,5.4-4.8,5.9
			c-3.3,0.4-9.4-2.4-12.5-3.3c-4.9-1.5-9.9-2.5-14.9-4c-7.9-2.4-15.8-4.3-23.9-6.2c-3.6-0.9-7.3-1.6-11-2.4
			c-4.2-0.9-6.1-2.7-8.3,1.6c-1.8,3.6-0.7,4.3-5.2,2.5c-4.4-1.8-8.8-4.1-13.1-6.1c-7.6-3.6-16.7-6.9-23.3-12.2
			c-11-8.9-15.1-23.1-25.6-32.6c-2.9-2.6-4.7-2.7-6.5-6.3c-2-3.9-3-8.9-4-13.1c-1.8-7.4-3.1-14.8-4.8-22.1
			c-2.1-9.2-6.5-17.5-9.8-26.2c-1.3-3.4-1.9-7.7-4-10.8c-0.5-0.8-1.6-1.3-2-1.9c-1.5-2.3-1.4-2.9-1.8-5.7c-1.8-13-9.5-6.1-18-3.2
			c-3.6,1.3-20.5,9.4-14,14.8c-7.7,2.2-20,1-19.9,12.1c0.1,5.7,3.4,11.7,5.3,17c1.6,4.7,3.2,9.4,4.8,14.1
			c3.6,10.3,7.9,20.3,11.4,30.6c1.6,4.7,2.9,9.5,5.1,13.9c2,3.9,6.7,8.2,7.5,12.5c-20.5-8.8-39.5-21.4-62.5-20.6
			c-10.1,0.4-19.2,4.6-24.8,13.4c-7,11.1-11.6,23.5-18.4,34.7c-24.8,40.7-54.3,77.7-81.5,116.7c-2.1,3-4.8,5.8-5.5,9.5
			c-0.5,2.4,0.4,4.8-0.1,7.2c-1.2,4.8-7.1,10.9-11.2,13.6c-7.7,5.3-20.3,12.8-29.9,12.2c6.1-14.5,6-30.5,5.7-46
			c-0.4-14.7-1.7-29.4-3.8-43.9c-0.3-3.2-0.9-6.4-1.7-9.6c-1.1-3.7-2.6-3.3,0.7-6.6c5-5.1,11-9.3,16-14.4
			c10.9-11.1,22.1-19.8,30.8-33.1c8.2-12.6,16.8-25.6,22.9-39.4c6.2-14.2,8.7-29.4,11.8-44.5c1.3-6.1,5.8-12.9,4.9-19.3
			c-1.2-8.1-4.9-2.2-6.4,2.2c-4.7,13.3-15.5,25.1-24.6,35.8c-9.7,11.5-21.7,21.2-31.8,32.3c-11.1,12.2-18.7,26.2-28.5,39.2
			c0-16.1,5.5-32.6,7.8-48.5c2-14.1,2.6-28.2,3.9-42.3c2.8-32.1,0.4-65.1-3.6-96.9c-1.9-15.1-0.8-29.9-0.9-45.1c0-4.8,2-16-0.6-20.2
			c-4.9-8.2-7.7,9.7-8,12.4c-1.5,15.9,1.2,31.7-0.2,47.6c-1.4,16.6-4.5,32.7-7.1,49.1c-2.8,17.7-7.4,35.1-11.8,52.5
			c-4.6,18.3-8.5,36.9-13.7,55c-1.4-5.7,0.6-12.7,0.9-18.5c0.5-8.3,1.6-16.6,1.7-24.9c0.1-13.3,0.3-26.8-0.5-40
			c-0.7-13-0.5-26.6-4.5-39.2c-2.1-6-4.5-11.8-7.4-17.4c-3.4-6.9-4.5-13.6-6.4-21c-1.6-6.3-3.9-12.4-5-18.8c-0.7-4-2.5-15.8-7.1-6.9
			c-2.7,5.2-1.5,12.9-1.6,18.4c-0.1,7.1,1,14.1,1.2,21.2c0.3,13.9,0.6,27.9,1.6,41.8c1.1,14.1,0.2,28.3-2.6,42.1
			c-3,15.8-3.9,31.6-5.5,47.5c-0.8,8.2-2.2,16.4-2.8,24.7c-0.4,4.4,1.4,16.9-1.7,20c-0.3-7.6-2.5-15.1-4.1-22.5
			c-1.9-8.7-2.7-17.9-4.2-26.8c-2.3-14.4-6.8-28.1-9.8-42.2c-6.1-29.3-11.3-66.8-37-86c-3.4-2.4-7-4.5-10.7-6.4
			c-2.1-1.2-5.1-4.2-7.5-4.7c-2.6-0.6-3.7-0.1-4.7,2.9c-1.5,4.2,1.2,6.1,3.7,9.1c8.6,10.5,12.3,23.9,17.6,36.2
			c12.2,28.1,17.6,57.8,17.6,88.2c0.1,15.7,1.1,31.5,2.8,47.1c1.8,17,4.2,35,9.4,51.4c-5.2,1.2-10.8-0.6-12.2,5.5
			c-0.3,1.5,0.3,3.2-0.1,5.2c-0.4,1.9-1.3,3.7-1.8,5.6c-1,3.8-1.7,7.6-2.2,11.5c-2.1,15.1-5.6,29.5-6,44.9
			c-0.3,14.2,2.4,28.5,5,42.5c2.6,14,10,25.9,15.8,38.6C47.5,476.8,45,476.8,42.5,476.9L42.5,476.9z"/>
		<path id="Path_167" class="st2" d="M371.9,444.7c2.8,0.8,16.1,2.3,16.1,6.4c0,2.5-13.3,2.5-15.7,2.7
			C372.2,450.8,372,447.7,371.9,444.7 M342.5,473.5c-7.7,1.5-18.1-0.6-23-7.4c-2.3-3.2-3.4-8-4.1-11.7c-0.7-3.6-2.9-12.6-1.4-15.9
			c1.8-4.1,19.5,0.2,24.6,0.7c9,0.8,18.1,0.9,27.2,0.3c0,9.3,0.5,18.3-5,26.3C356.8,471.5,349.5,472.8,342.5,473.5 M344,484.9
			c8.3-3.1,17.1-1.1,22.5-10c1.4-2.3,2.5-4.7,3.4-7.2c0.4-1.1,0.7-2.2,0.9-3.4c-0.4-2.5,0.5-3.2,2.7-2.1c4.4-0.9,9.3,2.2,13.9,1.3
			c11.3-2.2,9.2-18.3,1.7-23.9c-1.4-0.9-3-1.6-4.7-2c-3.8-1.2-5.8,0.1-9.3-0.2c-2.8-0.3-3.6-3.2-6.6-4.5c-2-0.8-4.7-0.8-6.8-0.9
			c-10.8-0.4-21.7-0.4-32.5-1.1c-5.1-0.3-10.6,0.5-15.5-0.4c-2.3-0.4-2-2-4.2-0.6c-2.3,1.4-1.3,6.6-1.2,8.7
			c0.7,12,1.4,24.9,7.8,35.4C322.2,483.5,333.7,484.5,344,484.9"/>
		<path id="Path_168" class="st2" d="M784.6,488.2l-8-0.1L784.6,488.2"/>
		<path id="Path_169" class="st2" d="M39.3,232.4c0-2.6,0-5.2,0-7.7C39.3,227.3,39.3,229.8,39.3,232.4"/>
		<path id="Path_170" class="st2" d="M722.1,243c0,2.5,0,5,0,7.5C722.1,248,722.1,245.5,722.1,243"/>
		<path id="Path_171" class="st2" d="M499,485.4c-2.1,0-4.3,0-6.4,0L499,485.4"/>
		<path id="Path_172" class="st2" d="M628.6,484.9c-2.1,0-4.3,0-6.4,0C624.4,484.9,626.5,484.9,628.6,484.9"/>
		<path id="Path_173" class="st2" d="M161.8,380.6c0.1,1.7,0.2,3.4,0.3,5.1C161.9,384,161.8,382.3,161.8,380.6"/>
		<path id="Path_174" class="st2" d="M42.5,476.9l5-0.1C45.9,476.1,44.1,476.1,42.5,476.9"/>
		<path id="Path_175" class="st2" d="M189,484.4c-1.2,0-2.4,0-3.5-0.1C186.7,484.3,187.9,484.3,189,484.4"/>
		<path id="Path_176" class="st2" d="M40,253.3c0-1.3-0.1-2.6-0.1-3.8C39.9,250.8,39.9,252,40,253.3"/>
		<path id="Path_177" class="st2" d="M150.7,91.3c0.1-1.3,0.2-2.6,0.3-4C150.9,88.6,150.8,89.9,150.7,91.3"/>
		<path id="Path_178" class="st2" d="M39.4,237.5c0-1.3,0-2.6,0-4C39.3,234.8,39.4,236.1,39.4,237.5"/>
		<path id="Path_179" class="st2" d="M411.8,482.7c-1.1,0-2.1,0-3.2,0C409.7,482.7,410.8,482.7,411.8,482.7"/>
		<path id="Path_180" class="st2" d="M140.6,484.9c-1,0-2.1,0-3.1,0.1C138.5,484.9,139.6,484.9,140.6,484.9"/>
		<path id="Path_181" class="st2" d="M29.4,391.7c0.1-1.2,0.1-2.3,0.2-3.5C29.5,389.4,29.5,390.6,29.4,391.7"/>
		<path id="Path_182" class="st2" d="M47.9,486c-0.8,0-1.7,0-2.5,0C46.2,486,47,486,47.9,486"/>
		<path id="Path_183" class="st2" d="M162,484.9l-2.5-0.1L162,484.9"/>
		<path id="Path_184" class="st2" d="M348.6,484.3l-2.7,0L348.6,484.3"/>
		<path id="Path_185" class="st2" d="M559.2,484.3c-0.9,0-1.7,0-2.6,0C557.5,484.3,558.3,484.3,559.2,484.3"/>
		<path id="Path_186" class="st2" d="M610.4,484.4l-2.6-0.1L610.4,484.4"/>
		<path id="Path_187" class="st2" d="M365.1,147.1l4-0.3C367.7,146.9,366.3,146.1,365.1,147.1"/>
		<path id="Path_188" class="st2" d="M29.3,477.4l3.9-0.4L29.3,477.4"/>
		<path id="Path_189" class="st2" d="M119.9,155.1c0.1,1.1,0.2,2.3,0.3,3.4C120,157.4,120,156.2,119.9,155.1"/>
		<path id="Path_190" class="st2" d="M39,202.6c-0.1-1.1-0.2-2.2-0.3-3.2C38.9,200.4,39,201.5,39,202.6"/>
		<path id="Path_191" class="st2" d="M120.4,172.8c0.1,1.1,0.2,2.3,0.3,3.4C120.6,175,120.5,173.9,120.4,172.8"/>
		<path id="Path_192" class="st2" d="M39.6,246.1c0-1.1,0-2.2,0-3.3C38.9,243.8,38.9,245.1,39.6,246.1"/>
		<path id="Path_193" class="st2" d="M161.7,403.8c0,1.1,0,2.2,0,3.3C162.4,406.1,162.4,404.8,161.7,403.8"/>
		<path id="Path_194" class="st2" d="M78.9,276.5c0.1-1.1,0.3-2.2,0.4-3.3C79.2,274.2,79.1,275.3,78.9,276.5"/>
		<path id="Path_195" class="st2" d="M764.6,174.2c0.9,1.1,2,0.4,3.1,0.5L764.6,174.2"/>
		<path id="Path_196" class="st2" d="M338.7,431.6h3.3H338.7"/>
		<path id="Path_197" class="st2" d="M164.8,178.9c-0.1,0.9-0.2,1.8-0.3,2.8C164.6,180.7,164.7,179.8,164.8,178.9"/>
		<path id="Path_198" class="st2" d="M702.6,87l3.3,0.1C704.9,86.3,703.6,86.3,702.6,87"/>
		<path id="Path_199" class="st2" d="M120.4,188.8c0.1,1,0.1,1.9,0.2,2.9C120.6,190.7,120.5,189.7,120.4,188.8"/>
		<path id="Path_200" class="st2" d="M150.4,69.6c-0.1-0.9-0.2-1.8-0.3-2.6C150.2,67.9,150.3,68.8,150.4,69.6"/>
		<path id="Path_201" class="st2" d="M159,66.9c0.1,1,0.2,1.9,0.3,2.9C159.2,68.8,159.1,67.8,159,66.9"/>
		<path id="Path_202" class="st2" d="M634.2,2.8l3.3,0.4L634.2,2.8"/>
		<path id="Path_203" class="st2" d="M714.6,87.8l3.4,0.3L714.6,87.8"/>
		<path id="Path_204" class="st2" d="M88.6,90.6c-0.1-0.9-0.1-1.8-0.2-2.7C88.5,88.8,88.6,89.7,88.6,90.6"/>
		<path id="Path_205" class="st2" d="M752.1,237.9l-2,0L752.1,237.9"/>
		<path id="Path_206" class="st2" d="M159,348.1c0.1,1,0.1,2,0.2,3C159.1,350.1,159,349.1,159,348.1"/>
		<path id="Path_207" class="st2" d="M91.9,155.7c0-1,0.1-1.9,0.1-2.9C91.9,153.8,91.9,154.8,91.9,155.7"/>
		<path id="Path_208" class="st2" d="M606.2,0.5h3C608.3-0.2,607.1-0.2,606.2,0.5"/>
		<path id="Path_209" class="st2" d="M335.3,224.8l3.3,0.1C337.6,224.1,336.3,224.1,335.3,224.8"/>
		<path id="Path_210" class="st2" d="M238.1,482.7c-0.7,0-1.3,0-2,0C236.8,482.7,237.5,482.7,238.1,482.7"/>
		<path id="Path_211" class="st2" d="M213.3,483.8l-2-0.1L213.3,483.8"/>
		<path id="Path_212" class="st2" d="M601.6,484.3l-2,0.1L601.6,484.3"/>
		<path id="Path_213" class="st2" d="M30,380.7c0.1-0.9,0.2-1.9,0.3-2.8L30,380.7"/>
		<path id="Path_214" class="st2" d="M119.6,221.9c-0.1,0.9-0.2,1.8-0.2,2.7C119.4,223.7,119.5,222.8,119.6,221.9"/>
		<path id="Path_215" class="st2" d="M85.1,206.5c0.1-1,0.2-1.9,0.3-2.9C85.3,204.6,85.2,205.5,85.1,206.5"/>
		<path id="Path_216" class="st2" d="M596.1,484.9c-0.7,0-1.4,0-2.1,0C594.7,484.8,595.4,484.9,596.1,484.9"/>
		<path id="Path_217" class="st2" d="M344,484.9l-2-0.1L344,484.9"/>
		<path id="Path_218" class="st2" d="M90.7,137c0-1,0.1-1.9,0.1-2.9C90.8,135,90.7,136,90.7,137"/>
		<path id="Path_219" class="st2" d="M661.7,485.5l-2,0C660.4,485.5,661,485.5,661.7,485.5"/>
		<path id="Path_220" class="st2" d="M91,485.5l-2.1,0L91,485.5"/>
		<path id="Path_221" class="st2" d="M76,485.4c-0.7,0-1.3,0.1-2,0.1L76,485.4"/>
		<path id="Path_222" class="st2" d="M70,485.4c-0.7,0-1.4,0-2,0.1C68.6,485.4,69.3,485.4,70,485.4"/>
		<path id="Path_223" class="st2" d="M38.9,210.3c0-0.9,0.1-1.9,0.1-2.8C39,208.4,38.9,209.4,38.9,210.3"/>
		<path id="Path_224" class="st2" d="M496.9,473l-6.2-0.3L496.9,473"/>
		<path id="Path_225" class="st2" d="M622.2,128c-1.8,0.2-3.6,0.3-5.4,0.5L622.2,128"/>
		<path id="Path_226" class="st2" d="M113.4,206.3c-0.1,1.7-0.1,3.4-0.2,5.2C113.3,209.7,113.3,208,113.4,206.3"/>
		<path id="Path_227" class="st2" d="M76.2,475.9l-5.6,0.3C72.5,476.3,74.4,476.9,76.2,475.9"/>
		<path id="Path_228" class="st2" d="M87.3,272.6c0-1.6,0-3.3,0-4.9C87.3,269.3,87.3,270.9,87.3,272.6"/>
		<path id="Path_229" class="st2" d="M92.2,324.1l-5,0.1L92.2,324.1"/>
		<path id="Path_230" class="st2" d="M507.7,295.2c0,1.3,0.1,2.5,0.1,3.7C507.7,297.7,507.7,296.5,507.7,295.2"/>
		<path id="Path_231" class="st2" d="M64.7,242.3c0.1,1.2,0.1,2.5,0.2,3.7C64.8,244.8,64.8,243.6,64.7,242.3"/>
		<path id="Path_232" class="st2" d="M99.9,470.4c-1.2-0.1-2.4-0.2-3.6-0.2C97.2,470.8,98.1,470.9,99.9,470.4"/>
		<path id="Path_233" class="st2" d="M107.9,307.8c-0.1,1.3-0.2,2.7-0.2,4C107.8,310.5,107.9,309.1,107.9,307.8"/>
		<path id="Path_234" class="st2" d="M556.9,96.2c0-1.3,0-2.6,0-3.9C556.9,93.6,556.9,94.9,556.9,96.2"/>
		<path id="Path_235" class="st2" d="M106.5,324.3l-4.5-0.1C103.4,325,105.1,325,106.5,324.3"/>
		<path id="Path_236" class="st2" d="M65.2,333.9c1.1,0,2.1,0,3.2,0C67.3,333.9,66.2,333.9,65.2,333.9"/>
		<path id="Path_237" class="st2" d="M451.7,470.9l-4.4,0.1C448.6,471.7,450.3,471.7,451.7,470.9"/>
		<path id="Path_238" class="st2" d="M726.9,475.2l-4.4-0.4L726.9,475.2"/>
		<path id="Path_239" class="st2" d="M112.9,217.3c-0.1,1.3-0.1,2.7-0.2,4C112.7,220,112.8,218.7,112.9,217.3"/>
		<path id="Path_240" class="st2" d="M586.1,131.1c-1.2-0.7-2.6-0.7-3.8-0.1L586.1,131.1"/>
		<path id="Path_241" class="st2" d="M153.8,232.9c-0.1,1.1-0.2,2.3-0.3,3.4C153.6,235.1,153.7,234,153.8,232.9"/>
		<path id="Path_242" class="st2" d="M48.2,206.4c0.6-1,0.6-2.3,0-3.3C48.2,204.2,48.2,205.3,48.2,206.4"/>
		<path id="Path_243" class="st2" d="M112.7,167.8c0,1.1,0,2.2,0,3.4C112.7,170.1,112.7,169,112.7,167.8"/>
		<path id="Path_244" class="st2" d="M67.9,323.5c-1.3-0.4-2.6-1-3.9,0L67.9,323.5"/>
		<path id="Path_245" class="st2" d="M483.6,472.4l-3.9-0.4L483.6,472.4"/>
		<path id="Path_246" class="st2" d="M661.1,472.5c-1.1-0.7-2.5-0.6-3.5,0L661.1,472.5"/>
		<path id="Path_247" class="st2" d="M418.6,470.8c-1.3-0.6-2.5-0.9-3.8,0L418.6,470.8"/>
		<path id="Path_248" class="st2" d="M700.8,306.8c-0.1,1.1-0.2,2.3-0.3,3.4C700.6,309.1,700.7,307.9,700.8,306.8"/>
		<path id="Path_249" class="st2" d="M406.5,240.8c-1.2-0.6-2.6-0.6-3.7,0.1C404,240.9,405.2,240.9,406.5,240.8"/>
		<path id="Path_250" class="st2" d="M112.9,274.9c-0.1,1.1-0.1,2.2-0.2,3.4C112.8,277.1,112.8,276,112.9,274.9"/>
		<path id="Path_251" class="st2" d="M701.6,174c0.1,0.9,0.2,1.8,0.3,2.7C701.8,175.8,701.7,174.9,701.6,174"/>
		<path id="Path_252" class="st2" d="M773.9,435.3c0.1,0.9,0.1,1.8,0.2,2.6C774.1,437.1,774,436.2,773.9,435.3"/>
		<path id="Path_253" class="st2" d="M86.8,280.8c0.1-0.9,0.1-1.8,0.2-2.7C86.9,279,86.9,279.9,86.8,280.8"/>
		<path id="Path_254" class="st2" d="M177.6,469.1l-3.3,0L177.6,469.1"/>
		<path id="Path_255" class="st2" d="M508.1,303l-0.6,2C508.8,305.3,509,304.6,508.1,303"/>
		<path id="Path_256" class="st2" d="M424.7,239.3l-3.4,0C422.5,239.9,423.6,240.2,424.7,239.3"/>
		<path id="Path_257" class="st2" d="M700.2,312.2c0,1-0.1,2-0.1,3C700.1,314.2,700.2,313.2,700.2,312.2"/>
		<path id="Path_258" class="st2" d="M688.3,473.5H685H688.3"/>
		<path id="Path_259" class="st2" d="M151,322.7c0,0.9-0.1,1.8-0.1,2.8C150.9,324.6,151,323.7,151,322.7"/>
		<path id="Path_260" class="st2" d="M711.4,474.7c-1-0.7-2.3-0.7-3.2,0L711.4,474.7"/>
		<path id="Path_261" class="st2" d="M683.2,161.1c-0.1,0.9-0.1,1.9-0.2,2.8C683.1,163,683.1,162,683.2,161.1"/>
		<path id="Path_262" class="st2" d="M717,474.8l-3.3,0C714.6,475.6,716,475.6,717,474.8"/>
		<path id="Path_263" class="st2" d="M100.1,146.3c0-1,0-1.9,0-2.9C100.1,144.4,100.1,145.4,100.1,146.3"/>
		<path id="Path_264" class="st2" d="M611.5,129.6l-3.2,0.4L611.5,129.6"/>
		<path id="Path_265" class="st2" d="M705.6,212.1c0,0.9,0,1.8,0,2.7C705.5,213.8,705.6,213,705.6,212.1"/>
		<path id="Path_266" class="st2" d="M92.9,211.9c0.1-0.9,0.1-1.8,0.2-2.7C93,210.1,93,211,92.9,211.9"/>
		<path id="Path_267" class="st2" d="M341.5,473.7l-3.9,0.4L341.5,473.7"/>
		<path id="Path_268" class="st2" d="M345.9,439.7c0.7,0,1.4,0,2.1,0C347.3,439.7,346.6,439.7,345.9,439.7"/>
		<path id="Path_269" class="st2" d="M345.8,473.2l-3.3,0.3L345.8,473.2"/>
		<path id="Path_270" class="st2" d="M544.3,398.9c-1.4,8.1,11.2,16,12.2,4.5c0.4-4.2-2.5-7.2-5.6-9.8
			C546.3,390,543.8,393.5,544.3,398.9"/>
		<path id="Path_271" class="st2" d="M683.2,300c-3,1.2-25.6,8.6-13.9,12.3c3.1,1,7.8,1.1,10.5-0.6
			C683.1,309.7,686.4,303.5,683.2,300"/>
		<path id="Path_272" class="st2" d="M677.6,190.2c-7.7-0.9-14.8,11.7-5.3,11.3C679.2,201.3,688.5,190.2,677.6,190.2"/>
		<path id="Path_273" class="st2" d="M650,221.2c-6.4,5.6,5.5,18.2,10.2,13.3c2.4-2.5,0.2-7.8-1.8-9.9
			C656.4,222.5,652.8,222.1,650,221.2"/>
		<path id="Path_274" class="st2" d="M630.9,366.6c3.8,0.6,20.5,6.1,17-3.8c-1.3-3.8-5-2.7-8.4-2.5
			C634,360.5,630.9,360.3,630.9,366.6"/>
		<path id="Path_275" class="st2" d="M641.9,392.1c-5.7,3,2.6,20,7.3,16.4C655.8,403.5,646.8,393.6,641.9,392.1"/>
		<path id="Path_276" class="st2" d="M617.1,378.4c-2.8-1.1-15.8,11.4-10.8,14.9c2.5,1.8,7.4-1.3,8.9-3.1
			C618.1,386.7,618.3,382.5,617.1,378.4"/>
		<path id="Path_277" class="st2" d="M692.3,276.1c-2.8,0.5-7.7,0.6-7.9,4.6c-0.2,3.5,4.2,4.6,7.3,4.9c3.2,0.3,7.4-0.6,7.5-4.6
			C699.2,276.6,692.4,276.8,692.3,276.1"/>
		<path id="Path_278" class="st2" d="M622.6,448.7c-3,1.8-17,8.4-11,13.1c2.3,1.8,9.1-1.9,10.6-3.8
			C624.1,455.8,625.8,450.6,622.6,448.7"/>
		<path id="Path_279" class="st2" d="M583.6,401c0.4-7.3-11.8-10.1-9.3,0.2c0.7,2.9,1.4,7.3,5,7.5
			C583.6,408.8,583.8,403.8,583.6,401"/>
		<path id="Path_280" class="st2" d="M621.5,274.9c-0.1,5.5,10.5,10.4,10.5,1.6C632.1,268.7,621.1,266.4,621.5,274.9"/>
		<path id="Path_281" class="st2" d="M628.4,246.2c-2.6,0.8-6.1,1.3-6.3,4.6c-0.2,3.5,3,5,5.9,4.9c2.4-0.2,5.9-1.9,6.4-4.5
			C635.1,247.3,631.3,247,628.4,246.2"/>
		<path id="Path_282" class="st2" d="M676.7,347c0-4.5-9.1-10-10.7-4.7c-0.5,1.7,3.8,9.2,5.2,9.8C675,353.5,675.5,350,676.7,347"/>
		<path id="Path_283" class="st2" d="M602.2,422.5c3.1,2.8,12.3,10.5,11.6,0.1C613.3,416,601.3,416.3,602.2,422.5"/>
		<path id="Path_284" class="st2" d="M451.9,452.2c-1-4.4-15.4,3.2-10.6,8.7c1.6,1.9,5.8,0.2,7.5-0.9
			C451.9,457.8,452,455.8,451.9,452.2"/>
		<path id="Path_285" class="st2" d="M532.3,358.8c-0.6-1.9-1.2-5.4-3-6.6c-3.4-2.2-6.3,1.1-6.3,4.7
			C522.9,363.5,530.5,365.6,532.3,358.8"/>
		<path id="Path_286" class="st2" d="M568,436.7c-3.7,0.9-12.1,10-7.3,13.7C565.4,453.9,571.6,439.4,568,436.7"/>
		<path id="Path_287" class="st2" d="M564.5,367.7c-4.8,0.4-11.4,8.2-4,9.4C566.4,378.1,573.2,369.6,564.5,367.7"/>
		<path id="Path_288" class="st2" d="M520.9,403.6c-1.2-4.1-13.2,0.3-12.5,4.8c0.4,2.4,5.2,2.9,7.8,2.3
			C520,409.8,520.9,407.3,520.9,403.6"/>
		<path id="Path_289" class="st2" d="M661.7,176.4c-0.1-5.3-10.2-7.4-10.9-2.1C650.1,179,661.8,184.1,661.7,176.4"/>
		<path id="Path_290" class="st2" d="M524.2,457.8c-0.7-2.6-1-5.8-4.3-6.2c-3.8-0.4-3.7,2.5-3.2,5.5
			C517.8,465.3,522.5,465.7,524.2,457.8"/>
		<path id="Path_291" class="st2" d="M683.9,238.9c5.3,1.2,14.9-9,9-11.1C688.7,226.3,683.9,235.9,683.9,238.9"/>
		<path id="Path_292" class="st2" d="M616.6,317.8c2.7,1.3,3.3,2,5.4,0c1.8-1.8,1.7-6.8,0.2-8.7
			C616.3,301.8,616.4,314.9,616.6,317.8"/>
		<path id="Path_293" class="st2" d="M594.7,303.2c-2.8,0.4-11.1,8.2-6.8,11.4C593.3,318.4,596.3,306.4,594.7,303.2"/>
		<path id="Path_294" class="st2" d="M534.2,305.3c2,7.8,7.1,2.6,6.8-3.4C540.6,292.4,535.3,300.7,534.2,305.3"/>
		<path id="Path_295" class="st2" d="M503.4,431c-3.4,1.4-8.1,14.6-3.2,15.3C505.7,447.1,503.8,433.8,503.4,431"/>
		<path id="Path_296" class="st2" d="M546.3,423.6c-3.9-1.3-5.4,7-3.1,8.5C548.3,435.5,547.2,425.6,546.3,423.6"/>
		<path id="Path_297" class="st2" d="M583.6,401c0,1.1,0.1,2.2,0.2,3.3C583.8,403.2,583.7,402.1,583.6,401"/>
		<path id="Path_298" class="st2" d="M451.9,452.2c0,1.1,0.1,2.3,0.1,3.4C451.9,454.4,451.9,453.3,451.9,452.2"/>
		<path id="Path_299" class="st2" d="M520.9,403.6c0,1,0,1.9,0.1,2.9C520.9,405.5,520.9,404.6,520.9,403.6"/>
		<path id="Path_300" class="st2" d="M85.4,387.1c-8.2-0.3-17.3-3.3-25.3-2.4c-2.2,0.3-7.3,0.8-3.8,4.1c1.7,1.6,9.8,0.8,12.2,1.3
			c15.6,3.4,31.4,5,47.4,5c7.2-0.1,14.4-0.7,21.6-1.1s7.9-3.3-0.2-4.2c-8.4-1-17-0.6-25.4-0.6C103.1,389.2,94.3,387.7,85.4,387.1"/>
		<path id="Path_301" class="st2" d="M67.5,367.5c0.8,2.2,1.5,7.4,4.5,7.7c4.2,0.5,4.9-6.8,4.8-9.4c-0.2-3.2-1.3-8.5-5.3-7.4
			C68.1,359.3,67.7,364.9,67.5,367.5"/>
		<path id="Path_302" class="st2" d="M93,365.8c-0.6-2.4-0.9-7.8-4.3-8c-3.8-0.2-4.9,5.4-4.8,8.1c0,2.6,1,7.4,4,8
			C92,374.7,92.3,368.6,93,365.8"/>
		<path id="Path_303" class="st2" d="M135.5,370.1c1.2,2.9,2,6.8,5.8,4.9c2.9-1.5,3.3-7.6,2.8-10.4c-0.6-2.9-1.8-6.2-5.1-4.9
			C135.2,361.1,135.6,367,135.5,370.1"/>
		<path id="Path_304" class="st2" d="M103.3,367.5c3.6,11,10.2,3.5,7.7-4.6C108.4,354.3,103.7,362.6,103.3,367.5"/>
		<path id="Path_305" class="st2" d="M121,368c1,1.9,2.1,6.1,4.8,5.7c3.3-0.5,3.4-6.9,3.1-9.3c-0.3-2.1-1.3-5.6-4-5.5
			C120.8,358.9,121,365.5,121,368"/>
		<path id="Path_306" class="st2" d="M48.8,370.1c2.7,6,6.4,0.8,5.2-3.5C52.3,360.3,49,365.9,48.8,370.1"/>
		<path id="Path_307" class="st2" d="M114.8,389.2l8.8,0C120.7,388.5,117.7,388.5,114.8,389.2"/>
		<path id="Path_308" class="st2" d="M56.3,384.7l7.7,0C61.5,384,58.8,384,56.3,384.7"/>
		<path id="Path_309" class="st2" d="M85.4,387.1l6.1,0.4L85.4,387.1"/>
		<path id="Path_310" class="st2" d="M135.5,370.1c0-1.5,0-2.9,0.1-4.4C134.9,367.1,134.9,368.7,135.5,370.1"/>
		<path id="Path_311" class="st2" d="M119.5,395.1l-3.5,0L119.5,395.1"/>
		<path id="Path_312" class="st2" d="M139.4,394L139.4,394"/>
		<path id="Path_313" class="st2" d="M129.6,389.3l5,0.4L129.6,389.3"/>
		<path id="Path_314" class="st2" d="M107,389.2l4.9,0C110.4,388.5,108.6,388.5,107,389.2"/>
		<path id="Path_315" class="st2" d="M121,368c0-1.5,0.1-3.1,0.1-4.6C121.1,365,121,366.5,121,368"/>
		<path id="Path_316" class="st2" d="M144.2,364.6c0,1.5,0,3,0,4.5C144.2,367.5,144.2,366,144.2,364.6"/>
		<path id="Path_317" class="st2" d="M76.1,386.6l4.4,0.4L76.1,386.6"/>
		<path id="Path_318" class="st2" d="M48.8,370.1c0-1.3,0.1-2.6,0.1-3.9C48.9,367.5,48.8,368.8,48.8,370.1"/>
		<path id="Path_319" class="st2" d="M110.7,395.1l-3-0.1C108.7,395.1,109.7,395.1,110.7,395.1"/>
		<path id="Path_320" class="st2" d="M67.5,367.5c0.1-0.9,0.2-1.9,0.3-2.8C67.7,365.6,67.6,366.5,67.5,367.5"/>
		<path id="Path_321" class="st2" d="M103.3,367.5c0.1-1,0.1-1.9,0.2-2.9C103.5,365.5,103.4,366.5,103.3,367.5"/>
		<path id="Path_322" class="st2" d="M625.9,85.2c4-1,4.7-6.6,4.1-10.1l-2.2-5c0.3-0.6,0.6-1.2,0.9-1.8c-0.4-3.4,0.6-4.9-3.4-3.5
			C618,67.4,616.8,85,625.9,85.2"/>
		<path id="Path_323" class="st2" d="M566.9,74.4c-3.3-0.3-9.2,3.6-6,7.3c2,2.3,8.7,1.2,11.4,1.7c3.6,0.6,7.4,1.5,5.4-3.9
			C576.2,75.2,570.7,74.3,566.9,74.4"/>
		<path id="Path_324" class="st2" d="M570.3,99.8c3.3-2.7,1.8-14.9-3.2-12.7C561.9,89.4,567.6,98.1,570.3,99.8"/>
		<path id="Path_325" class="st2" d="M630,75.1c0,1.3,0,2.6,0,3.8C630.6,77.8,630.6,76.3,630,75.1"/>
		<path id="Path_326" class="st2" d="M625.9,85.2c-0.7,0-1.4,0-2-0.1C624.5,85.2,625.2,85.2,625.9,85.2"/>
	</g>
</g>
</svg>
