<svg width="300" height="100" viewBox="0 0 959 318" fill="none" xmlns="http://www.w3.org/2000/svg">
<path d="M223.6 274.018C223.6 284.151 221.333 293.351 216.8 301.618C211.733 311.485 204 316.418 193.6 316.418C183.467 316.418 174.533 308.151 166.8 291.618C163.6 285.485 159.333 272.151 154 251.618C143.6 271.885 132.133 287.751 119.6 299.218C107.333 310.685 91.0667 316.418 70.8 316.418C50.5333 316.418 33.6 308.018 20 291.218C6.66667 274.151 0 254.685 0 232.818C0 204.551 6.8 180.151 20.4 159.618C35.8667 136.151 57.2 124.418 84.4 124.418C122.267 124.418 143.067 148.418 146.8 196.418L172.8 129.218H213.6L160.8 240.818C163.733 250.951 168.8 260.018 176 268.018C183.2 275.751 191.067 279.618 199.6 279.618C208.133 279.618 215.867 274.551 222.8 264.418C223.333 268.151 223.6 271.351 223.6 274.018ZM137.6 210.418C137.6 194.685 133.867 181.085 126.4 169.618C117.067 156.285 105.2 149.618 90.8 149.618C71.8667 149.618 56.6667 161.351 45.2 184.818C35.6 204.018 30.8 224.018 30.8 244.818C30.8 284.285 42.2667 304.018 65.2 304.018C79.6 304.018 95.2 291.485 112 266.418C129.067 241.085 137.6 222.418 137.6 210.418Z" fill="var(--primary-text)"/>
<path d="M311.771 167.979C316.293 150.157 323.209 135.793 332.519 124.887C342.095 113.981 352.469 108.528 363.641 108.528C374.813 108.528 383.99 112.252 391.172 119.7C398.62 126.882 402.344 136.724 402.344 149.226C402.344 159.334 398.62 167.846 391.172 174.762C383.724 181.678 374.414 185.136 363.242 185.136C358.188 185.136 355.661 183.673 355.661 180.747C355.661 179.949 356.725 177.954 358.853 174.762C361.247 171.57 363.109 168.245 364.439 164.787C366.035 161.329 366.833 157.472 366.833 153.216C366.833 148.428 365.503 144.704 362.843 142.044C360.449 139.118 357.39 137.655 353.666 137.655C347.282 137.655 340.632 141.512 333.716 149.226C327.066 156.674 321.347 168.91 316.559 185.934C311.771 202.692 309.377 223.972 309.377 249.774C309.377 261.744 310.308 271.453 312.17 278.901C314.032 286.083 317.357 292.999 322.145 299.649L326.933 306.033L322.145 312.018H252.32L247.931 299.649L256.31 297.654C262.96 296.058 267.349 293.265 269.477 289.275C271.871 285.019 273.068 277.837 273.068 267.729V155.61C273.068 152.418 272.403 150.157 271.073 148.827C270.009 147.497 268.014 146.832 265.088 146.832H247.532L243.941 136.458C251.655 129.542 260.433 123.823 270.275 119.301C280.383 114.779 289.161 112.518 296.609 112.518C300.333 112.518 303.392 113.715 305.786 116.109C308.18 118.503 309.377 121.562 309.377 125.286V167.979H311.771Z" fill="var(--primary-text)"/>
<path d="M499.111 217.854C494.057 216.524 491.53 213.731 491.53 209.475C491.53 207.347 491.929 205.618 492.727 204.288C493.791 202.692 495.387 201.894 497.515 201.894C498.313 201.894 500.973 202.559 505.495 203.889C510.017 204.953 515.869 205.485 523.051 205.485C532.893 205.485 541.272 203.49 548.188 199.5C555.104 195.51 560.291 190.323 563.749 183.939C567.207 177.555 568.936 171.038 568.936 164.388C568.936 156.408 566.542 149.758 561.754 144.438C557.232 138.852 550.715 136.059 542.203 136.059C529.169 136.059 517.731 140.714 507.889 150.024C498.047 159.334 490.466 172.501 485.146 189.525C480.092 206.549 477.565 226.1 477.565 248.178C477.565 260.946 478.496 271.187 480.358 278.901C482.22 286.349 485.545 293.265 490.333 299.649L495.121 306.033L490.333 312.018H420.508L416.119 299.649L424.498 297.654C431.148 296.058 435.537 293.265 437.665 289.275C440.059 285.019 441.256 277.837 441.256 267.729V43.092C441.256 39.9 440.591 37.639 439.261 36.309C438.197 34.979 436.202 34.314 433.276 34.314H415.72L412.129 23.94C419.843 17.024 428.621 11.305 438.463 6.78301C448.571 2.261 457.349 0 464.797 0C468.521 0 471.58 1.197 473.974 3.591C476.368 5.985 477.565 9.044 477.565 12.768V167.979C484.215 150.423 494.19 136.192 507.49 125.286C521.056 114.114 535.154 108.528 549.784 108.528C567.34 108.528 580.906 113.582 590.482 123.69C600.058 133.798 604.846 146.167 604.846 160.797C604.846 170.107 602.452 179.284 597.664 188.328C593.142 197.106 586.359 204.687 577.315 211.071C568.537 217.189 558.03 220.913 545.794 222.243L576.916 281.295C579.044 285.551 581.438 288.477 584.098 290.073C586.758 291.669 589.95 292.467 593.674 292.467C597.132 292.467 600.723 291.536 604.447 289.674C608.171 287.812 611.629 285.285 614.821 282.093L623.2 292.467C610.964 309.225 596.733 317.604 580.507 317.604C572.527 317.604 565.744 316.008 560.158 312.816C554.838 309.624 550.183 305.235 546.193 299.649C542.469 294.063 537.814 285.95 532.228 275.31L502.702 219.051L499.111 217.854Z" fill="var(--primary-text)"/>
<path d="M738.505 291.669C754.997 291.669 767.499 282.226 776.011 263.34C784.789 244.454 789.178 221.578 789.178 194.712C789.178 181.944 787.715 169.575 784.789 157.605C781.863 145.635 777.474 134.995 771.622 125.685L767.632 119.301L772.42 114.114L819.901 108.528C821.231 125.02 821.896 139.118 821.896 150.822C821.896 186.2 817.906 216.524 809.926 241.794C801.946 266.798 791.173 285.684 777.607 298.452C764.307 311.22 749.81 317.604 734.116 317.604C720.284 317.604 709.112 315.077 700.6 310.023C692.354 304.703 685.704 296.324 680.65 284.886C675.596 273.182 671.606 256.956 668.68 236.208L656.311 151.62C655.779 148.162 654.981 145.901 653.917 144.837C652.853 143.507 650.991 142.842 648.331 142.842H630.775L627.184 132.468C634.1 125.552 642.346 119.833 651.922 115.311C661.498 110.789 670.01 108.528 677.458 108.528C684.64 108.528 688.896 112.784 690.226 121.296L708.181 245.784C710.575 262.276 714.033 274.113 718.555 281.295C723.077 288.211 729.727 291.669 738.505 291.669Z" fill="var(--primary-text)"/>
<path d="M918.747 276.906C918.747 285.95 922.737 290.472 930.717 290.472C937.367 290.472 944.017 287.679 950.667 282.093L958.248 292.467C951.332 300.181 943.884 306.299 935.904 310.821C927.924 315.343 920.476 317.604 913.56 317.604C902.654 317.604 894.807 314.279 890.019 307.629C885.231 300.979 882.837 290.206 882.837 275.31V43.092C882.837 39.9 882.172 37.639 880.842 36.309C879.778 34.979 877.783 34.314 874.857 34.314H857.301L853.71 23.94C861.424 17.024 870.202 11.305 880.044 6.78301C889.886 2.261 898.664 0 906.378 0C910.102 0 913.161 1.197 915.555 3.591C917.949 5.985 919.146 9.044 919.146 12.768L918.747 276.906Z" fill="var(--primary-text)"/>
</svg>
