<?xml version="1.0" encoding="utf-8"?>
<!-- Generator: Adobe Illustrator 23.0.2, SVG Export Plug-In . SVG Version: 6.00 Build 0)  -->
<svg version="1.1" id="Layer_1" xmlns="http://www.w3.org/2000/svg" xmlns:xlink="http://www.w3.org/1999/xlink" x="0px" y="0px"
	 viewBox="0 0 3871 2367" style="enable-background:new 0 0 3871 2367;" xml:space="preserve">
<style type="text/css">
	.st0{display:none;fill-rule:evenodd;clip-rule:evenodd;fill:#232931;}
	.st1{fill-rule:evenodd;clip-rule:evenodd;fill:#FFDCFD;}
	.st2{fill-rule:evenodd;clip-rule:evenodd;fill:#F8004F;}
	.st3{fill-rule:evenodd;clip-rule:evenodd;}
</style>
<title>composition-24</title>
<desc>Created with Sketch.</desc>
<g id="composition-24">
	<rect class="st0" width="3871" height="2367"/>
	<circle id="Oval" class="st1" cx="3348.7" cy="2265.5" r="1685.4"/>
	<g transform="translate(1353.000000, 296.000000)">
		<path id="Accent" class="st2" d="M1527.8,977.8c-18.8,36.7-38.6,72.4-58.6,108.5c-10.6,19.1-44.8,98-53.6,101
			c-9.5,3.2-67.8-31-84.5-37.7c-29.7-11.9-57.9-23.2-89-30.6c-34.8-8.2-69.8-14.3-105.8-11.2c-15.8,1.3-41.9,5.2-26.2-17
			c11.4-16.2,22.5-31.1,38.1-42.7c11.3-8.5,27.9-24.1,41.1-29.8c13.9-6,34.4-4.6,49.3-4.3c16.1,0.4,93.1,24.4,97.3-0.6
			c7.8,7.1,12.4,4.4,21.4,7.9c10.1,3.9,16.5,11.6,26.5,16.2c6.5,3,18.6,14.8,25.8,14.9c9.6,0.1,12.2-7.9,19.2-13.8
			c15.5-13.2,36.2-21.9,53-33.4C1496.6,994.9,1510.7,984.4,1527.8,977.8z M1358.9,687.8c-1.3,16.8,3.2,32.3,3.1,49.6
			c0,7.5-0.4,15,1.9,22.3c2.1,6.5,0.6,18.2,1.7,25c-19.2-5.8-54.9-14.5-74.5-6.6c-18.7,7.5-21.1,42.4-21.8,59.3
			c-0.5,11.5,4.7,29.3,0.8,40.4c-1.8,5.2-1.8,6.9-1.7,7.3l0,0c-0.3-0.2-1.8-0.2-7.2,3.6c-5.3,3.8-11.5,5.9-16.7,10.1
			c-9.5,7.6-11.1,16.3-15.7,27.3c-4.5,10.7-16.6,20.3-30.1,19.9c10.8-19.6,25.9-38,17.2-61c-6.5-17.4,4.9-37.8,13.9-54.3
			c3-5.5,35.9-47.4,21.3-50.4c-9.5-1.9-31.2,42.6-35.4,50.4c-11.6-7.8-16.8-17.5-7.9-29.3c6.9-9.1,15.3-16.8,22-26.2
			c10.8-15.3,21.4-33.5,34.3-47C1286.8,704.1,1326.3,687.9,1358.9,687.8z M1268.4,885L1268.4,885
			C1268.6,885,1268.5,885.1,1268.4,885L1268.4,885z M1663,661.7c14.5,13.9,32.8,25.3,46.7,39.9c12.2,12.7,28.7,34.1,34.5,51.1
			c-29.8,5.7-79.4,23.3-91.2,54.6c-46.4-42.6-64.3,35.2-73.5,67.8c-27.1-11.7-21.7-50.8-21.4-73.7c0.3-18.1,11.3-39.5-15-41
			c-19.6-1.1-38.7,6.9-56.5,14.4c-22.1,9.3-45.3,23.3-63.2,39.4l-18.6-14.5c30.5-17.1,46.4-49.9,64.3-79.9
			c5.7-9.6,13.3-20.2,17.5-30.5c2.9-7.1,4.9-21.6,8.1-27.9c5-10,53.4-12.7,66.2-15.3C1594.8,639.3,1635.3,635.2,1663,661.7z"/>
		<g id="Ink" transform="translate(167.199168, 81.229936)">
			<path id="ink-layer" class="st3" d="M1488.1,802.6c12.5-0.6,25,2.2,37.5,0.9c-10.9-9.5-21.7-18.9-32.6-28.4
				C1488.2,783.6,1487.8,793.2,1488.1,802.6L1488.1,802.6z M1191.2,608.1c-32.4,0.1-71.9,16.4-94.4,40.2
				c-11.9,12.6-21.8,29.5-31.8,43.6c-6.8,9.5-13.4,18.6-21.6,27c-12,12.2-8.5,14.9,4.9,24.1c4.3-8,26.9-50.7,36.4-48.8
				c14.4,2.9-13.4,48.1-16.5,53.7c-9,16.6-23.5,39.9-17,57.4c8.6,23.2-3.9,36.4-14.7,56.1c11.4,0.3,12.5-4.1,16.4-13.8
				c5-12.5,10.5-22.9,21.2-31.6c8.3-6.7,21.8-9.5,25.7-17.6c4.8-10,1.8-29.7,2.2-40.8c0.6-16.9,0.6-56.7,19.2-64.2
				c19.5-7.9,54.5-0.5,73.5,5.4c-2.4-14.9-9.9-24.6-9.8-41.1C1185.2,640.4,1189.9,625,1191.2,608.1L1191.2,608.1z M942.4,884
				c16.9-5.4,33-11,50.4-14.7c18.2-3.8,19.5-8.2,29.7-23.8c7.8-11.9,17.2-21.1,15-35.6c-1.4-9.3-6.5-13.8-5-24.3
				c0.9-6.5,4-13.6,6.2-19.7c2.7-7.6,8.2-16.2-4.7-16.5c-7.1-0.2-7.5,3.6-12.3,9.9c-8.9,11.7-19.2,22.3-28.7,33.5
				c-16.5,19.5-34,40.2-52.4,58.2c-20.3,19.8-37.8,43.7-50.8,69.1c-2.4,4.7-17.1,32.3-10.9,37.7c5.8,5,37.8-6.6,43.7-8
				c25.2-5.9,53.9-7.9,77.7-18.6c12.1-5.4,38.9-11.9,48.5-20.3c8.9-7.8,8.5-26.7,3.3-37.6C1037.8,882.2,933.1,916.1,942.4,884
				L942.4,884z M1257.6,729.1c16.9-15.3,36.9-27.5,57.8-36.6c18.7-8.1,41.9-17.2,62.6-15.8c25.9,1.8,15.1,22.6,15,40.3
				c-0.1,23.5-10.4,57.5,17.7,69.7c9.2-32.6,28.5-109.7,74.9-67c11.8-31.3,54.1-42,83.9-47.7c-5.4-15.8-21.8-30.2-33.1-42.1
				c-14.2-14.9-25.4-32.3-39.6-46.9c-28.1-28.8-79-19.6-114.6-12.4c-11.9,2.4-46.3,5.4-52.1,14.1c-3.6,5.5-1.6,18.8-4.3,25.5
				c-3.7,9.2-10,17.8-15,26.3c-18.4,31.1-37.2,62.3-68.7,80.1L1257.6,729.1z M1360.7,896.4c-16.7,6.4-29,17.1-43.8,26.1
				c-17.9,10.9-39,21.2-55.1,34.7c-5.9,4.9-9.2,13.5-17.3,14c-7.1,0.5-17.9-7.7-24.1-10.6c-10.5-4.8-20.6-12.1-31.2-16.5
				c-8.7-3.5-12.5-2.8-20.1-9.7c-4.2,25.1-81,1.6-97.1,1.3c-14.9-0.4-35.3,1.4-49.2,7.4c-13.2,5.7-23.5,18.3-34.8,26.8
				c-15.5,11.7-30.3,23.6-41.7,39.8c-15.7,22.3,8,16,23.7,14.6c36-3.1,70.9,5.5,105.6,13.7c31,7.4,61.6,16.2,91.2,28.2
				c16.7,6.7,34.2,12.9,49.9,21.7c8.3,4.6,21.7,15.9,31.2,12.7c8.7-3,17.4-27.9,22.6-37.9c10.2-19.3,21-38.3,31.6-57.5
				C1322.2,969.1,1342,933.3,1360.7,896.4L1360.7,896.4z M1155.4,1375.1c10.3-5.9,27.1-4.3,38.4-6.8c12.9-2.8,25.8-7.4,38-12.1
				c12.4-4.8,24.1-9.7,35.5-15.7c5.2-2.8,12.1-5.5,16.9-9.3c3.9-3.1,5.3-8.8,8.8-11.6c9.3-7.3,12-2.7,13.3-16.8
				c1.4-15.3-7.2-23.9-17.9-35.3c-9.5-10.2-21.9-19.1-33.9-26.3c-5.3-3.2-11-6.8-16.4-9.8c-8.2-4.6-19.2-12.2-23.5-2.4
				c9,2.3,10.9,13.7,2.8,17.8c-4.4,2.3-11.2-1.1-16.2,1.3c-7.7,3.7-15.2,14-21.8,19.6c-21.7,18.3-42.5,25.1-70.9,26.6
				c-59.4,3.1-121.5-3.7-179.7-12.5c-15-2.3-29.9,0.2-45.1-0.4c-14.7-0.5-30.1-3.7-44.5-6.2c-27.9-4.8-57.2-8.7-84.7-15.8
				c-33.2-8.5-66.5-19.5-97.6-33.8c-29.9-13.7-63.6-36.3-97.2-38c14.3,14,35.8,19.4,53,28.6c14.1,7.5,36.1,12.4,45,24.8
				c5.8,8.1,8.7,22.9,13.1,32.4c4.8,10.5,9.3,21.2,13.8,31.8c4.5,10.7,9.2,21.4,12.8,32.5c2.3,6.8,3.2,21,8.6,25.7
				c8.5,7.5,37,10.8,48.5,13.3c21.4,4.6,45.9,4,67.8,4.3c9,0.1,18.1,1.4,26.8,1.5c12.1,0.2,11-1.9,10.8-12.4
				c-0.1-6.3,0-17.8,8.5-12.6c5.8,3.5,1.8,19.3,0.7,24.8c48.3,4.8,98.6,7.2,146.7,5.6C1063.1,1386.7,1108.7,1380.6,1155.4,1375.1
				L1155.4,1375.1z M1373.3,1264.3c8.5-61.1,18.9-123.3,30.5-183.6c11.7-61,25.9-121.4,41.7-182.2c-10.5-2.5-21-5-31.5-7.5
				c-0.4,12.8-4.7,23.9-6.6,36.7c-2.5,17.6-7.4,34.7-10.3,52.2c-5.5,33.3-15.8,65.9-24.8,98.4c-9.2,33.1-12.3,67.3-20.8,100.5
				c-7,27.4-10.5,57.6-14.4,85.8c-9.5,68.4-22.9,136.9-33.2,205.4c-9.6,64.2-10.6,129.6-10,194.4c0.3,39.5,6.4,79,6.1,118.6
				c-0.1,9.8,0.7,19.5,1.3,29.3c0.4,6.9-3.3,26-0.2,31.8c2,3.7,10.5,7,13.6,12.1c4.8,8,5.8,17.6,13.5,23.7
				c6.2-25.1,3.3-58.3,1.9-83.9c-1.3-24.7,1.2-50.2,1.7-75.3c1-49.2,3.6-97.7,6.1-146.9c2.8-54,10.6-109.3,18.3-162.8
				C1363.2,1362.3,1367.8,1312.8,1373.3,1264.3L1373.3,1264.3z M1145.4,497.6c-3.4-0.3-6.8-0.6-10.1-0.9c0.5,7.1-1,18.6,4,22.3
				c3.8,2.8,11.5,1.9,16.1,2.8c15.1,3,32.6,5.4,47.6,0c5.8-2.1,2.1-5.4,10.1-4c9.7,1.6,6.1,3.2,8.9,9.2c2.1,4.7,3.3,12.6,5.7,18.2
				c3.3,7.5,9.9,20.8,7.1,29.5c-2.7,8.4-13,10.9-17.4,20.4c-3.2,7.1-2.5,17.3-4.2,25.1c-2.2,10.4-5.1,20.7-6.3,31.3
				c-1.6,13.3-1,28.9,15.5,31c15.3,1.9,26.3-3,36.5-14.1c19.6-21.3,42-51.3,53.5-78.1c1.3-3.1,4.7-8.3,4.2-11.7
				c-0.9-6.6-1.3,0.1-3.4-4.5c-2-4.4-5.1-8.4-7-13.3c-6.7-17.5-11.4-35.9-14-54.5c-1.2-8.4-1.6-16.7-1.4-25.2
				c0.1-2.9,1.8-11.6,0.8-13.6c-1.1-2-6.6-2.9-8.3-4.9c-3.2-3.7-8.7-14.1-12.2-16.9c-4.3-3.4-14.1-0.7-15.8-7.5
				c-2.8-10.8,64-28.5,32.8-42.9c-23.3-10.8-59.1,43.8-67.2,0.8c-1.4-7.4,1.3-17.5-2-24.3c-3.6-7.5-13.4-10.3-20.3-14
				c-8.7-4.7-17.6-9.5-26.1-14.6c-5.8-3.5-14.2-12.8-20.4-13.7c2.4,12.6-2.2,25.2-2.3,37.8c13.4-3.6,22.7-3.7,36,2.8
				c6.3,3.1,30.1,20.5,18.1,29c-9.8-5.8-20.2-10.8-31.1-14.2c-4.3-1.3-9.7-3.2-14.2-3.3c-10.6-0.2-9.1,0.9-13.1,8.9
				c-3.8,7.7-3,27.8-11.4,32.7c-8.7,5.1-2-2-9.4-0.4c-4.2,0.9-8.9,4.1-12.8,5.9c5.3,5.8,16.1,11.1,19.6,17.5
				c5.2,9.4,3.4,28.7,4.2,39c6.7-2.4,13.8-2.5,20.7-4.3c6.4-1.7,15.3-9,16,1.7C1172.8,494.4,1153.9,497.6,1145.4,497.6L1145.4,497.6
				z M1233.2,812.6c0.5-10.3,1.1-20.7,2.3-31c0.8-6.9,7.3-27,3.6-33c-4-6.6-17.6-7-24.1-8.6c-12.5-3-24.4-5.5-37.1-7.5
				c-11.7-1.8-22.7-2.2-34.4-2.8c-12.8-0.6-16-4-18.8,10.1c-2.2,11.1-5.2,22.6-5.6,34c-0.4,10.7,2.8,19.9-7.7,27.1
				c23.2,0,53.4-20.6,74.6-2.2c30.3,26.4-22.4,34-36.3,39.8c11.6,5.6,28.7,10,34.1,22.8c6.1,14.4-2.8,20.5-16.3,21.6
				c1.3,5.5,6.2,9.1,7.6,15.8c2.1,9.8-4.8,6.5,4,14.1c11.6,9.9,35.5,16.6,49.7,22.9c3.3,1.5,6.7,2.9,10.1,4.2
				c5.3,4.7,9.3,3.8,11.8-2.7c7.3-4.6,13.8-14.9,20.3-20.9c14.4-13.3,30.3-25,47.4-34.7c-7.1-2.9-15.6,3.7-22.4,0.5
				c-5.5-2.6-3.4-7.4-6.7-10.9c1.3-4.6-0.1-6.3-4.2-5.1c-2.1,0.2-4-0.1-5.7-1c-3.4-4.3-5-5.7-5.2-12.2c-0.2-7,3.8-9.5,5.4-15
				c5-3.4,4.9-6.8-0.3-10.1c-2.2-3.5-3.4-7.4-3.6-11.5c-1-15.4,13.1-21.6,23.8-29.8c-19.2-2.1-18.5-24.6-5.2-34.5
				c13.8-10.2,43-6,59.6-3.7c3.5,0.5,12.8,4.9,16.3,2.1c2.1-1.7,0.6-16.5,0.7-19.1c0.2-5.9,1.7-13,0.7-18.9c-2-12.3,2.2-6.1-6.7-6.5
				c-21.1-0.8-48,17.6-66.6,26.3c-20.8,9.7-34.2,11.2-34.4,35.3c-0.2,22.8-6.6,45.6-9.4,68c-1.2,9.8-2.1,60.8-20.1,42
				c-7-7.3-2.5-18.5-2-27.5C1233.2,837.6,1232.8,825,1233.2,812.6L1233.2,812.6z M71.6,1576.8c10.3,1.8,27-4.1,38.2-4.7
				c19.6-1.1,39.8-2.9,59-7c15-3.2,32.2-6,40.3-20.5c7.2-13,9.8-29.3,13.7-43.5c2.1-7.5,7.4-18.5,7.4-26.2c0-10.1-1.4-8.1-11.9-13.7
				c-13.4-7-26.4-16.8-40.8-20.8c-4.4-0.9-8.7-1.7-13.1-2.5c-5.7-3.3-8.8-1.7-9.6,4.8c-5.5,5.8-8.8,16.5-13.4,23.3
				c-10.6,15.5-23.1,26.1-39.5,35c-29.5,16.1-56.9,28.5-88.5,39c-17.4,5.8-33.4,13.9-50.4,20.3c-13.6,5.1-32.4,6.7-42.9,18.1
				c-11.8,12.9,6.3,17.5,16.4,26.2c8.3,7.1,8.4,8.8,19.7,5.3c8.4-2.6,15.9-7.5,24-10.8C8,1587.8,41.5,1580.2,71.6,1576.8
				L71.6,1576.8z M704.6,1780.8c-10.3-2.2-20.6-4.5-31-6.7c10.2,18.9,31.5,46.7,16.2,68.6c-5.7,8.2-15.3,10.5-23.8,14.7
				c-10.3,5-19.8,11.5-29.5,17.5c-40.2,24.7-81,49.8-123.3,71c13.2,4.3,33.6,7.2,47.3,3.5c15.9-4.3,30.6-14.3,46.9-18.7
				c29.3-7.8,60.1-14.5,89.8-18.5c24.3-3.3,85.1,4.1,82.2-32.4c-2.8-34.7-23.5-67.8-29.7-102.1
				C734.5,1781.2,720.1,1780.6,704.6,1780.8L704.6,1780.8z M1319.9,1225.7c11.8-57.7,18.8-116.5,32.7-173.8
				c6.9-28.6,11.8-57.6,18.6-86.2c3.1-13.3,5.5-26.7,8.6-40c3.1-13.4,9.8-25.9,11.3-39.8c-11.2,2.8-13.8,28.5-17.3,38.2
				c-6.3,17.8-13.1,34.8-21.1,51.9c-12.8,27-26.3,53.1-40.7,79.3c-15.2,27.7-31.2,54.2-50.2,79.5c-6.2,8.3-14.7,14.8-18.7,23.9
				c-6.3,14.3-9,31.4-15,46.3c4.3,2.2,15.2,2.7,20.4,3.7c9.7,1.9,16.5,3.6,25.8,8.2c16.4,8.1,30.2,17.7,41.2,32.4
				C1318.2,1241.8,1318.9,1233.6,1319.9,1225.7L1319.9,1225.7z M862.6,1666.2c-0.2-55.6-1-111.7-0.1-166.9
				c0.3-15.3,1.5-31.9,3.7-47.1c1.4-9.6,9.6-29.9,4.2-34.5c-4.6-3.9-29-1.3-34.9-1.5c-11.6-0.3-23.2-0.8-34.8-1.7
				c0,20.6,8.1,44,11.8,64.4c3.5,19,6.4,38.1,9.2,57.2c6.2,41.4,8,83.3,14.8,124.8c6.1,37.6,14.2,75.1,18.7,112.7
				c2.4,20.6,7.4,40.1,11.2,60.7c2,10.8,9.3,55.1,18.6,59.4c2-15.9-6-35.1-7.4-51.2c-1.5-16.6-2.6-33.3-5.3-50
				c-3.2-19.6-4.8-39.6-6-59.5c-0.7-12.1-1-24.2-2-36.3C863.5,1688.1,860.2,1674.8,862.6,1666.2L862.6,1666.2z M1152.4,922.6
				c0.4-6.1-15.3-5.8-18.2-12.8c-5.9-14.1,7.6-11.6,15.9-13.1c-3-7.9-58.4-5-45.5-26.2c9-14.7,42.9,7.8,52-6.2
				c6-9.2-10.3-10.5-16.7-11.4c-9.7-1.4-32.5,3.1-31.8-9.5c0.9-15.8,45.3-26.7,57.8-31.3c-1.4-10.8-54.8,4.6-62.5,8.9
				c-17.5,9.9-30.9,27.7-33.5,47.5c-3,23,8.7,41.1,31.7,46.8c9.6,2.4,16.7,2.6,25.6,6.2c5.8,2.3,24.7,8.1,28.7,2.3
				C1154.8,923.5,1153.6,923.1,1152.4,922.6L1152.4,922.6z M1466,779.5c0.9-9.8,9.2-28.3-0.4-34.8c-13.3-9-18.9,5.9-21.9,14.8
				c-3.7,10.9-19.2,37.7-5.7,44.5c3.2,1.6,18.1-0.3,20.8-1.3c7.4,1.9,9.7-0.8,7.1-8.3V779.5z M1140.2,1573.3
				c-0.8-26.9,11.2-59.2,18-85.5c7.7-29.8,11.8-60.2,20-89.7c-9.1,1.1-18.3,2-27.3,3.8c-12.3,2.5-12.5,2.1-11.6,14.1
				c1.3,18.1-0.4,35.8-1.3,53.9c-1.9,36.2,2.7,73-0.3,109C1140.3,1579.7,1141.2,1577.8,1140.2,1573.3L1140.2,1573.3z M1480.3,869.2
				c29.5,4.5,57.8,13.9,84.6,26.4c14.8,6.9,31.1,14.4,47.6,17.1c18.4,3.1,37.9,1.6,56.6,2.8c6.6,0.4,24,3.6,30.5-0.3
				c6.4-3.9,5.9-10.4,6.2-18.2c0.8-20-8.3-39.6-16.4-57.6c-7-15.4-12.3-27.2-23.1-40.4c-13.9-17-26.1-35.4-39.1-53.2
				c-9.8-13.4-19.8-26.6-29.8-40c-7.2-9.6-6.8-12.9-17.6-11.8c-10.6,1.1-21.4,7.3-31.4,10.7c-14.9,5-32.9,7.7-46.5,15.6
				c-8.8,5.1-9.2,6.1-9.1,15c0.1,8.3,2.8,18.5,7.8,25c10.3,13.5,27.5,20.7,42.2,27.4c8.5,3.9,15.9,9.4,23.4,14.8
				c8.2,5.8,24.6,9.2,30.9,15.8c18.2,19.2-14.9,15.4-24.2,14.9c-20-1.3-39.8-1.1-59.9-1.1c-21.9,0-43.7-1-65.4-0.3
				c-12.7,0.4-27.2-6-35.4-16.7c-4-5.2-5.5-10.1-10.7-15.5c-6.8-7-12.7-14.5-21-19.9c-13.6-8.9-38.2-14-54.3-10.6
				c5.8,0.8,33,10.1,21,21.7c-1.5,1.4-18.9,2.3-22.7,4.1c-6.9,3.1-15.5,7.7-19.5,14.4c11.7-2,55.2-4.2,33,18.2
				c-5.4,5.5-21.1,11-7.8,16.9c3.1,1.3,9.2-0.6,13.1,0.7c5.8,1.8,10.6,6.6,16.1,9.2c15.5,7.3,36.9,11.8,53.1,10.2
				C1434.7,862.2,1458,866.2,1480.3,869.2L1480.3,869.2z M886.2,1546.3c0.8,32.3-0.4,64.8,0.3,97.2c0.7,34.6,5.2,68.6,7.3,102.9
				c1.9,30.7,6.1,60.9,9.4,91.4c1.9,17.6,4.2,34.5,7.2,51.9c2.8,16.4,3.3,30.8-16.3,35.2c-37.4,8.4-43.2-45.4-50.4-68
				c-10.8-33.8-17.7-69.3-23.1-104.4c-10-65.3-23.2-129.7-28.3-195.5c-3.2-40.6-7.8-80.7-10.4-121.2c-0.5-7.9,1.5-20.2-5.5-23.7
				c-4.2-2.1-15.7-2.1-21-3.7c-14.8-4.3-28.4-10.6-42.8-17.2c10.2,53.4,13.6,106.5,21.3,160.4c4.1,28.6,11.8,58.2,18.6,86.3
				c7,29.1,8.5,60.5,16.6,89.1c3.6,12.6,6.6,17.7,1.4,30.6c-6.3,15.8-2.1,19.6,5.8,35.2c14.6,28.6,25.7,62.4,23.2,94.6
				c-2,26.3-21.9,40.1-46.6,47.2c-30.9,8.9-63.2,7.8-94.2,17.9c-27,8.8-54.5,15.3-80.8,26.9c-10.6,4.7-20.6,10.2-32.4,11.1
				c-16.1,1.2-27-8.2-42.2-10.1c-9.5-1.2-23.5,3.3-28.9-6.7c-4.3-7.9,0.6-25.2,6-31.5c15.3-17.9,46-33.5,66.7-44
				c23.8-12.2,46.9-27.4,69-43.1c13.4-9.5,27-18.7,40.4-28.2c8.8-6.3,12.2-6.4,11.3-16.4c-0.7-8-4.3-15.8-5-23.9
				c-0.5-6.3,1.7-14.8-1.2-18.9c-2.2-3-10.4-5.1-13.6-7.4c-11.8-8.3-14.4-18.7-19.8-31.4c-12.1-28.8-26.1-56.8-37.8-85.9
				c-25.2-62.4-40.5-128-61.4-191.7c-21.3-65-40.4-133.3-52.1-200.8c-15.7,4.8-30.5,25.9-43.1,36.4c-16.9,14.1-34.2,27.8-50.8,42.4
				c-27.2,23.8-54.7,47-77.2,75.5c-10.8,13.7-19.7,28.5-29.5,43c-5.7,8.3-10.9,17.8-17.1,25.7c-1,1.3-1,3.9-2.1,5
				c-2.3,2.4-6.8-0.8-8.3,0.8c-9.2,9.7-9.1,37.1-12,49.8c-4,17.6-8.4,37.7-22.1,49.8c-21.2,18.7-60.2,21.6-87,22.6
				c-34.4,1.2-67.8,10.8-100.4,21.1c-15.2,4.8-30,10.4-45.3,15.1c-8.8,2.7-18.8,8-28.2,7c-11.3-1.2-20.3-10.8-28.5-17.8
				c-13.3-11.3-25.5-22.5-25.1-41.1c0.5-19.7,11.1-34.5,27.9-44.3c32.4-18.9,68.7-31,103.7-44c13.4-5,24.9-10.5,37.7-17.3
				c18.1-9.5,38.9-17.3,55-29.9c4.7-3.7,22.1-15.1,23.6-20.9c0.2-0.8-4.2-9.7-4.2-11.1c0-3.6,2.1-7.6,3.4-10.7
				c8.4-19.7,22.4-38.6,33.1-57.2c19.7-34,39.4-68.1,62.2-100.1c45.4-63.7,96.5-126.1,151.6-181.7c26.9-27.1,50.1-57.9,77.3-84.6
				c10.8-10.6,22.2-19.2,35.5-26.1c14.8-7.7,31.5-9.2,48.4-11.5c41.2-5.7,75.5,6.5,114.2,17.1c36.5,10,73.1,18.5,109.8,28.9
				c40.3,11.5,80.3,22.4,120.5,34.9c21.5,6.7,43.6,10.8,65.2,17.2c10.4,3.1,49.7,22.4,58.4,16c-27.3-12.8-55.3-24.5-84.5-32.2
				c-8.6-2.3-14.1,0.2-13.8-9.6c0.2-5.4,6.2-12.7,8.4-17.1c5.2-10.6,11.1-21,16.2-31.6c-18.5,5.3-68.3,23.5-82.3,4.6
				c-14.6-19.7-2.4-58.3,6.7-77.6c23.9-50.3,64.5-92.3,104.1-130.3c8.6-8.2,27-18.9,31.6-29.4c1.4-3.2-1.6-7.8,1.5-12
				c1.9-2.5,9.3-4.1,12.3-6.8c10.9-9.6,19.6-29.9,27.1-42.5c7.9-13.2,15-27.6,24.9-39.4c16.2-19.4,32.9-40,59.1-44.5
				c12.9-2.2,26.5-1,38.9-5.5c14.9-5.4,29.1-13.8,44.1-19.4c-3.7-7.7-6.8-19.9-14-20.7c-7-0.8-17.2,5.2-25.2,5.1
				c-11.7-0.1-21.6-1.9-32.9-4.2c-12.5-2.5-16.6-2-21.1-15.5c-4.8-14.2-3.6-30.6-3.5-45.3c0-7.2,1.4-16.1,0.8-23.1
				c-0.9-10.6-3-11-11.3-17.8c-10.4-8.4-23.2-19.6-10.5-34.3c6.9-7.9,21-1.8,27.1-10.3c6.2-8.7,5.9-30.5,7.8-40.6
				c-19.2,9.4-12.1-25.8-12.1-34.2c0-12.3-8.3-34.5,3.6-44.7c5.5-4.8,9.6-0.8,15.9-3.6c7.2-3.1,11.7-11.3,19.4-14.5
				c15.2-6.3,30.8,1.3,46.5,0c18-1.4,35.6-4.2,53.6-1.3c8.6,1.4,12.2,4.6,19.4,8.2c7,3.5,14,4.5,21.6,6.7c6.7,2,12.6,3,17.2,8.9
				c3.6,4.6,2.1,12.4,5.8,16.4c3.6,3.9,10.7,3.4,14.9,8c4.1,4.5,6.5,11.9,8.7,17.5c2.9,7.5,3.2,10.3,8.3,16.4
				c4.4,5.3,10.8,9.5,14.5,15.5c8.7,14.1,8.9,34.6,6.1,50.4c-0.9,5.4-8.8,19.4-7.6,24c1.2,4.4,8.5,3.2,11.9,6
				c2.9,2.4,5.4,13.1,7.7,13.7c4.9,1.4,11-8.3,14.7-9.7c6.5-2.5,9.2-5.1,12.7,4.4c2.7,7.1-1,16.6-3,23.4
				c-2.5,8.6-5.2,18.9-11.8,25.4c-7.7,7.6-13.9,3.5-22.4,7.6c-12.7,6.2-9,25.4-24.7,30.9c-14.9,5.2-31.4-11.2-42.7-18.8
				c2.3,18.4,11.2,36.1,6.9,55c34.4-13.5,68.4-32.6,105.8-36.8c19.1-2.1,38.4-4.7,56.4,3.2c21.1,9.3,34,29.7,48.3,46.7
				c26.8,32,54.4,63,80.2,96c23.6,30.3,43.6,65.3,69.6,93.7c26.4,28.7,46.3,75.3,43.4,115.1c-0.3,3.6-3,11.8-2.6,15.6
				c0.3,3,3,6.7,3,9.1c-0.1,8.1-2.8,12.7-10.5,17.2c-13.3,7.7-33.1,11.7-48.2,13.6c-20,2.6-44.5,2.8-64.4,0.1
				c-20.6-2.8-38.7-14.4-57.7-21.3c-16.6-6.1-33.3-9.9-50.8-13.8c-9.6-2.2-20.3-8.1-26.3-2.3c-5.5,5.3-6.6,32.5-7.9,39.7
				c-13.8,78.4-30.3,154.2-44.8,232.2c-16.5,88.4-27.8,176.8-39.2,266c-10.4,81.1-13.8,163.1-16.2,244c-1.1,38.6-1.3,76.9-1,115.5
				c0.1,21.7,11,93.9-21.1,96.7c-18.9,1.6-34-25.4-39-40.2c-7.6-22.2-11.6-46-12.8-69.3c-2.4-47.1-5.7-94.3-7.6-141.4
				c-2.1-51.1,0.6-103.1,4.8-154c4.2-51.2,14.9-101.7,18.1-153.1c-9.8,14-12.9,16.6-29.3,22.7c-17.1,6.4-33.5,13.9-50.7,19.9
				c-5.9,2-15,3.3-19.8,6.6c-8.9,6.1-3-0.8-5.9,11.1c-3,12.7-3.6,27.9-4.4,41c-3.8,61.2-20.7,122-28.6,183
				c-1.9,14.7,0.8,77.1-24.5,57.5c-19.5-15.2-19.1-62.7-21.9-85c-3.7-29.7-1.6-60.3-1.1-90.2c0.7-34.1,1.2-69.8,9.4-103
				c-14.5-2.5-34.8,4.3-49.4,5.4c-12.7,1-25.3,1.6-37.9,2.3c-30.1,1.7-61,3-91.6,2.4c-5.6-0.1-41.9-5.2-46.6-1.1
				c-1.5,1.3-2,19.7-2.3,21.9c-1.1,8.4-2.5,16.8-3.6,25.2C888.3,1490.8,885.2,1519.5,886.2,1546.3L886.2,1546.3z"/>
			<path class="st3" d="M1425.9,1800.6c22.9,9,47.3,12.2,70.4,20.4c20.7,7.3,39.9,17.1,60.2,24.5c1.2-9.4,1.8-25.4-1.7-34.3
				c-4.9-12.6-17.9-12.9-30.7-17.4c-31.1-10.9-63.9-13.2-94.8-26C1434.7,1777.9,1432.3,1791.4,1425.9,1800.6 M1821.8,1767.6
				c-49.5,1.5-96.9,13-145.7,20.1c-23.8,3.5-47.5,6.6-71.3,9.8c-9.2,1.2-25.8-0.2-32.5,7.7c-5.5,6.6,0.5,29-1.9,38.6
				c10,0.7,27.8-8.6,38.7-10.2c16.9-2.4,33.6-5.8,50.7-6.8c27.1-1.7,53.7-3.2,80.7-6.2c27.5-3.1,54.1-8.8,81.8-10.8
				c13.5-1,18.9,1.5,19.7-12.7c0.3-5.6,1.1-14.9-0.5-20.3c2.5-6.7,0.3-10-6.6-9.8C1830.5,1766.4,1826.2,1766.7,1821.8,1767.6
				 M1726,1722.3c13.4-1.3,26.8-3.1,40.3-3.8c2.7-0.2,16.5,0.7,18.8-1.9c3.2-3.6-0.4-16.7-1-20.7c-2-13.8-4.2-21.8-19.2-21.8
				c-12.7,0-25.8,2.7-38.5,3.9c-57.4,5.6-114.5,8-171.2,18.7c3.5,14.7,7.4,29.9,3.2,44.9c27.2,1.4,57.1-3.8,83.7-9.2
				C1669.4,1726.8,1698.3,1724.1,1726,1722.3 M1635.2,1583.8c-20.5,0.1-42.2,9.1-62.4,7.1c-0.3,3.8,6.2,0.6,8,4.2
				c3.8,0,5.1,1.3,4,3.7c0.1,1.7-0.8,2.7-2.6,3c-0.9,0.1-1.8,0.2-2.7,0.2c-3.9,0.1-4.6,2.8-1.9,7.9c-1.1,6.4,0.6,14.5,0.8,20.9
				c36.4-4.9,71.7-10.1,108.3-12.3c17.3-1,34.6-1,51.8-2.5c19-1.6,39.7,1.8,58.3-1.8c9.9-1.9,8.9-1.8,8.2-14.7
				c-0.4-7.8-0.3-17.1-6.7-22.9c-10.7-9.6-34.9-4-47.7-3.7C1712.2,1574.1,1673.1,1577.7,1635.2,1583.8 M1656.2,1768.1
				c54.9-5,109.4-15.9,164.6-15.9c-3.9-3.9-12.4-4.9-17.3-7c-5.5-2.4-10.8-7.6-16.2-9.7c-10.9-4.3-21.9,1.7-33.1,4.2
				c-26.9,6.2-54.5,6.4-81.5,12.4c-27.9,6.2-56.1,12-84.5,15.2c-13.5,1.5-28,4.6-41.4,1c-1.1-0.8-2.2-1.6-3.3-2.3
				c-1.2-5-4.4-6.3-9.7-4c-6.8-1.3-15.3,0.4-22.1,0.5c-0.3,2.7,24.8,11.2,29.6,13.3c11.5,5.1,19.4,8.8,31.7,6.6
				C1600.8,1777.6,1628.1,1771.7,1656.2,1768.1 M1463,1607.6c2.1,8.4,11.2,4.6,18.9,5.5c10.4,1.2,20.8,4.8,30.9,7.5
				c18.3,4.9,36.6,9.8,54.9,15c-0.7-7.4,0.9-24.1-3-30.7c-4.1-6.8-23.5-9.9-32.5-11.9c-22.7-5.3-47-2.3-70.1-1.2
				C1462.5,1597.1,1462.8,1602.3,1463,1607.6 M1681.4,1659.9c21.6-1.8,43.2-3.2,64.8-4c24.7-0.9,6.8-4.8,6.2-19.9
				c-32.5,5.2-65.3,6.2-97.7,10.6c-26.8,3.7-58.8,13.3-86.2,8.1c-12.9-2.4-26.1-3.4-39.8-4.7c-13-1.3-25.2-7.3-38-8.8
				c-14.4-1.7-29.1,6.4-43.4,8.5c-6.1,0.9-7.5,5-10.3-2.3c-3-7.6,5.5-13.7,8.9-18.3c3.9-5.3,2.3,3.3,4.5-5c0.6-2.3-1-8.1-1.3-10.6
				c-0.8-6.3-2.7-13.1-3.1-19.4c-0.3-5.8-0.3-14.6,5.9-17.9c3.8-2.1,6.5,0.9,9.9,0.4c26-4.5,56.6-4.9,83-0.5
				c28.6,4.7,53.2-7.8,81.5-12.9c33.1-6,66.5-6.9,99.9-9.4c28.5-2.2,80.7-13.3,91.5,23.1c3.1,10.3,7.6,38.7-0.7,47.5
				c-10.9,11.5-36,7.9-50.1,10.9c2.1,6,8.4,10,6.2,17.2c19.7,0.9,23.2,19.5,26.3,36.9c3.2,18-3,25.1,14.1,34.5
				c23.9,13,49.3,26.2,48.8,57.2c-0.2,15.6-2,39.2-18,47.2c-15.7,7.9-41.2,6.6-58.5,9.5c-33.5,5.6-67.1,12.1-100.7,15.5
				c-35.9,3.6-72.3,6.5-108.2,8.1c-19.6,0.9-36.5,3.8-55.4-2.8c-18.6-6.5-36.8-11.2-55.9-16c-18.9-4.7-76.9-11.1-60-43.5
				c2.7-5.2,11.9-9.3,13.4-14.2c2.4-7.9-5.7-14.1-5.4-21.2c0.6-13.1,15.4-14.7,25.5-14.7c-17.4-10.9,5.9-23.8,5.8-33.1
				c-0.2-16.3-20.5-26.9-21.7-40.6c-2.8-33.3,102.8,1.4,119,8.6c-12.5,18.5-70.5,2.5-87.8-0.3c2.4,6.2,4.6,11.8,5.3,18.1
				c0.6,5.2-1.4,11.1,0.4,16.3c2.9,8.2,2.8,6.6,12.9,8.9c7.5,1.7,14.9,3.6,22.3,5.3c11.4,2.7,29.4,9.9,40.8,9.5
				c9.9-0.3,8,2.7,9.8-8.3c1-5.9-0.7-12.2-1.7-18c-2.1-12.2-5.1-23.7,5.5-32.4c10.1-8.3,31.5-12.3,44-15.2
				C1621.2,1661.2,1653.1,1659.6,1681.4,1659.9"/>
			<path class="st3" d="M1812.8,1452c-30-5-60.5-6.3-90.8-4.7c1.6,7.5,3.3,15,4.9,22.5C1755.3,1462.5,1784.2,1458.2,1812.8,1452
				L1812.8,1452z M1568.9,1510.3c-12-0.9-3.7,4.5-0.7,12.4c3.7,9.7,2.9,21.9,3.7,32.1c35.2-13.4,76.1-21.3,113.6-25.8
				c17.7-2.1,35.7-2.8,53.6-3.7c5.3-0.3,24.3,1.9,28.2-1.6c2.9-2.6,0.9-17.2-1.9-20.4c-15-17.5-72.9-2.4-93.8-0.8
				C1637.2,1505,1603.5,1511.1,1568.9,1510.3L1568.9,1510.3z M1618.9,1463.5c31.2,3,61.2,2.7,92.4,7.4c-2.4-19.8,0.5-24.9-22-25.9
				c-20-0.9-40-1.7-59.9-1.7c-44.8,0-89.5-0.8-134.4-0.8v20.1C1536.5,1458.3,1577.3,1466,1618.9,1463.5L1618.9,1463.5z
				 M1469.1,1537.5c19.7-0.1,38.3,7.3,57.9,9.3c11.8,1.2,8.1,2.6,16.2,8.5c12.7,9.2,16.4,4.3,14.8-8.2c-5.4-42.3-59-32.8-89.9-35.2
				c2,10.1-2.6,18.6-9.5,25.6H1469.1z M1681.6,1483.2c-28.3,0.5-56.6,2.1-84.7,1.5c-12.6-0.3-28.9-2.8-41.2-0.6
				c-9,1.6-16.6,6.2-26.5,7.9c14.5,7.8,21.9,2.5,37.2,0.8c15.3-1.8,30.8-1.7,46.1-2.7c25.2-1.5,52-7.6,76.9-5.9
				C1689.9,1480.6,1687.3,1480.3,1681.6,1483.2L1681.6,1483.2z M1457.3,1574.8c-13,0,4.9-14.8,7.2-16.2c-14.4,0-17.8-8.6-13.7-22.5
				c3.9-13,6.8-9-3-19.9c-7.4-8.2-8.6-14.2,0.2-23.3c8.9-9.3,27-6.7,34.9-14.3c13.4-13.1-3.9-39.1,14.7-49.1
				c12.6-6.8,32.9-5.9,46.8-7.4c13.4-1.4,27.3-1.6,40.9-1.8c29.5-0.4,60.1,4.5,89.5,7.3c10.7,1,22.7,5.3,33.3,5.3
				c10.8,0,22-2.4,33.1-2.1c12.9,0.3,25.3-0.6,38.7,1.5c10.2,1.6,34,2.5,41.8,10.1c26,25.3-35.6,36.9-46.2,39.7
				c10.8,11.8,10.3,27.4,8.7,42.3c5.1,0,14-2.2,16.6,3.5c3.3,7.1-8.9,9-11.8,9.8c-16.6,4.8-36.1,3.5-53.2,5.2
				c-34.2,3.5-68.1,5.5-101.9,12c-16.5,3.2-32.9,7.1-49.4,10.1c-2.8,0.5-5.7,1-8.6,1.3c-4.4-0.4-5.8,2.4-4.3,8.3
				c-4.6,2.2-21.7-3.3-26.9-4.2C1514.3,1565.5,1487.2,1567.5,1457.3,1574.8L1457.3,1574.8z"/>
			<path class="st3" d="M2067.6,1868.2c-19.5,15.3-37.6,29.8-58.7,43.1C2023.8,1910.9,2073.5,1887.1,2067.6,1868.2 M2060,1843.2
				c-10.6-9.1-21.2-8.2-34.4-11c-12.1-2.6-23.9-6.9-36-9.9c-9.5-2.3-18.9-5.4-28.4-7.6c-13.4-3.1-14.7,0.3-27,7.3
				c-43.6,24.8-92.4,41.9-138.3,62.1c13.5,11.9,43.8,12.4,60.7,16.2c12.3,2.8,24,6.5,35.8,10.9c11,4.1,28.6,13.4,40.2,13.7
				c9.8,0.3,17.7-9.3,26.1-14.5c11.1-6.8,22.1-13.5,33.2-20.1C2015.6,1876.3,2037.6,1859.1,2060,1843.2 M1863,1943.8
				c-5-4.8-20.2-4.6-26.5-6.1c-12.4-2.9-24.7-5.9-37.3-8.1c-20.4-3.5-52.7-5.1-54.9-31.6c-1.8-22,24.8-27.3,40.3-34.7
				c23.4-11.2,47.3-21.6,71.3-31.5c22.5-9.3,45.4-17.1,68.3-25.1c4.5-1.6,8.1-1.3,11.7-4.9c2.9-2.8,2-8.3,5.1-11.3
				c7.2-6.8,16.6-3.2,25.3-1.5c19.7,3.9,40.2,9.1,59,16.4c19.5,7.6,37,9.2,41.7,31.3c10-4.7,17.5-5.4,16.3,8.4
				c-0.3,4-3.3,8.4-4,12.6c-1,6.2,0.8,12.6-0.2,18.8c-3.7,22.4-34,39-52.7,47.8c-23.1,10.9-52.9,26.9-78.7,29
				C1920.3,1955.6,1890.3,1944.8,1863,1943.8"/>
			<path class="st3" d="M1513.1,1571.9c-8.2,0.1-16.4,0.1-24.6,0.2C1496.7,1570.5,1504.9,1570.5,1513.1,1571.9"/>
			<path class="st3" d="M1033.6,704.9c-2.5,4.1-4.9,8.2-7.4,12.3C1027.1,711.9,1028.9,707.3,1033.6,704.9"/>
			<path class="st3" d="M1513.1,1689.4c4.9,0,9.9,0.1,14.8,0.1C1522.9,1689.4,1518,1689.4,1513.1,1689.4"/>
			<path class="st3" d="M1626.2,1421.9c-5.7-0.3-11.5-0.6-17.2-0.9C1614.7,1421.3,1620.5,1421.6,1626.2,1421.9"/>
			<path class="st3" d="M1527.9,1572c-4.9,0-9.8-0.1-14.8-0.1C1518,1570.5,1523,1570.5,1527.9,1572"/>
			<path class="st3" d="M1723.6,874.5c-0.1-4.9-0.3-9.8-0.4-14.8C1723.3,864.7,1723.4,869.6,1723.6,874.5"/>
			<path class="st3" d="M887.4,1616.9c-0.1-4.1-0.2-8.2-0.3-12.3C887.2,1608.7,887.3,1612.8,887.4,1616.9"/>
			<path class="st3" d="M1021.3,1416.5c3.3,0,6.6,0,9.8,0C1027.9,1416.5,1024.6,1416.5,1021.3,1416.5"/>
			<path class="st3" d="M1461.5,533.6c-4.1,0.3-8.2,0.6-12.3,0.9C1453.3,534.1,1457.4,533.9,1461.5,533.6"/>
			<path class="st3" d="M1771.3,1431.3c-4.9,0-9.8-0.1-14.8-0.1C1761.5,1431.3,1766.4,1431.3,1771.3,1431.3"/>
			<path class="st3" d="M1357.1,1734.9c-0.1-3.3-0.2-6.6-0.4-9.8C1356.9,1728.3,1357,1731.6,1357.1,1734.9"/>
			<path class="st3" d="M1362,1609.5c-0.1-3.3-0.2-6.6-0.3-9.8C1361.8,1603,1361.9,1606.2,1362,1609.5"/>
			<path class="st3" d="M1278.1,1666.1c0.1,3.3,0.2,6.6,0.4,9.8C1278.3,1672.6,1278.2,1669.3,1278.1,1666.1"/>
			<path class="st3" d="M1041,1414.1c2.5,0,4.9-0.1,7.4-0.1C1045.9,1414.1,1043.4,1414.1,1041,1414.1"/>
			<path class="st3" d="M1754.1,1542.1c2.5-0.1,4.9-0.2,7.4-0.3C1759,1541.9,1756.5,1542,1754.1,1542.1"/>
			<path class="st3" d="M1283,1744.7c0.1,3.3,0.3,6.6,0.4,9.8C1283.3,1751.3,1283.1,1748,1283,1744.7"/>
			<path class="st3" d="M1546.6,1727.5c-0.2,3.3-0.3,6.6-0.5,9.8C1546.2,1734.1,1546.4,1730.8,1546.6,1727.5"/>
			<path class="st3" d="M1263.1,262.7c-3.5-0.4-6.9-0.9-10.4-1.3C1256.2,262.2,1259.9,259.2,1263.1,262.7"/>
			<path class="st3" d="M1113.7,1523.5c-0.1,3.3-0.2,6.6-0.3,9.8C1113.5,1530,1113.6,1526.8,1113.7,1523.5"/>
			<path class="st3" d="M902.3,1823.4c-0.2-3.3-0.3-6.6-0.5-9.8C902,1816.8,902.1,1820.1,902.3,1823.4"/>
			<path class="st3" d="M1697.5,1546.9c2.5-0.1,4.9-0.1,7.4-0.2C1702.4,1546.8,1700,1546.9,1697.5,1546.9"/>
			<path class="st3" d="M862.7,950.7c0,3.3,0,6.6,0.1,9.8C862.7,957.2,862.7,954,862.7,950.7"/>
			<path class="st3" d="M811.1,1688.2c0,3.3,0,6.6,0,9.8C811.1,1694.7,811.1,1691.5,811.1,1688.2"/>
			<path class="st3" d="M1423.9,1668.5c-0.1,3.3-0.2,6.6-0.3,9.8C1422.3,1675,1422.5,1671.7,1423.9,1668.5"/>
			<path class="st3" d="M964.8,1419c2.5,0,4.9,0,7.4,0C969.7,1419,967.2,1419,964.8,1419"/>
			<path class="st3" d="M1359.5,1653.8c0-3.3-0.1-6.6-0.1-9.8C1359.4,1647.2,1359.4,1650.5,1359.5,1653.8"/>
			<path class="st3" d="M1862.3,1945c2.5,0.1,4.9,0.1,7.4,0.2C1867.2,1945.1,1864.7,1945,1862.3,1945"/>
			<path class="st3" d="M1773.8,1632.9c1.6,0,3.3-0.1,4.9-0.1C1777,1632.9,1775.4,1632.9,1773.8,1632.9"/>
			<path class="st3" d="M1712.3,1640.3c1.6,0,3.3,0,4.9,0C1715.6,1640.2,1713.9,1640.3,1712.3,1640.3"/>
			<path class="st3" d="M754.7,1656.2c-0.1-2.5-0.2-4.9-0.3-7.4C754.5,1651.3,754.6,1653.8,754.7,1656.2"/>
			<path class="st3" d="M1761.5,1654.4c-2.1,2.2-4.9,0.9-7.4,1C1756.5,1655,1759,1654.7,1761.5,1654.4"/>
			<path class="st3" d="M1468.8,1575.7c-3.2,1.5-6.5,1.7-9.8,0.1C1462.3,1575.8,1465.6,1575.7,1468.8,1575.7"/>
			<path class="st3" d="M1682.8,1660c-3.3,0-6.6-0.1-9.8-0.1C1676.2,1659.9,1679.5,1659.9,1682.8,1660"/>
			<path class="st3" d="M1545.1,1574.3c-3.3-0.3-6.6-0.6-9.8-0.9C1538.5,1573.7,1541.8,1574,1545.1,1574.3"/>
			<path class="st3" d="M793.9,1562.8c-0.1,2.5-0.1,4.9-0.2,7.4C793.8,1567.7,793.9,1565.3,793.9,1562.8"/>
			<path class="st3" d="M1359.2,1695.6c0.1-2.5,0.3-4.9,0.4-7.4C1359.5,1690.7,1359.4,1693.1,1359.2,1695.6"/>
			<path class="st3" d="M1697.5,1553.8c-3.3,0.3-6.6,0.6-9.8,0.8C1691,1554.3,1694.3,1554.1,1697.5,1553.8"/>
			<path class="st3" d="M887.4,1545.6c-0.1-2.5-0.1-4.9-0.2-7.4C887.3,1540.7,887.3,1543.2,887.4,1545.6"/>
			<path class="st3" d="M1298.2,1356.3c-0.2,2.5-0.4,4.9-0.6,7.4C1297.8,1361.2,1298,1358.8,1298.2,1356.3"/>
			<path class="st3" d="M1746.7,1430.7c-3.3,1.7-6.6,1.5-9.8,0C1740.2,1430.7,1743.4,1430.7,1746.7,1430.7"/>
			<path class="st3" d="M1357.2,1771.8c-0.1-2.5-0.3-4.9-0.4-7.4C1356.9,1766.9,1357,1769.3,1357.2,1771.8"/>
			<path class="st3" d="M1357.1,1791.4c-0.1-2.5-0.2-4.9-0.3-7.4C1356.9,1786.5,1357,1789,1357.1,1791.4"/>
			<path class="st3" d="M892.2,1466.9c0-2.5,0.1-4.9,0.1-7.4C892.2,1462,892.2,1464.5,892.2,1466.9"/>
			<path class="st3" d="M1591.8,1859.1c1.6,0,3.3-0.1,4.9-0.1C1595.1,1859,1593.4,1859.1,1591.8,1859.1"/>
			<path class="st3" d="M799,1879.9c-0.1-2.5-0.3-4.9-0.4-7.4C798.7,1875,798.8,1877.5,799,1879.9"/>
			<path class="st3" d="M1331.1,1900.8c1.6,0,3.3,0.1,4.9,0.1C1334.4,1900.9,1332.8,1900.8,1331.1,1900.8"/>
			<path class="st3" d="M1687.7,1429.2c-3.3-0.2-6.6-0.5-9.8-0.7C1681.1,1428.7,1684.4,1429,1687.7,1429.2"/>
			<path class="st3" d="M1704.9,1431.8l-7.4-1L1704.9,1431.8z"/>
			<path class="st3" d="M1332.2,1690.6c0.1-7.4,0.3-14.8,0.4-22.1C1332.4,1675.9,1332.3,1683.3,1332.2,1690.6"/>
			<path class="st3" d="M1140.4,1420.2c0.1,5.7,0.2,11.5,0.3,17.2C1140.6,1431.7,1140.5,1426,1140.4,1420.2"/>
			<path class="st3" d="M716.4,1780.3c-4.1,0-8.2,0.1-12.3,0.2C708.2,1780.4,712.3,1780.3,716.4,1780.3"/>
			<path class="st3" d="M1053.3,1291.3c-4.1-0.1-8.2-0.1-12.3-0.2C1045.1,1291.1,1049.2,1291.2,1053.3,1291.3"/>
			<path class="st3" d="M947.5,1387c4.1,0,8.2,0,12.3,0C955.7,1387,951.6,1387,947.5,1387"/>
			<path class="st3" d="M1001.6,1288.6c-3.3,0.1-6.6,0.1-9.8,0.2C995.1,1288.7,998.4,1288.7,1001.6,1288.6"/>
			<path class="st3" d="M736.1,1780.4c-3.3,0-6.6,0-9.8-0.1C729.5,1780.4,732.8,1780.4,736.1,1780.4"/>
			<path class="st3" d="M1178.7,524.6c4.1-0.3,8.2-0.6,12.3-0.9C1186.9,524,1182.8,524.3,1178.7,524.6"/>
			<path class="st3" d="M1233.8,813c0.2-4.1,0.3-8.2,0.5-12.3C1234.1,804.8,1233.9,808.9,1233.8,813"/>
			<path class="st3" d="M1134.4,851.1c-2.5,0-4.9,0-7.4,0C1129.5,851.1,1132,851.1,1134.4,851.1"/>
			<path class="st3" d="M925.4,1281.3c-2.5,0-4.9,0.1-7.4,0.1C920.5,1281.3,923,1281.3,925.4,1281.3"/>
			<path class="st3" d="M868.9,1381.7c3.3,0.3,6.6,0.5,9.8,0.8C875.4,1382.3,872.1,1382,868.9,1381.7"/>
			<path class="st3" d="M862.6,1506.3c0.1-3.3,0.1-6.6,0.2-9.8C862.7,1499.7,862.7,1503,862.6,1506.3"/>
			<path class="st3" d="M1144.3,1375.2c3.3-0.3,6.6-0.6,9.8-1C1150.8,1374.6,1147.5,1374.9,1144.3,1375.2"/>
			<path class="st3" d="M1369,1317c0.2-3.3,0.4-6.6,0.6-9.8C1369.4,1310.4,1369.2,1313.7,1369,1317"/>
			<path class="st3" d="M1412.3,863.8c3.3-0.3,6.6-0.5,9.8-0.8C1418.8,863.3,1415.6,863.5,1412.3,863.8"/>
			<path class="st3" d="M1077.9,1293.7c-2.5,0-4.9,0-7.4-0.1C1073,1293.6,1075.4,1293.6,1077.9,1293.7"/>
			<path class="st3" d="M862.9,1690.6c-0.1-2.5-0.2-4.9-0.4-7.4C862.6,1685.7,862.8,1688.2,862.9,1690.6"/>
			<path class="st3" d="M1138.6,1565.3c5.4,13.3,2.4,3.9,2.5,7C1136.5,1572.8,1135.7,1570.5,1138.6,1565.3"/>
			<path class="st3" d="M913.1,1281.5c-2.5-0.1-4.9-0.2-7.4-0.3C908.2,1281.3,910.7,1281.4,913.1,1281.5"/>
			<path class="st3" d="M1415.7,1031.8c0.2-3.3,0.3-6.6,0.5-9.8C1416.1,1025.3,1415.9,1028.5,1415.7,1031.8"/>
			<path class="st3" d="M862.7,1666.1c0-3.3,0-6.6,0-9.8C862.7,1659.5,862.7,1662.8,862.7,1666.1"/>
			<path class="st3" d="M862.4,1592.3c0.2-2.5,0.3-4.9,0.5-7.4C862.8,1587.4,862.6,1589.9,862.4,1592.3"/>
			<path class="st3" d="M1373.8,1270.3c0.2-2.5,0.5-4.9,0.7-7.4C1374.3,1265.4,1374.1,1267.8,1373.8,1270.3"/>
			<path class="st3" d="M830.4,1599.7c0.2,2.5,0.4,4.9,0.7,7.4C830.8,1604.6,830.6,1602.1,830.4,1599.7"/>
			<path class="st3" d="M825.5,1580c0.2,2.5,0.5,4.9,0.7,7.4C825.9,1584.9,825.7,1582.5,825.5,1580"/>
			<path class="st3" d="M1317.3,1243.2c0.2-2.5,0.4-4.9,0.6-7.4C1317.7,1238.3,1317.5,1240.8,1317.3,1243.2"/>
			<path class="st3" d="M62.3,1576.7c3.3-0.3,6.6-0.5,9.8-0.8C68.9,1576.2,65.6,1576.5,62.3,1576.7"/>
			<path class="st3" d="M1295.6,1636.6c-0.1,2.5-0.2,4.9-0.3,7.4C1295.4,1641.5,1295.5,1639,1295.6,1636.6"/>
			<path class="st3" d="M1334.6,1643.9c0.2-2.5,0.4-4.9,0.5-7.4C1334.9,1639,1334.7,1641.5,1334.6,1643.9"/>
			<path class="st3" d="M1319.7,1233.4c0.3-2.5,0.5-4.9,0.8-7.4C1320.2,1228.5,1319.9,1230.9,1319.7,1233.4"/>
			<path class="st3" d="M82,1574.4c3.3-0.3,6.6-0.6,9.8-1C88.5,1573.7,85.3,1574,82,1574.4"/>
			<path class="st3" d="M1124.6,1291.1c-1.6,0-3.3,0-4.9,0.1C1121.3,1291.2,1123,1291.2,1124.6,1291.1"/>
			<path class="st3" d="M862.7,1570.2c0-2.5,0-4.9,0-7.4C862.7,1565.3,862.7,1567.7,862.7,1570.2"/>
			<path class="st3" d="M1339.9,1565.3c-0.9-2.5-1.3-5,0.4-7.4C1340.2,1560.4,1340.1,1562.8,1339.9,1565.3"/>
			<path class="st3" d="M1298,1518.6c-0.1,2.5-0.1,4.9-0.2,7.4C1297.9,1523.5,1298,1521,1298,1518.6"/>
			<path class="st3" d="M1300.2,1761.9c0.2,2.5,0.3,4.9,0.5,7.4C1300.5,1766.8,1300.3,1764.4,1300.2,1761.9"/>
			<path class="st3" d="M1481.1,867.8c2.5,0.4,4.9,0.7,7.4,1C1486.1,868.5,1483.6,868.2,1481.1,867.8"/>
			<path class="st3" d="M1471.3,868c3.3,0.2,6.9-1.4,9.8,0.9L1471.3,868z"/>
			<path class="st3" d="M1050.8,1387.1c3.3,0,6.6,0,9.8,0C1057.4,1387,1054.1,1387.1,1050.8,1387.1"/>
			<path class="st3" d="M1124.6,865.4l9.8,0.9C1131.1,866,1127.9,865.7,1124.6,865.4"/>
			<path class="st3" d="M962.3,1386.4c3.3,0,6.6,0,9.8,0C968.8,1388,965.6,1388.2,962.3,1386.4"/>
			<path class="st3" d="M872.8,1798.8c-0.2-2.5-0.4-4.9-0.6-7.4C872.4,1793.9,872.6,1796.4,872.8,1798.8"/>
			<path class="st3" d="M1231.5,869.6c0-2.5,0.1-4.9,0.1-7.4C1231.6,864.7,1231.5,867.1,1231.5,869.6"/>
			<path class="st3" d="M1023.8,1387.4c3.3-0.3,6.6-0.5,9.8-0.8C1030.3,1386.9,1027,1387.2,1023.8,1387.4"/>
			<path class="st3" d="M1302.8,1820.9c0.1,2.5,0.1,4.9,0.2,7.4C1302.9,1825.8,1302.8,1823.4,1302.8,1820.9"/>
			<path class="st3" d="M1311.5,807.3c3.3-0.3,6.6-0.6,9.8-0.9C1318,806.7,1314.7,807,1311.5,807.3"/>
			<path class="st3" d="M1354.2,1435c0.2-2.5,0.5-4.9,0.7-7.4C1354.6,1430.1,1354.4,1432.5,1354.2,1435"/>
			<path class="st3" d="M1467.3,778.6c0.2-2.5,0.4-4.9,0.6-7.4C1467.7,773.7,1467.5,776.1,1467.3,778.6"/>
			<path class="st3" d="M1233.9,567.2c0,2.5,0.1,4.9,0.1,7.4C1234,572.1,1234,569.6,1233.9,567.2"/>
			<path class="st3" d="M1146.7,521.3c3.3,0.3,6.6,0.5,9.8,0.8C1153.3,521.8,1150,521.6,1146.7,521.3"/>
			<path class="st3" d="M654.9,1918.5c3.3-0.3,6.6-0.6,9.8-1C661.5,1917.9,658.2,1918.2,654.9,1918.5"/>
			<path class="st3" d="M1151.6,497.1c-1.6,0-3.3,0-4.9,0C1148.4,497.1,1150,497.1,1151.6,497.1"/>
			<path class="st3" d="M546.7,1950.5c3.3-1.7,6.6-1.2,9.8,0C553.3,1950.5,550,1950.5,546.7,1950.5"/>
			<path class="st3" d="M1822.9,1807.9c5.7-0.3,11.5-0.6,17.2-0.9C1834.4,1807.3,1828.7,1807.6,1822.9,1807.9"/>
			<path class="st3" d="M1822.9,1765.5c-3.3,0.1-6.6,0.2-9.8,0.2C1816.4,1765.7,1819.7,1765.6,1822.9,1765.5"/>
			<path class="st3" d="M1773.8,1716.8c4.1-0.3,8.2-0.6,12.3-0.9C1782.2,1718.2,1777.9,1716.4,1773.8,1716.8"/>
			<path class="st3" d="M1727,1721.8c4.1-0.3,8.2-0.6,12.3-0.9C1735.2,1721.2,1731.1,1721.5,1727,1721.8"/>
			<path class="st3" d="M1658.2,1766c3.3-0.3,6.6-0.5,9.8-0.8C1664.7,1765.5,1661.5,1765.8,1658.2,1766"/>
			<path class="st3" d="M1675.4,1766c3.3-0.3,6.6-0.5,9.8-0.8C1682,1765.5,1678.7,1765.8,1675.4,1766"/>
			<path class="st3" d="M1687.7,1763.6c3.3-0.3,6.6-0.6,9.8-0.9C1694.3,1763,1691,1763.3,1687.7,1763.6"/>
			<path class="st3" d="M1704.9,1679.6c-2.5,0-4.9,0-7.4,0C1700,1679.6,1702.5,1679.6,1704.9,1679.6"/>
			<path class="st3" d="M1766.4,1815c3.3-0.3,6.6-0.6,9.8-0.8C1773.2,1816.3,1769.7,1815.1,1766.4,1815"/>
			<path class="st3" d="M1672.9,1618.6c3.3-0.3,6.6-0.6,9.8-0.9C1679.5,1618,1676.2,1618.3,1672.9,1618.6"/>
			<path class="st3" d="M1660.6,1578.8c-2.5,0-4.9,0-7.4,0C1655.7,1578.8,1658.2,1578.8,1660.6,1578.8"/>
			<path class="st3" d="M1636.1,1583.7c-1.6,0-3.3,0-4.9,0C1632.8,1583.7,1634.4,1583.7,1636.1,1583.7"/>
			<path class="st3" d="M1577,1590.5c-0.8,2-5.2,1.8-4.9-0.3C1573.8,1590.3,1575.4,1590.4,1577,1590.5"/>
			<path class="st3" d="M1462.5,1599.7c0.1,2.5,0.2,4.9,0.3,7.4C1462.7,1604.6,1462.6,1602.1,1462.5,1599.7"/>
			<path class="st3" d="M1798.3,1612.7c2.5,0,4.9-0.1,7.4-0.1C1803.3,1614.3,1800.8,1614.1,1798.3,1612.7"/>
			<path class="st3" d="M1704.9,1576.3c-1.6,0-3.3,0-4.9,0.1C1701.6,1576.3,1703.3,1576.3,1704.9,1576.3"/>
			<path class="st3" d="M1641,1731.7c3.3-0.3,6.6-0.6,9.8-0.9C1647.5,1731.1,1644.3,1731.4,1641,1731.7"/>
			<path class="st3" d="M1601.6,1736.6l9.8-0.9L1601.6,1736.6z"/>
			<path class="st3" d="M1793.4,1810.3c3.3-0.3,6.6-0.6,9.8-0.9C1800,1809.7,1796.7,1810,1793.4,1810.3"/>
			<path class="st3" d="M1675.4,1825.1c3.3-1.2,6.6-1.6,9.8,0C1682,1825.2,1678.7,1825.1,1675.4,1825.1"/>
			<path class="st3" d="M1670.2,1486.3l-4.6-1.6c5.7-0.1,11.5-0.1,17.2-0.2C1682.8,1484.5,1670.8,1486.3,1670.2,1486.3"/>
			<path class="st3" d="M1626.2,1443.6c-4.1,0-8.2,0-12.3,0C1618,1443.6,1622.1,1443.6,1626.2,1443.6"/>
			<path class="st3" d="M1471.3,1537.6c4.1-1.6,8.2-1.3,12.3,0C1479.5,1537.5,1475.4,1537.5,1471.3,1537.6"/>
			<path class="st3" d="M1719.7,1497.6c-2.5,0-4.9,0.1-7.4,0.1C1714.8,1497.7,1717.2,1497.7,1719.7,1497.6"/>
			<path class="st3" d="M1668,1465.3c4.1,0.3,8.2,0.5,12.3,0.8C1676.2,1465.8,1672.1,1465.6,1668,1465.3"/>
			<path class="st3" d="M1616.4,1490.7c4.1-0.3,8.2-0.6,12.3-0.9C1624.6,1490.1,1620.5,1490.4,1616.4,1490.7"/>
			<path class="st3" d="M1648.3,1485.8c3.3-0.3,6.6-0.6,9.8-0.8C1654.9,1485.2,1651.6,1485.5,1648.3,1485.8"/>
			<path class="st3" d="M1621.3,1462.8c3.3,0.3,6.6,0.5,9.8,0.8C1627.9,1463.4,1624.6,1463.1,1621.3,1462.8"/>
			<path class="st3" d="M1574.6,1510c-1.6,0-3.3-0.1-4.9-0.1C1571.3,1509.9,1572.9,1510,1574.6,1510"/>
			<path class="st3" d="M1626.2,1485.5c-1.6-0.1-3.3-0.2-4.9-0.3C1623,1485.3,1624.6,1485.4,1626.2,1485.5"/>
			<path class="st3" d="M1594.3,1485.4c-1.6,0-3.3-0.1-4.9-0.1C1591,1485.4,1592.6,1485.4,1594.3,1485.4"/>
			<path class="st3" d="M1682.8,1483.2c0,0.6,7.4-2.6,7.4,0.4L1682.8,1483.2z"/>
			<path class="st3" d="M1655.7,1443.6c-1.6,0-3.3,0-4.9,0C1652.5,1443.6,1654.1,1443.6,1655.7,1443.6"/>
			<path class="st3" d="M782.8,1327c2.7-10.9,1.9-19.4,11.4-12.4c5.2,3.8,13.8,23.1,13.1,29.7c-0.8,8.1-4.5,11.3-12.1,8.7
				C786.5,1350,783,1335.1,782.8,1327"/>
			<path class="st3" d="M1261.9,1261c22,0,12.4,23.4-5.9,24c-8.4,0.2-20.6-1.4-17.8-12.7C1239.6,1266.3,1261,1258.1,1261.9,1261"/>
			<path class="st3" d="M1025.7,1307.1c15.9,7.7-6.5,41.5-20.9,33.1C986.3,1329.5,1019.1,1312,1025.7,1307.1"/>
			<path class="st3" d="M987,1339.1c5.2,5.7,28.7,24.9,15.7,32.6C986.8,1381.3,974.7,1349.9,987,1339.1"/>
			<path class="st3" d="M720.5,1324.4c-5.2-10,1.9-36.2,17.7-31.4C754.1,1297.8,729.3,1321.7,720.5,1324.4"/>
			<path class="st3" d="M1071.3,1330.1c10.3-4.1,8.3,8.1,9.9,12.1c1.8,4.5,10.8,15.5,8.6,20.2c-3.4,7.1-11.5,2.6-15.8-2
				C1066.3,1352.3,1066.8,1339.3,1071.3,1330.1"/>
			<path class="st3" d="M914.2,1341.5c-8.6,0-29.1-24.8-17.1-28.9C912.1,1307.4,924.6,1343.3,914.2,1341.5"/>
			<path class="st3" d="M1211.2,1302.2c7.9,1.9,18.3,24.2,6.4,26.8C1204.5,1331.9,1202.1,1308.4,1211.2,1302.2"/>
			<path class="st3" d="M1163.4,1344c-6.2-11.9-7.7-37.3,7.4-16.9c3.3,4.4,6.6,2.6,5,9.9C1174.3,1343.4,1168.5,1344,1163.4,1344"/>
			<path class="st3" d="M838.3,1282.6c6.3,9.5,4.4,39.2-8.7,21.6C824,1296.7,827.9,1282.9,838.3,1282.6"/>
			<path class="st3" d="M1154.6,390.4c12.2-3.2,15.1,25.6,8,28.8C1152.6,423.7,1153.9,395.2,1154.6,390.4"/>
			<path class="st3" d="M1926.6,1852c-11.3-0.7-27.2-3.8-10-11.8c10.9-5.1,27.1-5.4,38.6-3.4c7.9,1.4,19.8,8,7.7,16.5
				C1955.8,1858.4,1935.2,1852.3,1926.6,1852"/>
			<path class="st3" d="M1913.9,1872.6c-3.3-0.4-6.5-0.7-9.8-1.1C1906.7,1866.7,1914.3,1865.7,1913.9,1872.6"/>
			<path class="st3" d="M1928.7,1851.6c3.3,0.1,6.6,0.1,9.8,0.2C1935.2,1851.7,1931.9,1851.6,1928.7,1851.6"/>
		</g>
	</g>
</g>
</svg>
