<svg
  width="594"
  height="512"
  viewBox="0 0 594 512"
  fill="none"
  xmlns="http://www.w3.org/2000/svg"
>
  <style>
    @media (prefers-color-scheme: light) {
      #favicon {
        fill: #111;
      }
    }
    @media (prefers-color-scheme: dark) {
      #favicon {
        fill: #fff;
      }
    }
  </style>
  <path
    id="favicon"
    d="M593.086 398.933C593.086 425.956 587.074 450.489 575.049 472.533C561.61 498.844 541.098 512 513.513 512C486.635 512 462.94 489.956 442.427 445.867C433.939 429.511 422.622 393.956 408.476 339.2C380.891 393.244 350.476 435.556 317.232 466.133C284.695 496.711 241.549 512 187.793 512C134.037 512 89.122 489.6 53.0488 444.8C17.6829 399.289 0 347.378 0 289.067C0 213.689 18.0366 148.622 54.1098 93.8667C95.1342 31.2889 151.72 0 223.866 0C324.305 0 379.476 64 389.378 192L458.342 12.8H566.562L426.513 310.4C434.293 337.422 447.732 361.6 466.83 382.933C485.927 403.556 506.793 413.867 529.427 413.867C552.062 413.867 572.574 400.356 590.964 373.333C592.379 383.289 593.086 391.822 593.086 398.933ZM364.976 229.333C364.976 187.378 355.074 151.111 335.269 120.533C310.513 84.9778 279.037 67.2 240.842 67.2C190.622 67.2 150.305 98.4889 119.89 161.067C94.4269 212.267 81.6952 265.6 81.6952 321.067C81.6952 426.311 112.11 478.933 172.939 478.933C211.134 478.933 252.512 445.511 297.073 378.667C342.342 311.111 364.976 261.333 364.976 229.333Z"
    fill="black"
  />
</svg>
